/* XPM */
static char *b4c824b7e07e402a9eafbf066bc382e8[] = {
/* columns rows colors chars-per-pixel */
"64 64 187 2 ",
"   c #000000",
".  c #090001",
"X  c #1E1C00",
"o  c #312D10",
"O  c #103232",
"+  c #2D3329",
"@  c #373B25",
"#  c #3C3D25",
"$  c #3D3D3D",
"%  c #453C23",
"&  c #004000",
"*  c #005702",
"=  c #005918",
"-  c #204F00",
";  c #195832",
":  c #204F2D",
">  c #3B4125",
",  c #374728",
"<  c #3A4428",
"1  c #20502D",
"2  c #2D5E2E",
"3  c #325C2E",
"4  c #275E37",
"5  c #28632D",
"6  c #236631",
"7  c #2B6B33",
"8  c #306A32",
"9  c #2D7432",
"0  c #337735",
"q  c #5A4C1B",
"w  c #5D521C",
"e  c #635416",
"r  c #62541B",
"t  c #6B5C1D",
"y  c #6F611D",
"u  c #454224",
"i  c #4C4621",
"p  c #5B4923",
"a  c #5B4B32",
"s  c #655535",
"d  c #6B573D",
"f  c #69593D",
"g  c #7C6A24",
"h  c #163E7E",
"j  c #215258",
"k  c #1D4D75",
"l  c #275469",
"z  c #4C494C",
"x  c #5A5A5A",
"c  c #7A5F42",
"v  c #7A6041",
"b  c #606060",
"n  c #6A6A6A",
"m  c #717572",
"M  c #747474",
"N  c #7A7A7A",
"B  c #826D26",
"V  c #8B6E29",
"C  c #89732C",
"Z  c #927732",
"A  c #9A7B37",
"S  c #00A703",
"D  c #00B500",
"F  c #00BA01",
"G  c #00BB0D",
"H  c #00BB14",
"J  c #00BB1B",
"K  c #009E23",
"L  c #32812F",
"P  c #3E9133",
"I  c #00A32D",
"U  c #00BC25",
"Y  c #00BC29",
"T  c #00A433",
"R  c #1FA03B",
"E  c #00B337",
"W  c #00BD33",
"Q  c #00B539",
"!  c #00BE3C",
"~  c #09BE3E",
"^  c #4EAB1F",
"/  c #419532",
"(  c #4A9E34",
")  c #53B528",
"_  c #4AA334",
"`  c #4DAA35",
"'  c #4CA839",
"]  c #53B537",
"[  c #55B936",
"{  c #50B03A",
"}  c #01C23E",
"|  c #59C137",
" . c #5BC539",
".. c #5DC93B",
"X. c #3B8847",
"o. c #359A46",
"O. c #37B94F",
"+. c #5FB06B",
"@. c #3BC152",
"#. c #45C35A",
"$. c #66CA4B",
"%. c #59C669",
"&. c #5EC971",
"*. c #61C76F",
"=. c #66C974",
"-. c #6ACA78",
";. c #9E813D",
":. c #A68342",
">. c #AB8543",
",. c #AB8948",
"<. c #B9924D",
"1. c #A68352",
"2. c #B48B5A",
"3. c #BD9451",
"4. c #B08D65",
"5. c #C59656",
"6. c #C89757",
"7. c #C69955",
"8. c #C99B56",
"9. c #C69658",
"0. c #C89759",
"q. c #C69959",
"w. c #C99959",
"e. c #CEA256",
"r. c #CFA856",
"t. c #CEA258",
"y. c #D1A656",
"u. c #D4AC56",
"i. c #D8AF57",
"p. c #D2A658",
"a. c #D5AB58",
"s. c #D9AF58",
"d. c #D6B154",
"f. c #DAB455",
"g. c #DEBA55",
"h. c #DAB359",
"j. c #DBB658",
"k. c #E1BD55",
"l. c #E1BD58",
"z. c #C59C67",
"x. c #D0AF67",
"c. c #C7A57D",
"v. c #E2C055",
"b. c #133C8A",
"n. c #143F90",
"m. c #154192",
"M. c #1E4C95",
"N. c #1B4798",
"B. c #24599C",
"V. c #255CA4",
"C. c #325DAA",
"Z. c #245EB5",
"A. c #245EB8",
"S. c #2860B6",
"D. c #2560B8",
"F. c #8E8E8E",
"G. c #959595",
"H. c #9A959A",
"J. c #9B9B9B",
"K. c #98A995",
"L. c #ACACAC",
"P. c #B3B3B3",
"I. c #BBBBBB",
"U. c #87CB8F",
"Y. c #97D59E",
"T. c #98D59F",
"R. c #9BD6A1",
"E. c #ADDEB4",
"W. c #B1DFB7",
"Q. c #B5E1BB",
"!. c #BCE3C0",
"~. c #C3C3C3",
"^. c #CED5CF",
"/. c #DCDCDC",
"(. c #C5E6C9",
"). c #D6EDD9",
"_. c #DBEEDC",
"`. c #E1DEE0",
"'. c #E5E5E5",
"]. c #E7E9E7",
"[. c #EFEFEF",
"{. c #E9F6EB",
"}. c #EBF6EC",
"|. c #EFF8F1",
" X c #F4F4F4",
".X c #F3F9F3",
"XX c #FFFFFF",
/* pixels */
"D.D.D.D.D.D.D.D.D.D.D.D.D.D.D.D.D.D.D.D.D.D.D.D.D.D.D.D.D.D.D.D.D.D.D.D.D.D.D.D.D.D.D.D.D.D.D.D.D.D.D.D.D.D.D.S.D.D.D.D.D.D.D.D.",
"D.D.D.D.D.D.D.D.D.D.D.D.Z.D.D.D.D.D.D.D.D.D.D.D.D.D.D.D.D.D.D.D.D.D.D.D.Z.S.D.D.D.D.D.D.D.D.D.D.D.D.D.D.D.D.D.D.D.D.D.D.D.D.D.D.",
"D.D.D.D.D.D.D.Z.D.D.D.D.D.D.D.D.D.D.D.D.D.D.D.D.D.D.D.D.D.D.D.Z.D.D.D.D.D.D.D.D.D.D.D.D.D.D.D.D.D.D.D.D.D.D.D.D.D.D.D.D.D.D.D.D.",
"D.D.D.D.D.D.D.D.D.D.D.D.D.D.D.D.D.D.D.D.D.D.D.D.D.D.D.D.D.D.D.D.D.D.D.D.D.D.D.D.D.D.D.D.D.D.D.D.D.D.D.D.D.D.D.D.D.Z.D.D.D.D.D.D.",
"D.Z.D.D.D.D.D.D.D.D.D.D.D.D.D.D.D.D.D.D.D.D.D.D.D.D.D.D.D.D.D.D.D.D.D.D.D.D.D.D.D.D.D.D.D.D.D.D.D.D.D.D.D.D.D.D.D.D.D.D.D.D.D.S.",
"D.D.D.D.D.D.D.D.D.D.D.D.D.D.D.D.D.D.D.D.D.D.D.D.D.D.D.D.D.D.D.D.D.D.D.D.D.D.D.D.D.D.D.D.D.D.D.D.D.D.D.D.D.D.D.D.D.D.D.D.D.D.Z.D.",
"D.D.D.D.D.D.D.D.D.D.D.D.D.D.D.D.D.D.D.D.D.D.D.D.D.D.D.D.D.D.D.D.D.D.Z.D.D.D.D.D.D.D.D.D.D.D.D.D.D.D.D.D.D.D.D.D.D.D.D.D.D.D.D.D.",
"D.D.D.D.D.D.D.D.D.D.Z.D.D.D.D.D.D.D.D.D.D.D.D.D.D.D.D.D.D.D.D.D.D.D.D.D.D.D.D.D.D.D.D.D.D.D.D.D.D.D.D.D.Z.D.D.D.D.D.D.D.D.D.D.D.",
"D.D.D.D.D.D.D.D.D.D.D.D.D.D.D.D.D.D.D.D.D.D.D.D.D.D.D.D.D.D.D.D.D.D.D.D.D.D.D.D.D.D.Z.D.D.D.D.D.D.D.D.D.D.D.D.D.D.D.D.D.D.D.D.D.",
"D.D.D.D.D.D.D.D.D.D.D.D.D.D.D.D.D.D.D.D.D.D.D.D.D.D.D.D.D.D.D.D.D.D.D.D.D.D.D.D.D.D.D.D.D.D.D.D.D.D.D.D.D.D.D.D.D.D.D.D.D.D.D.D.",
"D.D.D.D.D.D.D.D.D.D.D.D.D.D.D.D.D.D.D.D.D.D.D.D.D.D.D.D.D.D.D.D.D.D.D.D.D.D.D.D.D.D.D.D.D.D.D.D.D.D.D.D.Z.D.D.D.D.D.D.D.D.D.D.D.",
"D.D.D.D.D.D.D.D.D.D.D.D.D.D.D.D.D.D.D.D.D.D.S.                                  D.D.D.D.D.D.D.D.D.D.D.D.D.D.D.D.D.D.D.D.D.D.D.D.",
"D.D.D.A.Z.Z.Z.Z.Z.Z.Z.A.D.A.D.Z.Z.Z.Z.Z.Z.Z.C.                                  D.A.A.A.Z.Z.Z.Z.D.D.Z.Z.Z.Z.Z.Z.Z.Z.Z.Z.Z.D.D.D.",
"D.D.D.N.b.m.m.m.m.m.m.m.m.N.m.m.N.m.N.m.m.n.M.* = = = = = = = = = * N N N N N M m.m.m.m.m.m.m.m.m.m.m.m.m.m.m.m.n.m.n.n.N.Z.D.D.",
"Z.A.V.l - 1 1 1 : : : : : : 1 1 :           E } } } } } } } } } } F XXXXXXXXXXXX            : 1 1 1 : : 1 1 : : : : 1 - j B.A.D.",
"Z.b.4 ^ ..| | | | |  .[ | | |  .|           E } } ! ! ! ! ! ! ! ! F XXXXXXXXXXXX             .[ | | | | | | | | | | | ..^ 7 h D.",
"V.X.) | ............$.....$.....K.G.G.H.G.H.O.! ! ! ! ! ! ! ! ! ! F XXXXXXXXXXXXF.G.G.G.H.F.....| ........................) X.B.",
"l 0 _  .| ` ( [ .... .[ _ _      XXXXXXXXXXX=.W ! ! ! ! ! ! ! ! ! F XXXXXXXXXXXXXXXXXXXXXXXX      [ | [ _ `  .....| ` ( ] | _ k ",
"O ; 9 _ ' 9 ; / ] ..[ / 6 8     [.XXXXXXXXXX=.W ! ! ! ! ! ! ! ! ! F XXXXXXXXXXXXXXXXXXXXXXXX      / ` P 6 9 { |  .` 9 6 / ` / O ",
"X u , 7 7 , % 2 L { P 2 # < I.P. XXXXX(.Q.(.#.W ! ! ! ! ! ! ! ! ! Y !.!.Q.XXXXXXXXXXXXXXXXXXP.I.P.5 7 3 @ , 9 ' _ 9 , > 3 9 5 X ",
"o r r @ @ q e u , L 2     '.XXXXXXXXXX%.F H ! ! ! ! ! ! ! ! ! ! ! ! H H D XXXXXXXXXXXXXXXXXXXXXXXX    $ w q @ 9 7 > q r i @ u o ",
"% B g t t g B t q + i     '.XXXXXXXXXX*.W ! Y Y Y Y Y Y Y Y Y Y Y Y ! ! F XXXXXXXXXXXXXXXXXXXXXXXX    z B g w < < e g B y e y i ",
"a >.;.C Z >.>.C y w t     '.XXXX!.E.Q.#.W Y W.(.!.!.!.!.Q.!.!.!.Q.(.Y ! Y Q.E.E.XXXXXXXXXXXXXXXXXX    z ,.;.g r r g A >.Z B C d ",
"c 9.3.>.,.6.6.>.Z g C     '.XXXX&.F J ! ! F .XXXXXXXXXXXXXXXXXXXXXXXF ! ~ J J D XXXXXXXXXXXXXXXXXX    z 7.<.A g g A 3.5.,.A :.c ",
"z 5.8.6.q.7.6.7.<.V 1.p   ].XXXX=.Y ! U J D |.XXXXXXXXXXXXXXXXXXXXXXF J J ~ ! D XXXXXXXXXXXXXXXXXX    z 7.6.7.Z A 5.8.0.q.8.7.v ",
"d 8.8.8.s.h.8.z.8.7.o.I K U.R.R.@.! J )._.).XXXXXXXXXXXXXXXXXXXXXXXX)._._.H ! Y R.T.Y.Y.T.Y.R.Y.Y.K I o.y.z.8.6.7.q.q.9.e.h.u.v ",
"d 7.i.i.h.f.8.8.    T } ! Y Y Y ! ! F  XXXXXXXXXXXXXXXXXXXXXXXXXXXXXXXXXXXF ! ~ Y Y Y U Y Y Y Y Y ! } Q     p.f.q.6.6.5.e.g.d.d ",
"d 7.f.f.u.y.6.6.    T ! ! ! ! ! ! ! F .XXXXXXXXXXXXXXXXXXXXXXXXXXXXXXXXXXXF ! ! ! ! ~ G G G G G H ~ } Q     i.k.7.5.e.e.u.g.f.v ",
"d 7.g.f.t.6.0.q.    T ! ! ! ! ! ! ! F .XXXXXXXXXXXXXXXXXXXXXXXXXXXXXXXXXXXF ! ! ! ! G }.{.{.{.{.{.F ! Q     i.v.8.6.e.d.h.u.e.v ",
"d 5.h.u.8.9.0.0.    T ! ! ! ! ! ! ! F .XXXXXXXXXXXXXXXXXXXXXXXXXXXXXXXXXXXF ! ! ! ! F XXXXXXXXXXXXD } Q     a.h.7.5.p.h.u.e.q.v ",
"d 5.8.6.8.8.9.0.  . S F F ! ! ! ! ! F .XXXXXXXXXXXXXXXXXXXXXXXXXXXXXXXXXXXF ! ~ F F D XXXXXXXXXXXXD F G     7.e.q.5.8.8.6.8.5.v ",
"d 5.6.6.0.0.q.0.    ^..X.X-.W ! ! ! F .XXXXXXXXXXXXXXXXXXXXXXXXXXXXXXXXXXXF ! F  X}.}.XXXXXXXXXXXX}.|.].    0.6.7.0.6.6.q.q.9.v ",
"d 9.w.w.8.6.t.w.    /.XXXX-.W ! ! ! F .XXXXXXXXXXXXXXXXXXXXXXXXXXXXXXXXXXXF ! D XXXXXXXXXXXXXXXXXXXXXX X    8.6.u.u.e.q.5.w.9.v ",
"d 9.w.w.8.e.a.8.    /.XXXX&.F F ! } F .XXXXXXXXXXXXXXXXXXXXXXXXXXXXXXXXXXXF ! F XXXXXXXXXXXXXXXXXXXXXX X    9.q.v.g.e.q.6.8.5.v ",
"d 5.8.9.9.8.a.w.    /.XXXXXXXXXX=.W ~ F F D |.XXXXXXXXXXXXXXXXXXXXXXD F F ~ ! F XXXXXXXXXXXXXXXXXXXXXX X    q.8.v.v.y.0.9.8.9.v ",
"d 5.t.w.8.w.w.0.    /.XXXXXXXXXX=.W ! ! ! F |.XXXXXXXXXXXXXXXXXXXXXXF ! ! ! ! D XXXXXXXXXXXXXXXXXXXXXX X    6.q.g.g.t.0.0.8.5.v ",
"d 5.a.r.w.w.0.w.    /.XXXXXXXXXX=.W ! ! ! F |.XXXXXXXXXXXXXXXXXXXXXXF ! ! ! ! F XXXXXXXXXXXXXXXXXXXXXX X    0.6.y.r.t.7.0.w.0.v ",
"d 5.f.d.8.0.0.w.    /.XXXXXXXXXX=.W ! ! ! ~ F F F F F F F F F F F F ~ ! ! ! ! ~ F D D XXXXXXXXXXXXD F D .   8.6.6.q.t.e.e.w.9.v ",
"d 7.g.d.8.8.8.8.    /.XXXXXXXXXX=.W ! ! ! ! } ! ! ! ! } } ! ! ! ! } ! ! ! ! ! ! ! ! F XXXXXXXXXXXXF ! Q     e.6.8.5.r.f.d.8.9.v ",
"d q.h.s.8.0.w.f.    /.XXXX.X.X.X*.W ! Q E E E E E E E E E E E E E E E E Q E E E E E D .X.X.X|. X{.F ! Q     k.e.6.q.e.h.d.q.9.v ",
"d 7.8.8.6.0.w.f.    /.XXXX&.F F ! ! } &                                             . F F F F F F ~ } Q     k.y.6.0.e.f.u.w.5.v ",
"c 3.w.9.6.8.0.e.    /.XXXX-.W } ! ! } &                                               } } } } } ! } } Q     y.w.0.6.8.e.y.i.y.c ",
"s 3.0.8.e.r.7.q.5.2.~.`.`.+.I T T T I m M M M M M +     M M M M M N       M M M M M N I T T T T T T T R q.1.q.5.0.6.8.9.y.f.u.d ",
"c 2.t.t.d.h.t.0.e.t.t.                 XXXXXXXXXXXn      XXXXXXXXXXX      XXXXXXXXXXXX                z p.z.8.e.q.6.0.5.8.g.g.v ",
"d 7.f.d.d.d.8.8.f.a.9..                XXXXXXXXXXXn      XXXXXXXXXXX      XXXXXXXXXXXX                z a.6.u.g.6.0.8.8.y.k.u.d ",
"d 5.f.h.e.8.q.7.k.f.0.4.x.,.    G.H.G. XXXXXXXXXXXn      XXXXXXXXXXX      XXXXXXXXXXXXG.H.H.      x.r.z.w.w.a.v.7.6.y.u.d.f.f.v ",
"d 5.g.d.8.5.q.8.j.h.8.8.a.h.    }.XXXXXXXXXXXXXXXXn      XXXXXXXXXXX      XXXXXXXXXXXXXXXXXX      k.e.5.9.6.u.k.8.5.y.f.d.u.y.c ",
"d 5.d.y.8.6.5.8.a.p.0.8.r.r.    [.XXXXXXXXXXXXXXXXx      XXXXXXXXXXX      XXXXXXXXXXXXXXXXXX      d.8.5.6.6.y.f.6.5.8.a.y.6.5.c ",
"d 5.0.7.6.6.6.w.7.0.7.6.7.3.    [.XXXXXXXXXXXXXXXX~.P.P.XXXXXXXXXXXXP.P.P.XXXXXXXXXXXXXXXXXX      q.q.6.8.8.0.6.q.8.6.6.6.8.9.v ",
"d 7.8.9.6.q.8.q.q.7.8.7.6.9.    [.XXXXXXXXXXXXXXXXXXXXXXXXXXXXXXXXXXXXXXXXXXXXXXXXXXXXXXXXXX      0.8.6.6.w.0.0.6.8.6.6.6.8.9.v ",
"d 5.w.w.q.e.p.8.0.p.h.u.8.2.     XXXXXXXXXXXXXXXXXXXXXXXXXXXXXXXXXXXXXXXXXXXXXXXXXXXXXXXXXXX      0.0.t.y.8.5.8.h.f.e.6.q.w.9.v ",
"d 9.w.0.0.t.s.w.0.u.v.g.e.5.5.c.P.P.L. XXXXXXXXXXXXXXXXXXXXXXXXXXXXXXXXXXXXXXXXXXXXXXXL.P.L.c.z.0.0.9.t.y.e.q.8.v.v.r.6.q.q.5.v ",
"d 3.8.0.0.8.e.6.0.u.v.f.e.9.0.0.b      XXXXXXXXXXXXXXXXXXXXXXXXXXXXXXXXXXXXXXXXXXXXXXX      w.0.0.q.6.8.p.8.5.8.v.v.r.0.q.w.q.v ",
"c 9.e.8.w.0.6.8.0.r.j.s.w.0.8.6.z     .XXXXXXXXXXXXXXXXXXXXXXXXXXXXXXXXXXXXXXXXXXXXXXX      8.w.8.t.6.6.w.w.5.8.f.f.e.0.q.6.5.v ",
"s 3.h.s.t.0.q.q.0.7.8.q.8.8.8.0.6.u.h.J.G.G.G.G.G.G.G.G.G.G.G.G.G.G.G.G.G.G.G.G.G.G.F.c.6.z.0.8.u.g.e.5.6.8.0.6.8.8.6.8.0.w.5.v ",
"c 2.h.d.8.0.0.q.7.q.0.q.a.s.8.0.6.u.f.b                                               s.h.8.9.8.r.g.e.5.w.6.q.8.0.8.t.s.a.w.3.v ",
"f 0.h.h.8.0.6.p.a.w.0.8.u.f.8.8.6.u.f.z                                               d.f.e.q.6.y.g.e.5.0.t.a.8.6.5.y.f.u.8.9.v ",
"d 9.i.a.8.0.8.f.g.8.9.w.h.g.8.9.6.e.d.e.9.0.y.k.e.8.5.y.f.i.6.6.8.a.a.8.9.w.f.g.6.9.8.f.g.8.6.6.y.h.8.5.0.r.k.y.0.8.e.h.d.8.9.v ",
"d 5.w.w.8.9.6.u.f.8.0.8.u.d.e.e.6.8.8.6.9.8.8.j.e.8.6.y.i.a.8.e.8.6.8.8.w.w.a.h.0.9.w.u.u.e.8.8.6.t.0.q.q.e.f.t.8.9.e.s.u.e.7.v ",
"f 5.w.8.8.8.0.e.8.w.8.0.8.e.e.f.e.6.0.8.8.w.w.e.8.8.6.8.8.y.d.d.6.5.6.8.w.8.8.8.8.8.8.8.e.y.h.8.q.5.7.t.8.8.e.8.9.0.8.w.e.d.r.v ",
"f 9.w.0.u.u.q.7.9.0.8.8.5.9.y.v.e.5.5.e.a.y.0.9.0.0.8.0.5.8.g.d.8.5.6.u.a.8.9.9.6.6.6.6.7.u.g.e.q.5.e.a.r.8.9.6.0.6.5.5.e.g.d.c ",
"f 3.8.w.h.f.7.6.9.0.8.w.9.8.p.k.e.8.5.y.f.a.8.w.9.0.8.9.5.8.g.d.6.q.8.f.f.e.0.6.8.6.6.6.7.r.g.e.6.q.y.f.u.0.9.6.6.0.0.5.t.g.d.v ",
"f 7.t.e.d.f.t.0.t.t.6.6.6.q.e.v.8.8.e.u.f.a.8.8.e.0.0.9.5.8.f.d.6.e.e.h.f.8.6.y.8.8.7.7.6.u.g.e.w.e.y.f.u.8.t.e.6.6.8.5.e.f.d.v ",
"f 7.h.j.j.d.7.w.j.d.6.5.7.8.e.v.e.u.f.h.s.p.w.u.l.8.0.8.7.e.f.f.8.f.h.f.d.8.q.l.u.8.7.7.7.r.g.8.a.g.d.f.p.7.u.k.6.0.7.7.e.g.f.d "
};
