/* XPM */
static char *result[] = {
/* columns rows colors chars-per-pixel */
"64 64 234 2 ",
"   c #000000",
".  c #060E02",
"X  c #1E1D0F",
"o  c #261506",
"O  c #093108",
"+  c #312D10",
"@  c #103232",
"#  c #262626",
"$  c #2A3B25",
"%  c #353926",
"&  c #3C3C25",
"*  c #56160B",
"=  c #6F1C0F",
"-  c #742617",
";  c #433D24",
":  c #1B4603",
">  c #065014",
",  c #224C00",
"<  c #2E5311",
"1  c #02771C",
"2  c #157D1F",
"3  c #2D6504",
"4  c #2E6F0C",
"5  c #3B7713",
"6  c #1C5A33",
"7  c #204F2D",
"8  c #3B4226",
"9  c #384728",
"0  c #20502D",
"q  c #2D5E2D",
"w  c #30552A",
"e  c #315C2E",
"r  c #265834",
"t  c #116E23",
"y  c #28642E",
"u  c #2E6D2E",
"i  c #266B33",
"p  c #286832",
"a  c #277734",
"s  c #2C7332",
"d  c #337734",
"f  c #4D451E",
"g  c #5B4D1D",
"h  c #5E531A",
"j  c #6B4E12",
"k  c #635415",
"l  c #62541A",
"z  c #66571D",
"x  c #6C5D1D",
"c  c #71631B",
"v  c #484423",
"b  c #4A4522",
"n  c #594B26",
"m  c #605520",
"M  c #6A563D",
"N  c #686220",
"B  c #756322",
"V  c #7C6A24",
"C  c #09234A",
"Z  c #0C2955",
"A  c #133872",
"S  c #673459",
"D  c #543765",
"F  c #356D52",
"G  c #1F5067",
"H  c #275469",
"J  c #4F4E4F",
"K  c #645D5F",
"L  c #7A6142",
"P  c #6F4F76",
"I  c #6A6A6A",
"U  c #777777",
"Y  c #8A2619",
"T  c #A82A17",
"R  c #A42C19",
"E  c #B5301C",
"W  c #9F3727",
"Q  c #B23825",
"!  c #CA3924",
"~  c #EB3F25",
"^  c #83550B",
"/  c #A7550E",
"(  c #97650D",
")  c #A76608",
"_  c #876B27",
"`  c #816D26",
"'  c #86722B",
"]  c #8B742D",
"[  c #957834",
"{  c #9C7C3A",
"}  c #A57830",
"|  c #E1581D",
" . c #C97B03",
".. c #F2781D",
"X. c #E94127",
"o. c #E0452E",
"O. c #FE4529",
"+. c #FD482A",
"@. c #FB502E",
"#. c #FE6228",
"$. c #963648",
"%. c #B35159",
"&. c #AF5F73",
"*. c #946B69",
"=. c #D97169",
"-. c #3E8D02",
";. c #259419",
":. c #3DB41A",
">. c #059927",
",. c #049928",
"<. c #109029",
"1. c #2F932D",
"2. c #398933",
"3. c #3E9134",
"4. c #06A029",
"5. c #34AE25",
"6. c #469C03",
"7. c #4D9E17",
"8. c #4CAA03",
"9. c #54B706",
"0. c #4AA818",
"q. c #4DB618",
"w. c #449932",
"e. c #4BB427",
"r. c #4AA433",
"t. c #4DAA35",
"y. c #4CA739",
"u. c #53B537",
"i. c #55B936",
"p. c #58C202",
"a. c #59C407",
"s. c #5BCA05",
"d. c #5DD303",
"f. c #5CD10D",
"g. c #58CB17",
"h. c #62D606",
"j. c #62D806",
"k. c #63D80B",
"l. c #64CE19",
"z. c #64DA12",
"x. c #6DE01D",
"c. c #4FC622",
"v. c #59C137",
"b. c #5BC539",
"n. c #5DC93C",
"m. c #67D02A",
"M. c #3B8847",
"N. c #659E56",
"B. c #65B749",
"V. c #67CA4D",
"C. c #75DA47",
"Z. c #9E813D",
"A. c #A1833E",
"S. c #EA9307",
"D. c #FF9C08",
"F. c #FC8717",
"G. c #FE841C",
"H. c #E39622",
"J. c #F09625",
"K. c #A58441",
"L. c #A98543",
"P. c #AD8946",
"I. c #B48B4A",
"U. c #B9914D",
"Y. c #BE9352",
"T. c #C49F4F",
"R. c #C49656",
"E. c #C69A55",
"W. c #CA9B56",
"Q. c #C69759",
"!. c #C99758",
"~. c #C79859",
"^. c #C99959",
"/. c #CEA356",
"(. c #CDA058",
"). c #D1A556",
"_. c #D4AC55",
"`. c #D4AB58",
"'. c #D9B356",
"]. c #DAB357",
"[. c #DEBA55",
"{. c #E1BE55",
"}. c #E0BC5A",
"|. c #F88C6C",
" X c #81DC5F",
".X c #92DB7C",
"XX c #E4C157",
"oX c #143D8C",
"OX c #164192",
"+X c #194899",
"@X c #1F529C",
"#X c #255293",
"$X c #255CA4",
"%X c #245EB5",
"&X c #245EB8",
"*X c #2B67A0",
"=X c #2760B7",
"-X c #2C61B6",
";X c #2560B8",
":X c #2A62B8",
">X c #3665B7",
",X c #566794",
"<X c #656997",
"1X c #4B73AF",
"2X c #896D9B",
"3X c #7B8192",
"4X c #6782AF",
"5X c #888888",
"6X c #9C9C9C",
"7X c #96A8AE",
"8X c #A7A7A7",
"9X c #A9A9A9",
"0X c #AFB7AF",
"qX c #C9B0A0",
"wX c #9BCB94",
"eX c #AAE795",
"rX c #A3CAA4",
"tX c #AFE3A2",
"yX c #B5E7A9",
"uX c #BFBFC0",
"iX c gray77",
"pX c #CACBCA",
"aX c #CADBCA",
"sX c #D6D6D6",
"dX c #E7D2C2",
"fX c #D1ECC9",
"gX c #DBE6DA",
"hX c #DDF3D7",
"jX c #EAEFD9",
"kX c #E5E5E5",
"lX c #EAEAEA",
"zX c #F1F5E8",
"xX c #F6F8F4",
"cX c #FFFFFF",
/* pixels */
";X;X;X;X;X;X;X;X;X;X;X;X;X;X;X;X;X;X;X;X;X;X;X;X;X;X;X;X;X;X;X;X;X;X;X;X;X;X;X;X;X;X;X;X;X;X;X;X;X;X;X;X;X;X;X;X;X;X;X;X;X;X;X;X",
";X;X;X;X;X;X;X;X;X;X;X;X;X;X;X;X;X;X;X;X;X;X;X;X;X;X;X;X;X;X;X;X;X;X;X;X;X;X;X;X;X;X;X;X;X;X;X;X;X;X;X;X;X;X;X;X;X;X;X;X;X;X;X;X",
";X;X;X;X;X;X;X%X;X;X;X;X;X;X;X;X;X;X;X;X;X;X;X;X;X;X;X;X;X;X;X;X;X;X;X;X;X;X;X;X;X;X;X;X;X;X;X;X;X;X;X;X;X;X;X;X;X;X;X;X;X;X;X;X",
";X;X;X;X;X;X;X;X;X;X;X;X;X;X;X;X;X;X;X;X;X;X;X;X;X;X;X;X;X;X;X;X;X;X;X;X;X;X;X;X;X;X;X;X;X;X;X;X;X;X;X;X;X;X;X;X;X;X;X;X;X;X;X;X",
";X;X;X;X;X;X;X;X;X;X;X;X;X;X;X;X;X;X;X;X;X;X%X;X;X;X;X;X;X;X;X;X;X;X;X;X;X;X;X;X;X;X;X;X;X;X;X;X;X;X;X;X;X;X;X;X;X;X;X;X;X;X;X;X",
";X;X;X;X;X;X;X;X;X;X;X;X;X;X;X;X;X;X;X;X;X;X;X;X;X;X;X;X;X%X;X;X;X;X;X;X;X;X;X;X;X;X;X;X;X;X;X;X;X;X;X;X;X;X;X;X;X;X;X;X;X;X;X;X",
";X;X;X;X;X;X;X;X;X;X;X;X;X;X;X;X;X;X;X;X;X;X;X;X;X;X;X;X;X;X;X;X;X;X;X;X-X-X;X;X:X;X;X;X;X;X;X;X;X;X;X;X;X;X;X;X;X;X;X;X;X;X;X;X",
";X;X;X;X;X;X;X;X;X;X;X;X;X;X;X;X;X;X;X;X;X;X;X;X;X;X;X;X;X;X;X;X;X;X=X=X*X4 4X>XM.F -X;X;X;X;X;X;X;X;X;X;X;X;X;X;X;X;X;X;X;X;X;X",
";X%X;X;X;X;X;X;X;X;X;X;X;X;X;X;X;X;X;X;X;X;X;X;X;X;X;X;X;X;X;X:X;X;X;X  h.j.8.  j.k.q.P :X;X;X;X;X;X;X;X;X;X;X;X;X;X;X;X;X;X;X;X",
";X;X;X;X;X;X;X;X;X;X%X;X;X;X;X;X;X;X;X;X;X;X;X;X;X;X;X;X;X;X;X;X;X;X-Xa.hXhXgXsXhXhXyXi.>X;X;X;X;X;X;X;X;X;X;X;X;X;X;X;X;X;X;X;X",
";X;X;X;X;X;X;X;X;X;X;X;X;X;X;X;X;X;X;X;X;X;X;X;X;X;X;X;X;X;X&X;X:X-XN..XcXcXpX  iX# hX.X  ;X;X;X;X;X;X;X;X;X;X;X;X;X;X;X;X;X;X;X",
";X;X;X;X;X;X;X;X;X;X;X;X;X;X;X;X;X;X;X;X;X;X;X;X;X;X;X;X;X;X        9XcXcXcXpX  pX# cXxX  ;X;X=X;X;X;X;X;X;X;X;X;X;X;X;X;X;X;X;X",
";X;X;X;X;X;X;X;X;X;X;X;X;X;X;X;X;X;X;X;X;X;X;X;X;X;X;X;X;X&.| S.S.( 9XcXcXcXsXI sXU cXxX  &X=X=X;X;X;X;X;X;X;X;X;X;X;X;X;X;X;X;X",
";X;X;X;X;X;X;X;X;X;X;X;X;X;X;X;X;X;X;X;X;X;X;X;X;X;X;X;X# ! @.F. .^ 9XcXcXcXcXcXcXcXcXxX  :X-X>X;X;X;X;X;X;X;X;X;X;X;X;X;X;X;X;X",
";X;X;X;X;X;X;X;X;X;X;X;X;X;X;X;X;X;X;X;X;X;X;X;X;X;X;X;X# ! +.+.    9XcXcXcXcXcXcXcXcXxX  .   <X;X;X;X;X;X;X;X;X;X;X;X;X;X;X;X;X",
";X;X;X;X;X;X;X;X;X;X;X;X;X;X;X;X;X;X;X;X;X;X;X;X;X;X;X;X#       x.z.j.d.cXcXcXxXd.hXpX, j.j.j.s.  :X;X;X;X;X;X;X;X;X;X;X&X;X;X;X",
";X;X;X;X;X;X;X;X;X;X;X;X;X;X;X;X;X%X;X;X;X;X;X;X&X:X&X1XH.^ 3 9.z.k.j.j.yXyXyXyXj.eXwX9.j.j.j.d.9.>X%X%X;X;X;X;X;X;X;X;X;X;X;X;X",
";X;X;X;X;X;X;X;X;X;X;X;X;X;X;X;X;X;X;X;X;X;X;X;X&X&X&XD J./ 5 d.j.k.m. X XC.C.j.j.j.j.j.j.d.j.d.d.F %X%X;X;X;X;X;X;X;X;X;X;X;X;X",
";X;X;X;X;X;X;X;X;X;X;X;X;X=X;X;X;X;X;X;X;X;X;X;X&X:X,X@.@.R 5 d.j.j.tXcXcXcXfXj.j.j.j.j.j.3 -.p.    -X%X;X;X;X;X;X=X;X;X;X;X;X;X",
";X;X;X;X;X;X;X;X;X;X;X;X;X;X;X;X;X;X;X;X;X;X;X;X&X:XD +.O.R y q.k.yXhXcXcXcXfXd.d.j.j.j.j.9.a.d.8.9.1X-X;X;X;X;X;X%X;X;X;X;X;X;X",
";X;X;X;X;X;X;X;X;X;X;X=X;X;X;X;X;X;X;X;X;X;X;X;X;X;XP X.X.W > ,.z.fXcXcXcXcXfXf.j.j.j.j.j.j.j.j.j.j.7.=X=X=X;X;X;X;X;X;X;X;X;X;X",
";X;X;X;X;X;X;X;X;X;X;X;X;X;X;X;X;X;X;X;X;X;X;X;X;X;X-X      > ,.z.fXcXcXcXcXaX,.j.j.j.j.j.j.j.j.j.j.7.-X;X;X;X;X;X;X;X;X;X;X;X;X",
";X;X;X;X;X;X;X;X;X;X;X;X;X;X;X;X;X;X;X;X;X;X;X;X;X;X:X;X#   > 4.5.aXcXcXcXcXpX> 5.g.j.j.k.j.j.j.j.j.7.-X;X;X;X;X;X;X;X;X;X;X;X;X",
";X;X;X;X;X;X;X;X;X;X;X;X;X;X;X;X;X;X;X;X;X;X;X;X;X;X;X;X#   O 1 >.rXgXcXcXsX6X  ,.c.f.j.k.d.j.j.j.j.7.>X;X;X;X;X;X;X;X;X;X;X;X;X",
";X;X;X;X;X;X;X;X;X;X;X;X;X;X;X;X;X;X;X;X;X;X;X;X;X;X;X;X#X      <.>.rXcXcX6X    ,.>.e.d.d.j.d.j.h.h.7.-X;X;X;X;X;X;X;X;X;X;X;X;X",
";X;X;X%X;X;X;X;X;X;X;X;X;X;X;X;X;X;X=X;X;X;X;X;X;X;X;X;X;X>X$.O.  1 :.d.cXcXpX  >.<.,.,.,.g.d.f.h.F >X;X;X;X;X;X;X;X;X;X;X;X;X;X",
";X;X;X;X;X;X;X;X;X;X;X;X;X;X;X;X;X;X;X;X;X;X;X;X;X;X;X;X;X-XD E   1 e.z.cXcXlX0X1 <.>.>.4.:.e.8.6.4X;X;X;X;X;X;X;X;X;X;X;X;X;X;X",
";X;X;X;X;X;X;X;X;X;X;X;X;X;X;X;X;X;X;X;X;X;X;X;X;X;X;X;X;X;X    o 2 5.m.cXcXcXcX  <.4.4.4.1.1.. Z :X;X;X;X;X;X;X;X;X;X;X;X;X;X;X",
";X;X;X;X;X;X;X;X;X;X;X;X;X;X;X;X;X;X%X;X;X;X;X;X;X;XZ           @.W 8XcXcXcXpX            kXfXp.  :X;X;X;X;X;X;X;X;X;X;X;X%X;X;X",
";X;X;X;X;X;X;X;X;X;X;X;X;X%X;X;X;X;X;X;X;X;X;X;X=X2X=.pX#       R N 0XcXcXcXpX  iXJ 3 0.  6X.Xp.  :X;X;X;X;X;X;X;X;X;X;X;X;X;X;X",
";X;X;X;X;X;X;X;X;X;X;X;X;X;X;X;X;X;X;X;X;X;X;X;X*.! =.lX#         1 rXcXcXcXpX  kXI 6.l.  3 8.9.  :X;X;X;X;X;X;X;X;X;X;X;X;X;X;X",
";X;X;X;X;X;X;X;X;X;X;X;X;X;X;X;X;X;X;X;X;X;X    X.O.@.            1 rXcXcXcXpX      6.l.  q.j.p.  :X;X;X;X;X;X;X;X;X;X;X;X;X;X;X",
";X;X;X;X;X;X;X;X;X;X;X;X;X;X;X;X&X%X%X,XU J U lX*.= c s.s.s.s.s.s.yXxXcXcXcXiX    pXuX5 l.k.h.p.  :X:X;X;X;X;X;X;X;X;X;X;X;X;X;X",
";X;X;X;X;X;X;X;X;X;X;X;X;X;X;X;X:X%X%XZ 6.6.N.pXK 5 8.j.j.j.l.8.yXzXcXcXcXcXpX    0X6X< h.h.f.0.  -X;X;X;X;X;X;X;X;X;X;X;X;X;X;X",
";X;X;X;X;X;X;X;X;X;X;X;X;X;X;X;X&X:X&XC 9.d.a.    q.j.j.j.j.q.  cXcXcXcXcXcXpX        < h.h.c.>.A ;X;X;X;X;X;X;X;X;X;X;X;X;X;X;X",
";X;X;X;X;X;X;X;X;X;X;X;X;X;X;X;X:X&X%X  kXrX<.  a.k.j.j.zXcXhXh.J pXcXcXcXcXpX  :X&X  . : , O :X%X;X;X;X;X;X;X;X;X;X;X;X;X;X;X%X",
";X;X;X;X;X;X;X;X;X;X;X;X;X;X;X;X;X;X-X  kXsX9X  l.j.j.j.xXcXhX9.  pXcXcXcXcXpX  ;X;X;X;X:X:X:X:X%X%X;X;X;X;X;X;X;X;X;X;X;X;X;X;X",
";X;X;X;X;X;X;X;X;X;X;X;X;X;X;X;X;X;X;X  kXcXlX  s.j.j.j.xXcXkX    pXcXcXcXcXpX  ;X;X;X;X;X;X;X;X;X;X;X;X;X;X;X;X;X;X;X;X;X;X;X;X",
";X;X;X;X;X;X;X;X;X;X;X;X;X;X;X;X;X;X;X;XN.pXkX  <.q.j.j.j.j.j.f.  pXcXcXcX6X  Z ;X;X;X;X;X;X;X;X;X;X;X;X;X;X;X;X;X;X;X;X;X;X;X;X",
";X;X;X;X;X;X;X;X;X;X;X;X;X;X;X;X;X;X;X:X,XiXxXaXI 5.q.j.j.j.l.-.pXlXcXcXcX6X3X;X;X;X;X;X;X;X;X;X;X;X;X;X;X;X;X;X;X;X;X;X;X;X;X;X",
";X;X;X;X;X;X;X;X;X;X;X;X;X;X;X;X;X;X;X;X;X7XkXkXI t ;.a.p.p.B.*.cXcXcXcXlX8X&X&X:X;X;X&X;X;X;X;X;X;X;X;X;X;X;X;X;X;X;X;X;X;X;X;X",
";X;X;X;X;X;X;X;X;X;X;X;X;X;X;X;X;X;X;X;X;X;X                5XcXcXcXcXcX  >X&X&X&X:X;X;X;X;X;X;X;X;X;X;X;X;X;X;X;X;X;X;X;X;X;X;X",
";X;X;X;X;X;X;X;X;X;X;X;X;X;X;X;X;X;X;X;X;X&X= o.X...S.S.o 0XxXcXU U U U 1X&X%X&X;X;X;X;X;X;X;X;X;X;X;X;X;X;X;X;X;X;X;X;X;X;X;X;X",
";X;X;X;X;X;X;X;X;X;X;X;X;X;X;X;X;X&X;X;X;X:X= O.O.G.D.D.X 9XsXsX( j   Z -X&X-X&X;X;X;X;X;X;X;X;X;X;X;X;X;X;X;X;X;X;X;X;X;X;X;X;X",
";X;X;X;X;X;X;X;X;X;X;X;X;X;X;X;X;X;X;X;X;X>XS +.O...D.D.o       D.}       Z 1X&X;X;X;X;X;X;X;X;X;X;X;X;X;X;X;X;X;X;X;X;X;X;X;X;X",
";X;X;X;X;X;X;X;X;X;X;X;X;X;X;X;X;X;X;X&X;X%.X.+.O.#.|.zXJ.( - ~ #...S.S.S.dXpXI ;X;X;X;X;X;X;X;X;X;X;X;X;X;X;X;X;X;X;X;X;X;X;X;X",
";X;X;X;X;X;X;X;X;X;X;X;X;X;X;X;X;X;X:X;X&XQ +.O.O.#.|.jXJ.) Y O.+...F.F.F.dXqX  ;X;X;X;X;X;X;X;X;X;X;X;X;X;X;X;X;X;X;X;X;X;X;X;X",
";X;X;X&X;X%X%X%X&X&X;X&X&X;X;X&X;X;X&X&X&X%.O.O.O...D.D.D.) Y O.O.O.O.O.O.F. .  &X&X;X&X;X&X;X&X;X%X&X;X%X%X;X%X%X;X%X%X%X%X;X;X",
";X;X;X+XoXOXOXOXOXOXOXOXOXOXOXOX+X+XoX+X+X$.O.O.O.G.D.D.D.) Y O.O.O.O.O.O.F. .  OXOXOXOXOXOXOXOXOXOXOXOXOXOXOXOXoXOXOXoX+X%X;X;X",
";X&X$XG : 7 7 0 7 7 7 7 7 7 0 0 0 0 0 0 r - T T T / ) ) ) j * T T T T T T / ^   0 7 7 0 7 7 7 7 7 7 7 7 0 0 7 7 7 7 0 , G #X;X;X",
"-XOXp e.n.v.v.n.v.v.v.v.v.v.b.v.v.v.v.i.b.b.v.v.b.b.i.i.v.v.v.i.v.v.v.v.v.v.B.i.v.v.v.v.v.v.v.v.v.v.v.v.v.b.v.v.v.v.v.n.e.u A ;X",
"$XF e.b.n.n.n.n.n.n.n.n.n.n.n.n.n.n.n.V.n.V.n.n.n.n.n.V.n.n.n.V.n.n.n.n.n.b.n.n.n.n.n.n.n.n.n.n.n.n.n.n.n.n.n.n.n.n.n.n.V.c.M.@X",
"H 2.r.v.v.t.w.i.n.n.n.i.r.r.v.b.r.w.i.n.u.r.r.n.n.n.n.t.r.u.n.i.w.r.b.v.t.r.i.n.n.n.i.r.r.v.n.r.w.i.b.u.r.r.n.n.n.n.t.w.u.i.r.G ",
"@ 0 s r.y.s 6 w.u.n.u.w.y i r.t.a 6 w.y.3.y u t.v.v.t.d y 2.y.w.6 i t.r.s 6 w.t.n.u.w.6 s y.y.i 6 w.t.3.y s y.v.v.t.s y w.r.3.@ ",
"o & 9 u u 9 ; q 2.y.3.q & 8 i a 8 ; q i q 8 9 a r.y.d 9 & e i y ; 8 p p 9 & q 2.u.2.q & 9 u i 9 & q i e 8 9 a t.r.s 9 8 e i y X ",
"+ l l & % g k v 9 d e v l g % % g k b % b l g % u u 9 g h b % v k m & % g k & 9 2.w v k l & % l k v % f h g % s u 8 g k f % f ; ",
"; ` ` z z ` _ x g $ f B ` V l k ` ` x z B _ V h % 9 h V V B k x ` ` l z ` ' x g $ f x ` V z k V ` c k B ` V l % 9 k V ` x k x b ",
"n K.Z.] [ L.A.] N h x ] K.A.V V A.A.] ] { P.{ V z h V Z.A.[ V ] L.A.' [ L.K.' B g c ] L.A.V V Z.K.] ] Z.P.{ V l h V A.A.[ V ' M ",
"M Q.R.A.P.R.R.P.[ V ' A.R.R.{ [ R.Q.L.K.R.^.Y.{ V V { U.Y.P.[ P.!.R.{ I.~.Q.L.] B ] L.R.R.{ { Y.E.L.A.R.~.U.[ _ ` [ Y.R.I.{ K.L ",
"M Q.^.E.W.W.!.R.U.' P.Q.E.!.E.T.E.E.Q.E.E.R.!.~.[ { Y.^.^.W.E.Y.Q.Q.^.E.E.~.~.U._ U.R.^.E.E.E.E.^.~.E.W.^.^.R.[ [ E.^.~.E./.W.M ",
"M Q.^.W._.}.^.R.E.E.Q.^.Q.!.).}./.W.R._.].`.E.W.E.Y.~.~.Q.^.].'.E.E.W.'.'./.R.E.Q.R.^.E.!._.{.W.E.E.).'._.!.^.R.R.^.^.Q.(.]._.L ",
"M Q._.'.].].W.!.'.).^.~.E.^.).XX/.)._.'.'._.^./.[.(.~.~.~./.[.'.^.`._.'.'.W.E.].).^.^.R.^._.{.W./.'._.'._.^.).}.^.~.~.Q./.{._.L ",
"M R.].]._.).^.R.{.'.^.^./.).).XX/.).'._./.(.^._.XXE.Q.^./.).'.'.E.[.'.).).E.W.XX_.^.R./._._.[./._.[._./.(.W._.{.E.Q.^.).`.[._.M ",
"M R.{.].(.^.!.E.{.'.^.^.'.[./.'.W._.[._.R.!.^._.XX/.Q.).'.'._._.~.{.'./.!.E.W.XX'.^.^.'.[._._./.).{.).E.R.R.'.XXW.R.).].].`.(.] "
};
