/* XPM */
static char *c80955b9d99040aa90f8c09de2dbbe0a[] = {
/* columns rows colors chars-per-pixel */
"64 64 229 2 ",
"   c #000005",
".  c #010209",
"X  c #05080C",
"o  c #0C0A09",
"O  c #150E09",
"+  c #051709",
"@  c #121107",
"#  c #191507",
"$  c #19120B",
"%  c #080616",
"&  c #161416",
"*  c #271B18",
"=  c #15290B",
"-  c #232504",
";  c #25260A",
":  c #36350A",
">  c #2A2418",
",  c #342616",
"<  c #352A16",
"1  c #362918",
"2  c #342A19",
"3  c #3B3318",
"4  c #13362C",
"5  c #2D3424",
"6  c #343926",
"7  c #3C3D25",
"8  c #413E0E",
"9  c #433D24",
"0  c #204F00",
"q  c #1D4727",
"w  c #1C5B33",
"e  c #2E4826",
"r  c #204F2D",
"t  c #3B4226",
"y  c #384628",
"u  c #20502D",
"i  c #295D2A",
"p  c #315D2E",
"a  c #265834",
"s  c #28642D",
"d  c #2D6C2E",
"f  c #276732",
"g  c #266B32",
"h  c #277035",
"j  c #2C7332",
"k  c #347734",
"l  c #44430B",
"z  c #494709",
"x  c #4C4A0A",
"c  c #514E0B",
"v  c #5C5806",
"b  c #5D5A0B",
"n  c #494C19",
"m  c #504D11",
"M  c #5B4D1D",
"N  c #5C5319",
"B  c #615E07",
"V  c #635416",
"C  c #62541A",
"Z  c #68561D",
"A  c #6C5E1D",
"S  c #705F1E",
"D  c #65620B",
"F  c #6A660A",
"G  c #726E0C",
"H  c #77740D",
"J  c #7B780C",
"K  c #6C631C",
"L  c #7C7718",
"P  c #474424",
"I  c #4B4521",
"U  c #5B4527",
"Y  c #4E5523",
"T  c #5A4B37",
"R  c #624D2B",
"E  c #645323",
"W  c #655537",
"Q  c #695333",
"!  c #6B573D",
"~  c #69593D",
"^  c #795B3B",
"/  c #6D682E",
"(  c #766523",
")  c #7C6A24",
"_  c #363B4F",
"`  c #153065",
"'  c #153E7D",
"]  c #215258",
"[  c #1A447B",
"{  c #275469",
"}  c #464647",
"|  c #5B5344",
" . c #6D5A48",
".. c #7A5F42",
"X. c #715F4B",
"o. c #7A6041",
"O. c #76664A",
"+. c #7D7143",
"@. c #827E0E",
"#. c #816D26",
"$. c #846D2A",
"%. c #84722B",
"&. c #8B742E",
"*. c #836B34",
"=. c #987936",
"-. c #877645",
";. c #A27A46",
":. c #A57D49",
">. c #A17A51",
",. c #39832A",
"<. c #398933",
"1. c #3E9134",
"2. c #4EAB1F",
"3. c #469A2D",
"4. c #419432",
"5. c #489E33",
"6. c #50AF28",
"7. c #4AA433",
"8. c #4DAA36",
"9. c #4CA839",
"0. c #53B636",
"q. c #55B936",
"w. c #52B339",
"e. c #59C137",
"r. c #5BC539",
"t. c #5DC93B",
"y. c #3B8847",
"u. c #89850D",
"i. c #8A850D",
"p. c #938E0F",
"a. c #8C8714",
"s. c #969213",
"d. c #9F9B11",
"f. c #989518",
"g. c #A19C0E",
"h. c #B1AC07",
"j. c #B4AF0E",
"k. c #AEA912",
"l. c #B6B212",
"z. c #BBB613",
"x. c #BEB914",
"c. c #9B8E2F",
"v. c #9E813D",
"b. c #A9923A",
"n. c #AEA92A",
"m. c #B6AE2F",
"M. c #C4BC33",
"N. c #CEC903",
"B. c #D3CD0E",
"V. c #CBC615",
"C. c #CEC816",
"Z. c #CCC818",
"A. c #D2CC15",
"S. c #D1CB1E",
"D. c #DBD415",
"F. c #DDD714",
"G. c #E2DC16",
"H. c #E3DC19",
"J. c #E7E117",
"K. c #EBE417",
"L. c #ECE518",
"P. c #EDE618",
"I. c #F5EE17",
"U. c #F3EC18",
"Y. c #F7F018",
"T. c #F9F219",
"R. c #FFF81B",
"E. c #CBC425",
"W. c #D0C821",
"Q. c #E5DC20",
"!. c #A58441",
"~. c #AA8644",
"^. c #AD8B46",
"/. c #A5844B",
"(. c #AA8449",
"). c #AD8A49",
"_. c #B1894A",
"`. c #B38C4C",
"'. c #A3964C",
"]. c #B59648",
"[. c #A88955",
"{. c #B88D54",
"}. c #BC9353",
"|. c #BD935B",
" X c #BB9B58",
".X c #B9966D",
"XX c #C49F4F",
"oX c #C59656",
"OX c #C89757",
"+X c #C69955",
"@X c #C99B56",
"#X c #C69658",
"$X c #C89759",
"%X c #C69959",
"&X c #C99959",
"*X c #C6B249",
"=X c #CEA256",
"-X c #CCA259",
";X c #CCA95A",
":X c #D1A656",
">X c #D4AC55",
",X c #D8AF56",
"<X c #D1A658",
"1X c #D4AB58",
"2X c #D9AF59",
"3X c #D5B154",
"4X c #DAB455",
"5X c #DDBA55",
"6X c #DAB459",
"7X c #D9B859",
"8X c #E1BC55",
"9X c #E1BD59",
"0X c #C29B66",
"qX c #CA9D66",
"wX c #CBA266",
"eX c #D1B26F",
"rX c #C9A476",
"tX c #E2C055",
"yX c #133C8A",
"uX c #143F90",
"iX c #154192",
"pX c #1B4899",
"aX c #24599C",
"sX c #255CA4",
"dX c #245EB5",
"fX c #255EB8",
"gX c #2560B8",
"hX c #2C63BA",
"jX c #BC9E85",
/* pixels */
"gXgXgXgXgXgXgXgXgXfXgXgXgXgXgXgXgXgXgXgXgXgXgXgXgXgXgXgXgXgXgXgXgXgXgXgXgXgXgXgXgXgXgXgXgXgXgXgXgXgXgXgXgXgXgXdXgXgXgXgXgXgXgXgX",
"gXgXgXgXgXgXgXgXgXgXgXgXgXgXgXgXgXgXgXgXgXgXgXgXgXgXgXgXgXgXgXgXgXgXgXgXgXgXgXgXgXgXgXgXgXgXgXgXgXgXgXgXgXgXgXgXgXgXgXgXgXgXgXgX",
"fXgXgXgXgXgXgXgXgXgXgXgXgXgXgXgXgXgXgXgXgXgXgXgXgXgXgXgXgXgXgXgXgXgXgXgXgXgXgXgXgXgXgXgXgXgXgXgXgXgXgXgXgXgXgXgXgXgXgXgXgXgXgXgX",
"gXgXgXgXgXgXgXgXgXgXgXgXgXgXdXgXgXgXgXgXgXgXgXgXgXgXgXgXgXgXgXgXgXgXdXgXgXgXgXgXgXgXgXgXgXgXgXgXgXgXgXgXgXgXgXgXgXgXgXgXgXgXgXdX",
"gXgXgXgXgXgXgXgXgXgXdXgXgXgXgXgXgXgXgXgXgXgXgXgXgXgXgXgXgXgXdXgXgXgXgXgXgXgXfXgXgXgXgXgXgXgXgXgXgXgXgXgXgXgXgXgXgXgXgXdXgXgXgXgX",
"gXgXgXgXgXgXgXgXgXgXgXgXgXgXgXgXgXgXgXgXgXgXgXgXgXgXgXgXgXgXgXgXgXgXgXgXgXgXgXgXgXgXgXgXgXgXgXgXgXgXgXgXgXgXgXgXgXgXgXgXgXgXgXgX",
"gXgXgXgXgXgXfXgXgXgXgXgXgXgXgXgXgXgXgXgXgXgXgXgXgXgXgXgXgXgXgXgXgXgXgXgXgXgXgXgXgXgXgXgXgXgXgXgXgXgXgXgXdXgXgXgXgXgXgXgXgXgXgXgX",
"gXgXgXgXgXgXgXgXgXgXgXgXgXgXgXgXgXgXgXgXgXgXgXgXgXgXgXgXgXgXgXgXgXdXgXgXgXgXgXgXgXgXgXgXgXgXgXgXgXgXgXgXgXgXgXgXgXgXgXgXgXgXgXgX",
"gXgXgXgXgXgXgXgXgXgXgXgXgXgXgXgXgXgXgXgXgXgXgXgXgXgXgXgXgXgXgXgXgXgXgXgXgXgXgXgXgXgXgXgXgXgXgXgXgXgXgXgXgXgXgXgXgXgXgXgXgXgXgXgX",
"gXgXgXgXgXgXgXgXgXgXgXgXgXgXgXgXgXgXgXgXgXgXgXgXgXgXgXgXgXgXgXgXgXgXgXgXgXgXgXgXgXgXgXgXgXgXgXgXgXgXgXgXgXgXgXgXgXgXgXgXgXgXgXgX",
"gXgXgXgXgXgXgXgXgXgXgXgXgXgXgXgXgXgXgXgXgXgXgXgXgXgXgXgXgXgXgXgXfXfXgXgXgXgXgXgXgXgXgXgXgXgXgXgXgXgXgXgXgXgXgXgXgXgXgXgXgXgXgXgX",
"gXgXgXgXgXgXgXgXgXgXgXgXgXgXgXgXgXgXgXgXgXgXgXhXgXgXgXgXgXgXyXX X [ gXgXgXgXgXgXgXgXgXhXgXgXgXgXgXgXgXgXgXgXgXgXgXgXgXgXgXgXgXgX",
"gXgXgXfXfXdXdXdXfXfXdXdXgXgXgXgXgXgXgXgXgXdXfXsXgXdXdXdXdXdX' . . ' dXdXdXdXgXdXgXgXfXfXfXdXgXgXgXgXdXdXdXdXdXdXdXdXdXdXdXgXgXgX",
"gXhXfXpXyXiXuXiXuXuXuXuXiXiXiXiXiXiXiXiXiXiXiXiXiXiXiXiXiXyX` - ; _ iXiXiXiXiXiXiXiXiXiXiXiXiXiXiXiXiXiXiXiXiXiXuXiXiXiXpXdXgXgX",
"gXgXsX{ 0 u u u r r w r q u u u u u u u u u r r r r r r q r f.l.l.n./ q q w u u w q w r q u u q r r r r r u u q r r q 0 ] aXdXgX",
"gXyXw 2.t.e.e.e.e.e.e.e.r.e.e.r.e.e.e.e.e.e.e.e.e.e.q.3.= n Z.U.U.Q.a.= 3.e.e.e.e.e.e.e.r.r.e.e.e.e.e.e.e.r.r.e.e.e.e.t.6.d ' dX",
"sXy.6.t.t.t.r.t.t.t.t.t.t.t.t.t.t.t.t.t.t.t.t.t.t.t.t.7.+ l Z.U.I.G.u.o 3.t.t.t.t.t.t.r.t.t.t.t.r.t.r.t.t.t.t.t.t.t.r.t.t.6.y.aX",
"{ k 7.r.e.8.5.q.t.t.r.q.7.7.r.t.7.5.q.r.q.7.7.r.t.t.e.,.+ l Z.U.I.G.u.O ,.5.0.t.t.t.q.7.7.e.t.7.7.0.r.0.7.8.e.t.t.t.8.5.0.e.9.{ ",
"4 w j 7.9.k i 1.0.t.q.4.s f 7.9.j w 4.9.1.s d 8.e.e.7.i X : V.U.I.J.2.O i i 4.0.t.0.4.s j 9.9.g a 4.8.1.g j 9.q.e.8.j f 4.9.<.4 ",
"# P y f g y 9 i k w.1.s t y f g y 7 p g p y y j 7.7.k / v F Z.U.I.J.s.z / P s <.w.<.p 7 y f g y 7 s g p t y j 9.9.j y 7 p g s - ",
"1 V C 7 6 M V P e k i I C C 7 5 M V I 6 P N U 6 s i Y E.A.A.J.U.I.L.D.B.E.E 6 e <.i P V N t 7 C V P 6 n C M y j d t M C I t P 3 ",
"9 #.) Z E #.#.K M 6 I ( #.#.V N ) #.( Z S $.) N 5 o x H.T.U.I.U.I.I.I.Y.F.m & 3 5 I A #.) C C ) #.K V ( #.) N t t V ) #.K C Z I ",
"T ~.=.&.=.~.v.&.( N K &.;.v.#.) v.~.&.&.v.~.v.) 8 . c G.Y.I.U.U.U.U.I.I.F.x X T ~ S &.!.v.) ) v.!.&.%.v.~.=.) E N ) =.!.=.#.&.W ",
"! oXoX~.~.@X@X~.&.) %.v.oX+X=.=.oX+X~.~.}.@X}.=.M X c G.I.U.U.U.U.U.U.U.F.z . | +.&.~.rX}././.0XwX~.!. X$X}.=.$.$.=.}.@X~.=.!...",
"! oX%X#XOX@X+X%X].$._.OXOX%XOX+X+X+X%X+X@X@XOX+XE o z G.U.U.U.U.U.U.U.U.G.l .  .-.`.qX%X%X%X+XOXqX+X#XwX&XqXoX=.=.+X&X%X+X@X+X..",
"! oX@X@X1X6X@X+X@X+XOXOX%X&X<X9X@X@X@X:X3X,X&X@X-.c F H.U.U.U.U.U.U.I.T.G.B x -.%XOX&X%X&X1X9X@X@X@X:X3X1XOX+X+XoX+X&X#X-X6X>X..",
"! +X,X,X4X4XOX&X].^./.:./.:.^.].~.~.^.].^.^.(.[.*XV.V.L.U.U.U.U.U.U.L.U.K.V.V.M.].(.;.:.:.).]./.).^.^.].^.:.).].%X%X&X#X=X5X3X^ ",
"! +X4X4X,X:XOXOX3 < , , < 2 1 < , < 3 < < , < M Z.Y.T.U.U.U.U.U.U.U.U.U.U.U.U.G.L 1 , < < < 2 2 2 3 , 2 2 1 < 3 +X+X@X:X>X5X3Xo.",
"! oX5X3X@X&X$XOXo o . . . .   . .   .   . .   l C.U.I.T.Y.Y.U.U.U.U.Y.Y.Y.Y.I.G.G   . . .   .       . . . . X X @XoX=X4X4X2X;Xo.",
"~ oX6X,X@X$X$X+X.   B Z.L.L.L.L.L.L.L.L.L.L.L.L.L.U.L.p.. z Z.U.U.G.J   c H.I.L.P.P.P.P.L.K.P.P.L.L.P.L.H.a.. . OXoX=X6X1X@X+X..",
"! oX@X+X&X$X$X&X> * K F.R.Y.I.U.U.U.U.U.U.U.U.U.I.U.L.p.@ : C.U.U.G.J   z H.U.U.U.U.U.U.U.U.U.U.I.I.Y.R.L.a.% * OX+X@X@XOXOXoX..",
"! oX&X%X&X&X%X$X:.>./.m.A.C.U.U.U.U.U.U.U.U.U.U.U.U.L.p.@ l C.U.U.G.J   c H.U.U.U.U.U.U.U.U.U.U.U.I.V.B.E.'.>.:.+X%X%XOX+X%XoXo.",
"! oX&X$X&X@X=X&X+X-X;X-.N c L.U.U.U.U.U.U.U.P.U.U.U.P.p.@ l V.U.U.F.J . z K.U.U.U.U.U.U.U.U.I.I.U.T.c v ) |.&XOX,X>X=X+X+X&X#Xo.",
"! oX&X&XOX@X,X&X%X>X3XO.1 3 L.T.U.U.U.U.U.U.I.U.U.U.P.p.@ l V.U.U.G.J . z K.U.U.U.P.U.U.U.U.I.Y.Y.T.o   R ].oX+X8X5X=XOX$X&X#Xo.",
"! oX&X%XOX=X1X$X%X>X5XeXrXjXn.h.z.G.U.U.U.U.U.U.U.U.L.p.@ l V.U.U.F.J . z J.U.U.U.U.U.U.U.I.H.x.h.h..X&X=X@X+X@XtXtX:XOX%X&X#Xo.",
"! #X-X@X%XOX@X&X%X:X5X>X&XoX_   b A.U.U.U.U.U.U.U.U.L.p.@ l V.U.U.G.J . x H.U.U.U.U.U.U.U.Y.D.D . . $XqX@XOX$X@X5X5X-X%XoX&XoXo.",
"! oX,X=X@X$X&X$X+X-X;X:X@X&X}   b A.R.Y.Y.U.U.U.U.U.P.p.. : V.U.U.G.H   8 J.I.I.U.U.U.Y.T.T.G.F     @XOXOXOX$XOX:X:X@X+XOX@X%Xo.",
"! oX5X3X@X$X$X&X@X&X%X&X=X-X .U #.E.H.G.G.U.U.U.U.U.P.d.z D A.U.U.G.u.8 F J.U.U.U.U.U.H.A.D.W.$.R R =X#XOXOX$XOXOXOX-X;X=X@X#Xo.",
"! +X5X3X-X#X&X@X-X+X#X&X3X5X}.`.}.].@.G u.L.U.U.U.U.U.A.V.C.J.U.U.L.A.V.A.L.U.U.U.U.Y.a.z b &.[. X*X:X#X$X@X:XOX@XOX=X4X1X@X#X..",
"! #X6X3X@X$X&X6X5X@X#X$X3X4X+X&X&X`.3 . l L.U.U.U.U.U.U.T.U.U.P.U.U.Y.U.U.U.U.U.U.U.Y.c . . T {.>X5X=X#XOX:X8X=XOX&X=X5X3X&X#Xo.",
"! oX@X@XOXOX@X4X9XOXoX@X,X5X@X@XrX[.D D J L.I.U.U.U.U.U.U.U.U.U.U.U.U.U.U.U.U.P.U.I.Y.@.B B -.|.@X@X$X#XOX:X8X:X&X%X:X5X1XOXoX^ ",
"! oX&X%XOX@X%X=X:XOXOXOX@X=X|   v D.T.Y.Y.U.U.U.U.U.U.U.U.P.U.U.U.U.U.U.U.U.U.U.U.U.U.U.T.T.G.F   . OX@X@X@X=X@X&XOX@X@X:X,X=Xo.",
"! |.#XOX=X:X+X+XOXOX&X&X&X$X}   B A.Y.I.U.U.U.U.U.U.U.U.U.U.U.U.U.P.U.U.U.U.U.P.U.U.U.U.U.T.D.F   X @X:X=X$XOX#X#XOXOX#X=X4X3Xo.",
"! #X:X=X4X6X@X%X=X@X&X#X#X#X}   B A.I.I.U.U.U.U.U.U.L.U.U.U.U.U.U.U.U.U.U.U.U.U.U.U.U.U.U.Y.D.F   . ,X,X<XOX@X=XOX&X&XoX@X5X3Xo.",
"! oX4X3X3X4XOXOX5X:X&X&X@X@X}   B A.U.U.U.U.U.L.U.U.U.U.U.U.U.U.U.U.U.U.U.U.U.U.U.U.U.U.U.Y.D.F   . ,X,X1X&X1X8XOX&XOX@X:X5X>Xo.",
"! oX5X4X=X@X@X@X9X6X&XOX:X6X_   b C.I.U.U.U.U.U.U.U.U.U.U.U.U.U.U.U.U.U.U.U.U.U.U.U.U.U.I.Y.G.B   o :X@X@X@X,X8X+XoX:X>X4X4X>Xo.",
"! oX4X3X@XoX+X@X5X1X&XrX6XeXm.k.z.H.U.U.U.U.U.U.U.U.U.U.U.U.U.U.U.U.U.U.U.U.U.U.U.U.U.U.P.I.H.z.k.j.=XoXqXqX,X8X@XoX:X4X4X;X=Xo.",
"~ oX,X>X@XOXOXoX2X<X|.O.& . L.I.I.U.U.U.U.U.U.U.U.U.U.U.U.K.@.    : C.R.P.U.U.U.U.P.U.U.U.U.Y.Y.Y.T.    9 `.:X,X+XOX@X>X:X@XoX..",
"! oX+X+XOXOXOX&X%X%X|.X.&   L.Y.U.U.U.U.U.U.U.U.U.T.Y.I.T.K.u.    l A.R.U.T.U.U.U.U.U.U.U.U.U.U.Y.T..   T {.OX+X$X&XOX@X@X@X#Xo.",
"! oX&X#X&X&X@X+X+X+X|.X.& . L.U.U.U.U.U.U.U.U.U.P.P.L.L.L.J.c.U R / S.Y.L.L.L.L.U.U.U.U.U.U.U.U.U.T.    T {.&XOX@X&XOXOXOXOX#Xo.",
"! oX&X&XOX@X1X$X&X<X;XO.& . L.U.U.U.U.U.U.U.Y.L.x.d.g.d.g.b.}.{.`.{.b.g.d.d.d.k.G.T.U.U.U.U.U.U.I.Y..   R }.+X@X4X4X=XOX%X@X#Xo.",
"! #X&X&X$X=X1X&X$X1X3XO.% . L.U.U.U.U.U.U.U.Y.L.u.$ $ O   ^ |.&X#XoX^   $ $ o b D.R.U.T.U.U.U.U.I.T..   R }.%X@XtXtX=XOX%X%XoXo.",
"! oX+XoXoX@X<X&X%X>X7X'.a.a.L.I.L.D.V.V.V.Z.N.M. X3X3X#X{.|.#X&XOXOXoX{.oX+X|.|.*XN.V.Z.V.V.A.L.U.Y.u.u.c.+XOX@XtX8X:X&X#X@X#Xo.",
"! oX-X-X&X&XOX+XX . B D.Y.I.I.I.K.@.. . . . . ^  X7X5X-X#X%XOX&XOX@X@X&X$X&XoX#X$.  .       G G.Y.U.I.T.K.p.  . 5X4X:XoX#X&X#Xo.",
"! oX2X1X@X$X&X&XX   D A.Y.U.U.Y.K.a.3 < , , O *.oX+X@X@X@X+X+X&X+X6X1X@X$X$X#X#X*.$ , , , , L H.Y.I.U.Y.J.p.. . @X@XOX@X%X&X#Xo.",
"! oX4X4X=X#X$XOXX . z d.z.l.l.l.m.].]._.;.;.;._.#X#X#X=X2X1X%X$X+X5X4X@X#X$X$X$X:.;./._.`.(.[.m.j.z.l.z.k.F . . $XoX-X,X1X@X|.o.",
"! +X6X6X@XOX&X<X.   o # ; ; ; - W %X5X=X+X%XOX4X@X@XOX=X,X,X@X@X%X5X4X@X#X&X1X1X@XoX@X3X4X=X{.Q - ; ; ; ; @   X OXOX=X4X,X&XoXo.",
"! #X,X1X@X$X@X,X# # O O # # #   | |.>X-X$X#X:X8X:XOX#X:X4X,XOX@X&X1X1X@X#X@X,X5XOX&X@X4X4X@X`.U X O & O O $ $ $ OXOX<X4X,XOXoXo.",
"! oX@X@X&X#X&X,X<X0X.X0X-X;X+XoX+X+X@XOX#X$X=X6X=X@XoX=X,X>X@X@X&X@X@X&X$X@X1X6XOX+X&X,X3X=X@XOX%X@X&X$X%X-X5XwXOX#X-X4X,X=X+Xo.",
"~ oX&XOX@X&X#X=X=X&X$X$X+X-X=X4X@XOX#XOX@X&X&X=X@X$X@X@X@X=X3X3X+XoXOX@X&X@X@X@XOX%X%X@X=X:X5X@X%X#X@X@X@X@X=XOX&X+XOX@X=X3X;Xo.",
"! oX&X&X:X,X+X+XOX$X$X$X%XoX:XtX=XoX#X:X,X:X#X#X$X$X$X$X#X@X8X4XOX+X@X:X1X@X%X#XOXOX@XoX@X>X8X=X&X#X-X1X=X+X#XOXOX$X$XoX=X5X3X..",
"~ |.&X@X3X4X+X@X$XOX$X$X%X&X:X8X:X@XoX:X4X<X@X$XOXOX@X$X@X@X,X,XOXOX@X3X5X@XOXOXOXOXOX&XOX:X5X=X$X+X:X4X,X&X$XOX$X$XOX#X=X4X3Xo.",
"~ oX-X=X4X4X@X%X=X-X$X@XOXOX:X8X@X@X@X>X4X<X$X=X:X@X$X@XoX@X4X3X&X=X=X4X4X@X$X:X@XOXOXOXOX>X5XXX@X=X:X4X:X&X@X=XOXOXOXoX=X4X3X^ ",
"~ +X4X4X6X6X@XOX5X3X@XOXoXXX;XtX:X>X4X,X8X<X$X>X9X@X#X#XXX=X4X3X+X5X6X6X4X@X+X9X,XOXoX+XXX>X5X@X1X5X4X3X1X&X3X9X+X+X+XXX=X4X3Xo."
};
