/* XPM */
static char *_e1daa24d2844d0ca6898f495ede09ee[] = {
/* columns rows colors chars-per-pixel */
"64 64 154 2 ",
"   c #020001",
".  c #061A0D",
"X  c #081E0A",
"o  c gray11",
"O  c #0B230B",
"+  c #10230A",
"@  c #0C2610",
"#  c #102E19",
"$  c #1B3018",
"%  c #163A19",
"&  c #292D0E",
"*  c #2F310E",
"=  c #38360E",
"-  c #373915",
";  c #202020",
":  c gray17",
">  c #194015",
",  c #1D482B",
"<  c #24562C",
"1  c #275D33",
"2  c #2B6636",
"3  c #2E6C3D",
"4  c #34773A",
"5  c #4C4210",
"6  c #524612",
"7  c #544A13",
"8  c #5B4E15",
"9  c #614F16",
"0  c #635116",
"q  c #665518",
"w  c #695618",
"e  c #665819",
"r  c #6D5E1B",
"t  c #715F1B",
"y  c #76631D",
"u  c #7A661E",
"i  c #7C681F",
"p  c #7C6A20",
"a  c #312B44",
"s  c #2A2F56",
"d  c #2A3056",
"f  c #26325E",
"g  c #28315A",
"h  c #1F3567",
"j  c #1E376A",
"k  c #1C396F",
"l  c #163B76",
"z  c #1A3A72",
"x  c #153D7A",
"c  c #233463",
"v  c #253666",
"b  c #283A6F",
"n  c #223D74",
"m  c #347743",
"M  c #357943",
"N  c #294079",
"B  c gray26",
"V  c #836D21",
"C  c #897226",
"Z  c #93772B",
"A  c #93792C",
"S  c #9B7B34",
"D  c #A07F37",
"F  c #3C8734",
"G  c #3B843C",
"H  c #429329",
"J  c #489F2D",
"K  c #408F31",
"L  c #419235",
"P  c #4AA22E",
"I  c #4CA730",
"U  c #4FAC32",
"Y  c #53B635",
"T  c #56BB37",
"R  c #5BC53A",
"E  c #5FCC3D",
"W  c #3B8643",
"Q  c #3D8942",
"!  c #A7833D",
"~  c #A8843D",
"^  c #AB8441",
"/  c #B18943",
"(  c #BD8F4E",
")  c #BE904E",
"_  c #C89755",
"`  c #CE9A5A",
"'  c #174183",
"]  c #184488",
"[  c #1D4D96",
"{  c #1D4F99",
"}  c #284787",
"|  c #25498D",
" . c #224B91",
".. c #255FB9",
"X. c #2560B8",
"o. c #2865BD",
"O. c #2968BA",
"+. c #3971BD",
"@. c #4A78BF",
"#. c #4B7DC1",
"$. c #5283C3",
"%. c #668CC6",
"&. c #6390C8",
"*. c #6995CA",
"=. c #749ECE",
"-. c #76A0CF",
";. c #7EA7D2",
":. c #839ECE",
">. c #86A3D0",
",. c #82AAD5",
"<. c #8CB4D8",
"1. c #8FBBDF",
"2. c #92B9DB",
"3. c #9AC0DF",
"4. c #BCC5DF",
"5. c #96C3E2",
"6. c #9CC4E0",
"7. c #A0C7E2",
"8. c #A4C9E3",
"9. c #ABCBE4",
"0. c #B3C6E0",
"q. c #B3CFE5",
"w. c #AED5EA",
"e. c #AAD8EC",
"r. c #B2D2E7",
"t. c #B2D6EA",
"y. c #B8D4E8",
"u. c #BDDBED",
"i. c #BCE3F0",
"p. c #D9D9DB",
"a. c #CBD2E6",
"s. c #C5D6EA",
"d. c #C3DCED",
"f. c #CCDEEE",
"g. c #C4E0EF",
"h. c #CEE1EF",
"j. c #D1E1EE",
"k. c #D9E2EF",
"l. c #CAE1F0",
"z. c #D4E5F1",
"x. c #DEE6F1",
"c. c #D7E9F3",
"v. c #DAEAF4",
"b. c gray91",
"n. c #E1E4F0",
"m. c #E7EFF6",
"M. c #E9EDF5",
"N. c #E5F5FA",
"B. c #ECF3F9",
"V. c #EDFAFD",
"C. c #F3F3F5",
"Z. c #F3F6FA",
"A. c #F5FAFC",
"S. c #FEFEFF",
/* pixels */
"o.X.X.X.X.X.X.X.X.X.X.X.X.X.X.X.X.X.X.X.X.X.X.X.X.X.X.X.X.X.X.X.X.X.X.X.X.X.X.X.X.X.X.X.X.X.X...X.X.X.X.X.X.X.X.X.X.X.X.X.X.X.X.",
"o.X.X.X.X.X.X.X.X.X.X.X.X.X.X.X.X.X.X.X.X.X.X.X.X.X.X.X.X.X.X.X.X.X.X.X.X.X.X.X.X.X.X.X.X.X.X.X.X.X.X.X.X.X.X.X.X.X.X.X.X.X.X.X.",
"o.X.X.X.X.X.X.X.X.X.X.X.X.X.X.X.X.X.X.X.X.X.X.X.X.X.X.X.X.X.X.X.X.X.X.X.X.X.X.X.X.X.X.X.X.X.X.X.X.X.X.X.X.X.X.X.X.X.X.X.X.X.X.X.",
"o.X.X.X.X.X.X.X...X.X.X.X.X.X.X.X.X.X.X.X.X...X.X.X.X.X.X.X.X.X.X.X.X.X.X.X.X.X.X.X.X.X.X.X.X.X.X.X.X.X.X.X.X.X.X.X.X.X.X.X.X.X.",
"o.X...X.X.X.X.X.X.X.X.X.X.X.X.X.X.X.X.X.X.X.X...X.X.X.X.X.X.X.X.X.X.X.X.X.X.X.X.X.X.X.X.X.X.X.X.X.X.X.X.X.X.X.X.X.X.X.X.X.X.X.X.",
"o.X.X.X.X.X.X.X.X.X.X.X.X.X.X.X.X.X.X.X.X.=.<.1.2.<.=.<.X.X.X.X.X.X.X.X.X.X.X.X.X.X.X.X.X.X.X.X.X.X.X.X.X.X.X.X.X.X.X.X.X.X.X.X.",
"o.X.X.X.X.X.X.X.X.X.X.X.X.X.X.X.X.X.X.$.<.2.8.m.f.d.2.1.=.X.X.X.X.X.X.X.X.X.X.X.X.X.X.X.X.X.X.X.X.X.X.X.X.X.X.X.X.X.X.X.X.X.X.X.",
"o.X.X.X.X.X.X.X.X.X.X.X.X.X...X.X...1.2.8.A.S.S.A.V.S.N.3.6.X.X.X.X.X.X.X.X.X.X.X.X.X.X.X.X.X.X.X.X.X.X.X.X.X.X.X.X.X.X.X.X.X.X.",
"X.X.X.X.X.X.X.X.X.X.X.X.X.X.X.X.X.X.2.w.S.S.  B.  A.S.A.A.3.2.+.X.X.X.X.X.X.X.X.X.X.X.X.X.X.X.X.X.X.X.X.X.X.X.X.X.X.X.X.X.X.X.X.",
"O.X.X.X.X.X.X.X.X.X.X.X.X...X.X.X.X.6.A.S.m.  V.  A.A.Z.S.S.6.*.X.X.X.X.X.X.X.X.X.X.X.X.X.X.X.X.X.X.X.X.X.X.X.X.X.X.X.X.X.X.X.X.",
"O...X.X.X.X.X.X.X.X.X.X.X.X.X.X.X.X.6.N.S.S.S.A.Z.S.S.B.S.V.2.#.X.X.X.X.X.X.X.X.X.X.X.X.X.X.X.X.X.X.X.X.X.X.X.X.X.X.X.X.X.X.X.X.",
"o.X.X.X...X.X.X.X.X.X.X.X.X.X.X.X.X.7.i.S.S.S.S.S.S.S.S.S.l.2.X.X.X.X.X.X.X.X.X.X.X.X.X.X.X.X.X.X.X.X.X.X.X.X.X.X.X.X.X.X.X.X.X.",
"o.X.X.X.X.X.X.X.X.X.X.X.X.X.X.X.X.X.=.,.t.S.S.S.S.S.S.Z.e.7.2.X.X.X.X.X.X.X.X.X.X.X.X.X.X.X.X.X.X.X.X.X.X.X.X.X.X.X.X.X.X.X.X.X.",
"o.X.X.X.X.X.X.X.X...X.X.X.X.X.X.X.X.X.X.2.7.d.r.r.h.w.5.-.X.X.X.X.X.X.X.X.X.X.X.X.X.X.X.X.X.X.X.X.X.X.X.X.X.X.X.X.X.X.X.X.X.X.X.",
"o.X.X.X.X.X.X.X.X.X.X.X.X.X.X.X.X.X.X...X.=.=.@.@.=.=...X.X.X.X.X.X.X.X.X.X.X.X.X.X.X.X.X.X.X.X.X.X.X.X.X.X.X.X.X.X.X.X.X.X.X.X.",
"o.X.X.X.X.X.X.X.X.X.X.X.X.X.X.X.X.X.X.X.X.X.X.....X.X.X.X.X.X.X.X.X.X.X.X.X.X.X.X.X.X.X.X.X.X.X.X.X.X.X.X.X.X.X.X.X.X.X.X.X.X.X.",
"o.X.X.X.X.X.X.X.X.X.X.X.X.X.X.X.X.X.X.X.X.X.X.X.X.X.X.X.X.X.X.X.X.X.X.X.X.X.X.X.X.X.X.X.X.$.=.=.$.#.X.X.X.X.X.X.X.X.X.X.X.X.X.X.",
"o.X.X.X.X.X.X.X.X.X.X.X.X.X.X.X.X.X.X.X.X.X.X.X.X.X.X.X.X.X.X.X.X.X.X.X.X.X.X.X.X.X.X.@.3.6.<.2.3.8.3.&.X.X.X.X.X.X.X.X.X.X.X.X.",
"o.X.X.X.X.X.X.X...X.X.X.X.X.X.X.X.X.X.X.X.X.X.X.X.X.X.X.X.X.X.X.X.X.X.X.X.X.X.X.X.;.7.7.6.r.j.f.C.A.9.3.6.=.X.X.X.X.X.X.X.X.X.X.",
"o...X.X.X.X.X.X.X.X.X...6.t.w.7.$.X.X.X.X.X.X.X.X.X.X.X.X.X.X.X.X.X.X.X.X.X.X.X.3.3.8.d.A.S.S.S.S.S.S.S.9.8.3.X.X.X.X.X.X.X.X.X.",
"o.X.X.X.X.X.X.X.X.O...A.S.S.g.c.t.t.,.X.X.X...X.X.X.X.X.X.X.X.X.X.X.X.X.X.X.X.X.8.4.S.S.S.S.C.S.S.S.S.S.S.Z.7.2.X.X.X.X.X.X.X.X.",
"o.X.X.X.X.X.X.X.X.,.S.S.S.S.S.S.C.Z.0.t.X.X.X.X.X.X.X.X.X.X.X.X.X.X.X.X.X.X.X.-.8.A.S.S.S.S.; S.S.S.o S.S.S.B.7.;.X.X.X.X.X.X.X.",
"o.X.X.X.X.X...X.7.v.S.S.S.S.S.S.S.S.S.d.q.X.X.X.X.X.X.X.X.X.X.X.X.X.X.X.X.X.X.-.7.S.S.S.S.C.o S.S.S.o S.S.S.S.7.8.#.X.X.X.X.X.X.",
"o.X.X.X.X.X.X.;.t.S.S.S.S.S.S.S.S.S.S.S.r.-.X.X.X.X.X.X.X.X.X.X.X.X.X.X.X.X.X.X.3.S.S.S.S.S.S.S.S.S.S.S.S.S.S.z.6.4.X.X.X.X.X.X.",
"o.X.X.X.X.X.X.v.S.S.S.b.S.S.S.S.S.S.S.S.y.,.X.X.X.X.X.X.X.X.X.X.X.X.X.X.X.X.X.X.6.m.S.A.S.S.S.S.A.S.S.S.S.S.S.Z.7.:.X.X.X.X.X.X.",
"o.X.X.X.X.X.+.d.S.S.S.; C.S.S.B p.S.S.S.k.7.X.X.X.X.X.X.X.X.X.X.X.X.X.X.X.X.X.X.2.9.S.S.S.S.S.S.S.S.S.S.S.S.S.B.7.X.X.X.X.X.X.X.",
"o.X.X.X.X.X.-.c.S.S.S.o p.A.S.: A.S.S.A.k.7.X.X.X.X.X.X.X.X.X.X.X.X.X.X.X.X.X.X.X.2.h.S.A.S.S.S.S.S.S.S.S.S.S.y.7.X.X.X.X.X.X.X.",
"o.X.X.X.X.X.6.B.S.S.S.S.S.S.S.S.S.S.S.S.S.6.O.X.X.X.X.X.X.X.X.X.X.X.X.X.X.X.X.X.X.X.=.8.q.Z.S.S.S.S.S.S.S.S.s.7.2.X.X.X.X.X.X.X.",
"o.X.X.X.X.X.6.r.Z.S.S.S.S.S.A.S.S.S.S.S.C.r.X.X.X.X.X.X.X.X.X.X.X.X.X.X.X.X.X.X.X.X.X.;.6.9.6.y.y.y.9.q.7.6.7.3.X.X.X.X.X.X.X.X.",
"o.X.X.X.X.X.$.r.S.S.S.A.B.B.B.B.S.B.S.S.x.8.X.X.X.X.X.X.X.X.X.X.X.X.X.X.X.X.X.X.X.X.X.X.X.X.X.#.#.#.#.#.X.X.O...X.X.X.X.X.X.X.X.",
"o.X.X.X.X.X.X.t.S.S.S.S.S.S.Z.A.S.S.S.S.z.5.X.X.X.X.X.X.X.X.X.X.X.X.X.X.X.X.X.X.X.X.X.X.X.X...X.X.X.X.X.X.X.X.X.X.X.X.X.X.X.X.X.",
"o.X.X.X.X.X.O.r.M.S.S.S.S.S.S.S.S.S.S.4.c.9.X.X.X.X.X.X.X.X.X.X.X.X.X.X.X.X.X.X.X.X.X.X.X.X.X.X.X.X.X.X.X.X.X.X.X.X.X.X.X.X.X.X.",
"o.X.X.X.X.X.X.t.A.S.S.S.S.S.A.S.S.S.A.4.y.%.X.X.X.X.X.X.X.X.X.X.X.X...X.X.X.X.X.X.X.X.X.X.X.X.X.X.X.X.X.X.X.X.X.X.X.X.X.X.X.X.X.",
"o.X.X.X.X.X.X.6.S.S.S.S.S.S.S.S.S.S.S.S.t.X.X.X.X.X.X.X.X.X.X.X.X.X.X.X.X.X.X.X.X.X.X.X.X.X.X.X.X.X.X.X.X.X.X.X.X.X.X.X.X.X.X.X.",
"o.X.X.X.X.X.X.X.t.S.S.S.S.S.S.S.S.S.C.h.3.X.X.X.X.X.X.X...X.X.X.X.X.X.X.X.X.X.X.X.X.X.X.X.X.X.X.X.X.X.X.X.X.X.X.X.X.X.X.X.X.X.X.",
"o.X.X.X.X.X.X.X.X.7.h.Z.S.S.S.A.n.4.S.t.O.X.X.X.X.X.X.X.X.X.X.X.X.X.X.X.X.X.X.X.X.X.X.X.X.X.X.X.X.X.X.X.X.X.X.X.X.X.X.X.X.X.X.X.",
"o.X.X.X.X.X.X.X.X.X.@.7.g.c.S.M.a.Z.h.$.X.X.X.X.X.X.X.X.X.X.X.X.X.X.X.X.X.X.X.X.X.X.X.X.X.X.X.X.X.X.X.X.X.X.X.X.X.X.X.X.X.X.X.X.",
"o.X.X.X.X.X.X.X.X.X.X...@.>.=.7.u.7.X.X.X.X.X.X.X.X.X.X.X.X.X.X.X.X.X...X.X.X.X.X.X.X.X.X.X.X.X.X.X.X.X.X.X.X.X.X.X.X.X.X.X.X.X.",
"o.X.X.X.X.X.X.X.X.X.X.X.X.X.X.X.O.X.X.X.X.X...X.X.X.X.X.X.X.X.X.X.X.X.X.X.X.X.X.X.X.X.X.X.X.X.X.X.X.X.X.X.X.X.X.X.X.X.X.X.X.X.X.",
"o.X.X.X.X.X.X.X.X.X.X.X.X.X.X.X.X.X.X.X.X.X.X.X.X.X.X.X.X.X.X.X.X.X.X.X.X.X.X.X.X.X.X.X.X.X.X.X.X.X.X.X.X.X.X.X.X.X.X.X.X.X.X.X.",
"o.X.X.X.X.X.X.X.X.X.X.X.X.X.X.X.X.X.X.X.X.X.X.X.X.X.X.X.X.X.X.X.X.X.X.X.X.X.X.X.X.X.X.X.X.X.X.X.X.X.X.X.X.X.X.X.X.X.X.X.X.X.X.X.",
"O.X.X.X.X.X...X.X.X...X.X.X.X.X.X.X.X.X.X.X.X.X.X.X.X.X.X.X.X.X.X.X.X.X.X.X.X.X...X.X.X.X.X.X.X.X.X.X.X.X.X.X.X.X.X.X.X.X.X.X.X.",
"..X.X.X.X.X.X.X.X.X.X.X.X.X.X.X.X.X.X.X.X.X.X.X.X.X.X.X.X.X.X.X.X.X.X.X.X.X.X.X.X.X.X.X.X.X.X.X.X.X.X.X.X.X.X.X.X.X.X.X.X.X.X.X.",
"..X.X.X.X.X.X.X.X.X.X.X.X.X.X.X.X.X.X.X.X.X.X.X.X.X.X.X...X.X.X.X.X.X.X.X.X.X.X.X.X.X.X.X.X.X.X.X.X.X.X.X.X.X.X.X.X.X.X.X.X.X.X.",
"X.X.X.X.X.X.X.X.X.X.X.X.X.X...X.X.X.X.X...X.X.X.X.X.X.X.X.X.X.X.X.X.X.X.X.X.X.X.X.X.X.X.X.X.X.X.X.X.X.X.X.X.X.X.X.X.X.X.X.X.X.X.",
"X.X.X.X.X.X.X.X.X.X.X.X.X.X.X.X.X.X.X.X.X.X.X.X.X.X.X.X.X.X.X.X.X.X.X.X.X.X.X.X.X.X.X.X.X.X.X.X.X.X.X.X.X.X.X.X.X.X.X.X.X.X.X.X.",
"X.X.X.X.X.X.X.X.X.X.X.X.X.X.X.X.X.X.X.X.X.X.X.X.X.X.X.X.X.X.X.X.X.X.X...X.X.X.X.X.X.X.X.X.X...X.X.X.X.X.X.X.X.X.X.X.X.X.X.X.X.X.",
"X...X.X.X.X.X.X.X.X.X.X.X.X.X.X.X.X.X.X.X.X.X.X.X.X.X.X...X.X.X.X.X.X.X.X.X.X.X.X.X.X.X.X.X.X.X.X.X.X.X.X.X.X.X.X.X.X.X.X.X.X.X.",
"X.X.X.X.X.X.X.X.X.X.X.X.X.X.X.X.X.X.X.X.X.X.X.X.X.X.X.X.X.X.X.X.X.X.X.X.X.X.X.X.X.X.X.X.X.X.X.X.X.X.X.X.X.X.X.X.X.X.X.X.X.X.X...",
"X.X.X.X.X.X.X.X.X.X.X.X.X.X.X.X.X.X.X.X.X.X.X.X.X.X.X.X.X.X.X.X.X.X.X.X.X.X.X.X.X.X.X.X.X.X.X.X.X.X.X.X.X.X.X.X.X.X.X.X.X.X.X.X.",
"X.X.X.X.X.X.X.X.X.X.X.X.X.X.X.X.X.X.X.X.X.X.X.X.X.X.X.X.X.X.X.X.X.X.X.X.X.X.X.X.X.X.X.X.X.X.X.X.X.X.X.X.X.X.X...X.X.X.X.X.X.X.X.",
"X.X.X.X.X.X.X.X.X.X.X.X.X.X.X.X.X.X.X.X.X.X.X.X.X.X.X.X.X.X.X.X.X.X.X.X.X.X.X.X.X.X.X.X.X.X.X.X.X.X.X.X.X.X.X...X.X.X.X.X.X.X.X.",
"X.X.X.X.X.X.X.X.X.X.X.X.X.X.X.X.X.X.X.X.X.X.X.X.X.X.X.X.X.X.X.X.X.X.X.X.......X.X.X.X.X.X.X.X.X.X.X.X.X.X.X.....X.X.X.X.X.X.X.X.",
"O.X.X.X.X.X.X.X.o.X.X.X.X.X.o.X.X.X.X.X.X.X.X.X.X.X.X.X.X.X.....X.X.X.X.......X.X.X.X.o.X.X.O.X.X.X.X.X.X.X.X...O.X.X.X.X.X.X.X.",
"a g f s d s d f f c c f f v h z z l z j v c f f v b N } | |  .[ { [ ] | | } n v h h v c c f c f s h l x ' ' ] ' ' ' x x l k z z ",
"J J J J P J J J J J J J J J J P J J J J J P J J J J J J J J P J J J P P J J J J J J J J J J J I J J J J P P P J J J J J J P P P ",
"E E E E E E E E E E E E E E E E E E E E E E E E E E E R E E E E E E E E E E E E E E E E E E E E E E E E E E E E E E E E E E E E ",
"E E E E T Y Y Y E E E E T Y Y Y E E E E E E E E E R Y Y T T E E E R Y Y T T E E E E E E E E E T Y Y Y R E E E T Y Y Y R E E E E ",
"E R R R 4 3 3 4 R R R R 4 3 3 3 T R E E E E E E R I 3 m 3 K R R E U 3 3 3 G R R R E E E E R R F 3 3 3 U E R E H 3 3 3 J E R E E ",
"E L M m         3 m M m .       2 m G E E E T M m 1       % M m M 1       @ M M I R E E I m M #       1 M M M ,       < m M Y E ",
"W > O O q r r e O O O X 0 r r r + O % Q Q Q 4 X O = r r r 7 O O O & r r r 8 O O < Q Q Q 2 O O 8 r r r * O O O 5 r r y = O O 4 Q ",
"# 5 9 0 u p i u 0 9 0 8 y i i i 0 9 6 # # # # 8 9 w p p i t 9 9 9 q u i i y 0 9 - # # # - 9 9 t p p p q 9 9 8 t i i i w 8 8 $ # ",
"5 t C ~ ! ! ~ ! V p i i ! ! ! ~ V p y 5 5 5 6 y S ~ ! ~ ~ S i i i V ! ! ! D p p q 5 5 5 8 p ! ! ! ^ ~ C p p p A ~ ! ^ Z p p 7 5 ",
"A A ^ ` ` ` ` _ S Z Z Z _ ` ` ` S Z A A A A Z Z ( ` ` ` ` ) Z Z Z ~ ` ` ` _ Z Z Z A A A A S _ ` ` ` ` ^ Z Z Z ( ` ` ` / Z Z A A "
};
