/* XPM */
static char *_24a6fd8d7a34ea6fcea2cae9bb41b89[] = {
/* columns rows colors chars-per-pixel */
"64 64 196 2 ",
"   c #010001",
".  c #090909",
"X  c #011B0E",
"o  c #081A0C",
"O  c #061012",
"+  c #141213",
"@  c gray11",
"#  c #0B230B",
"$  c #142F14",
"%  c #122B1A",
"&  c #102E19",
"*  c #343510",
"=  c #1B1A2C",
"-  c #12212A",
";  c #1C3E31",
":  c #153B3F",
">  c #272727",
",  c #232236",
"<  c #25253D",
"1  c #2A353E",
"2  c #373839",
"3  c #194015",
"4  c #1E432E",
"5  c #1E4131",
"6  c #20412F",
"7  c #24562C",
"8  c #35443C",
"9  c #275D33",
"0  c #2B6636",
"q  c #2E6C3D",
"w  c #33753A",
"e  c #4C4210",
"r  c #574A13",
"t  c #5E5016",
"y  c #614F16",
"u  c #655417",
"i  c #6D5E1B",
"p  c #715F1B",
"a  c #77641E",
"s  c #7C681F",
"d  c #7C6A20",
"f  c #082A4A",
"g  c #2C2B44",
"h  c #343446",
"j  c #30304A",
"k  c #26325E",
"l  c #293158",
"z  c #383753",
"x  c #1E376A",
"c  c #173B74",
"v  c #233462",
"b  c #3C3D60",
"n  c #347743",
"m  c #357943",
"M  c #1C4663",
"N  c #25557A",
"B  c #454547",
"V  c #484749",
"C  c #4A504C",
"Z  c #545454",
"A  c #414163",
"S  c #474A70",
"D  c #636362",
"F  c #646869",
"G  c #717171",
"H  c #727272",
"J  c #7A7A7A",
"K  c #836D21",
"L  c #897226",
"P  c #93772B",
"I  c #93792C",
"U  c #9B7B34",
"Y  c #A17F38",
"T  c #3B8538",
"R  c #429329",
"E  c #489F2D",
"W  c #419133",
"Q  c #4AA22E",
"!  c #4EAA31",
"~  c #53B635",
"^  c #56BB37",
"/  c #5BC53A",
"(  c #5FCC3D",
")  c #3C8743",
"_  c #A7833D",
"`  c #A8843D",
"'  c #B18845",
"]  c #B98D4A",
"[  c #C89755",
"{  c #CE9A5A",
"}  c #174183",
"|  c #184488",
" . c #2C588F",
".. c #3A6793",
"X. c #275DAE",
"o. c #255FB5",
"O. c #2C60AC",
"+. c #3267AB",
"@. c #2661B7",
"#. c #2963B6",
"$. c #2D6AB3",
"%. c #2560B8",
"&. c #2865BD",
"*. c #356DB6",
"=. c #575985",
"-. c #585A85",
";. c #5F5E8F",
":. c #5B6A95",
">. c #676996",
",. c #6E6EA8",
"<. c #706FAB",
"1. c #7A7CB5",
"2. c #7B7ABC",
"3. c #4A7DC0",
"4. c #7D7DC0",
"5. c #7E8081",
"6. c #7B9BAD",
"7. c #5383C3",
"8. c #658EC7",
"9. c #749ECE",
"0. c #7CA5D2",
"q. c #818282",
"w. c #8A8C8E",
"e. c #8F999E",
"r. c #919293",
"t. c #9C9C9C",
"y. c #A8A8A8",
"u. c #AEB3B6",
"i. c #B4B5B5",
"p. c #B7B9BC",
"a. c #BBBCBC",
"s. c #BEC0BF",
"d. c #8283C6",
"f. c #8688C6",
"g. c #8585C9",
"h. c #898BCB",
"j. c #8C8CD3",
"k. c #908FD7",
"l. c #8E95D2",
"z. c #9090D6",
"x. c #9A9BD6",
"c. c #85A7D4",
"v. c #99A4D2",
"b. c #93BADB",
"n. c #A1A1DC",
"m. c #AAB6DA",
"M. c #B4BCDC",
"N. c #9B9BE4",
"B. c #9D9DE8",
"V. c #9FA0EA",
"C. c #A2A3E7",
"Z. c #A1A1EC",
"A. c #ADADF6",
"S. c #AEAEF8",
"D. c #B0AEF6",
"F. c #B6B7F6",
"G. c #B3B4FD",
"H. c #B6B8F9",
"J. c #9CC2DA",
"K. c #B9C2DF",
"L. c #9CC4E1",
"P. c #A0C7E2",
"I. c #A5C9E3",
"U. c #B5C8E2",
"Y. c #AFD5E8",
"T. c #B2D5EA",
"R. c #BBD6EA",
"E. c #BEC1FB",
"W. c #C4C5C5",
"Q. c #C6C7C9",
"!. c #C7C8CA",
"~. c #C9CACC",
"^. c #CCCDD2",
"/. c #CED2D4",
"(. c #D5D9DC",
"). c #D6E3DC",
"_. c #C5D2E7",
"`. c #D9DEE2",
"'. c #C0C2FE",
"]. c #CDD1F5",
"[. c #CCD0FC",
"{. c #C4E0EF",
"}. c #DBE2E5",
"|. c #DEE4EA",
" X c #D9E9F3",
".X c #DEE4FD",
"XX c #E4E6E7",
"oX c #E5EAEE",
"OX c #E5ECF3",
"+X c #E4E9FA",
"@X c #EBF1F6",
"#X c #EDF4FC",
"$X c #F3F5F5",
"%X c #F1F6FA",
"&X c #F4F9FC",
"*X c #FEFEFE",
/* pixels */
"%.%.%.%.%.%.%.%.%.%.%.%.%.o.%.%.%.%.%.o.%.%.%.%.%.%.%.%.%.%.%.%.%.%.%.%.%.%.%.%.&.o.&.&.o.&.%.%.%.%.%.o.%.%.%.%.%.%.%.%.%.%.%.o.",
"%.%.%.%.%.%.%.%.%.o.%.%.%.%.%.%.%.%.%.%.%.%.%.%.%.%.%.%.%.%.%.%.%.%.%.%.%.%.%.%.o.&.o.o.%.o.%.%.%.%.%.%.%.%.%.%.%.%.%.%.%.%.%.%.",
"%.o.%.%.%.%.%.%.%.%.%.%.%.%.%.%.%.%.o.@.%.%.%.%.%.%.%.%.%.%.%.%.%.%.%.%.%.%.%.%.o.o.o.o.%.%.%.%.%.%.%.%.%.%.%.%.%.%.%.%.%.%.%.%.",
"%.%.%.%.%.%.%.o.%.%.%.%.%.%.%.%.%.%.%.@.%.%.%.%.@.%.%.%.%.%.%.%.%.%.%.%.%.%.%.%.&.o.o.O.%.%.%.%.%.%.%.%.%.%.%.%.%.%.%.%.%.%.%.%.",
"%.%.o.%.%.%.%.%.%.%.%.%.%.&...6 6 6 6 4 ; ; ; ; 5 ; 5 5 ; 5 5 %   5 ; 4 5 6 6 6 ; ; ; ; ; ; ; 1  .#.o.o.&.o.%.%.%.%.%.%.%.%.%.%.",
"%.%.%.%.%.%.%.%.%.%.%.%.%. .>.f.h.x.n.^./././././././././././././././.n.x.x.v.l.h.x.h.f.f.f.f.4.;.N o.o.o.&.%.%.%.%.%.%.%.%.%.%.",
"%.%.%.%.%.%.%.%.%.%.%.%.@.8 ;.d.j.Z.C.H.E.+X#X#X+XE.'.E.E.E.E.E.'.'.H.C.Z.B.Z.x.j.N.d.d.d.d.d.>., X o.&.&.%.%.%.%.%.%.%.%.%.%.%.",
"%.%.%.%.%.%.%.%.%.%.%.o.@.8 -.1.g.N.B.G.S..X#X#X.XG.G.G.G.G.G.G.G.H.G.B.N.N.N.k.d.x.2.1.1.1.2.;.  o @.o.o.o.%.%.%.%.%.%.%.%.%.%.",
"%.%.%.%.%.%.%.%.o.%.o.o.&.h -.4.g.N.B.G.D.+X#X#X+XG.G.G.G.G.G.G.G.G.G.B.N.N.N.k.8.N.2.2.2.2.2.;.  X o.%.%.%.%.%.%.%.%.%.%.%.%.%.",
"%.o.%.%.%.%.%.%.%.%.o.o.o.8 =.2.d.B.N.G.S..X%X#X+XG.G.G.G.G.G.G.G.G.G.N.N.B.N.k.d.N.2.2.2.2.2.-.  O &.%.%.%.%.%.%.%.%.%.o.%.%.%.",
"%.%.%.%.%.%.%.%.3.9.9.b.9.8 =.2.d.N.N.G.S..X#X#X.XG.G.G.G.G.H.G.G.G.G.N.N.N.N.z.d.x.2.2.2.2.2.;.  X o.%.%.%.%.%.%.%.%.%.%.%.%.%.",
"%.%.%.%.%.%.%.b.I.I.{.oXR.8 -.2.d.N.N.G.G..X#X#X+XG.G.G.G.G.G.G.G.G.G.B.N.N.N.z.d.N.2.2.2.2.2.;.  X o.%.%.%.%.%.%.%.%.%.%.%.%.%.",
"%.%.%.%.%.%.P.+X*X*X*X*X*X8 =.2.d.N.N.G.S..X#X#X.XG.G.G.G.G.G.G.G.G.G.N.N.N.N.z.d.N.2.2.2.2.2.;.  X %.%.%.%.%.%.%.%.%.%.%.%.%.%.",
"%.%.%.%.o.b.@X*X*X*X*X*X*X8 -.2.g.N.N.G.S..X#X#X.XG.G.G.G.G.G.G.G.G.G.B.N.N.B.k.4.N.2.2.2.2.2.;.  X @.%.%.%.%.%.%.%.%.%.%.%.%.%.",
"%.%.%.%.%.P.*X*X$X@ OX  *X8 -.2.d.N.N.G.G..X#X#X+XG.G.G.G.G.G.G.G.G.G.N.N.N.N.k.4.N.2.2.2.2.2.;.  X %.%.%.%.%.%.%.%.%.%.%.%.%.%.",
"%.%.%.o.%.P.&X*X X  &X2 $X8 -.2.g.N.B.G.S..X#X#X.XG.G.G.G.H.G.G.G.H.G.B.N.N.N.k.d.N.2.2.2.2.2.-.  X %.%.%.%.%.%.%.%.%.%.%.%.%.%.",
"%.%.%.%.%.L.#X*X*X*X*X*X*X8 -.2.g.N.N.G.G..X#X%X+XG.G.G.G.G.G.G.G.G.G.N.N.N.N.z.d.N.4.4.4.2.4.;.  X %.%.%.%.%.%.%.%.%.%.%.%.%.%.",
"%.%.%.o.%.0.P.%X*X*X*X&X*X8 = g A g.g.B.V.F.'.'.H.Z.Z.Z.Z.Z.Z.Z.Z.Z.Z.d.d.d.g.>.b 6.< < < g g =   X %.%.%.%.%.%.%.%.%.%.%.%.%.%.",
"%.%.%.%.%.%.0.L.Y.*X#X*X*X8     + g < j j z z z z j j j j j j j j j j < < < < = O ,               X %.%.%.%.%.%.%.%.%.%.%.%.%.%.",
"%.%.%.%.%.%.%.3.b.P.R.L.P.8                                                                 .     - %.%.%.%.%.%.%.%.%.%.%.%.%.%.",
"%.%.%.%.%.%.%.%.%.%.%.%.@.+.C A <.,.<.f.h.x.x.M.(.(.(.n.n.n.n.n.x.h.h.h.h.1.2.4.,.,.,.,.<.z     : $.%.%.%.%.%.%.%.%.%.%.%.%.%.%.",
"%.%.%.%.%.%.%.%.%.%.%.%.%.#.X.S 4.2.2.N.N.A.G.[.#X#X#XH.G.G.G.G.S.N.N.N.N.g.j.k.4.2.2.2.4.A     N %.%.%.%.%.%.%.%.o.%.%.%.%.%.o.",
"%.%.%.%.%.%.%.%.%.%.%.%.%.%.#.S 4.2.2.N.N.A.G.[.#X#X#XH.G.G.G.G.S.N.N.N.N.g.j.j.2.2.2.2.4.A     | %.%.%.%.%.%.%.%.%.%.%.%.%.%.%.",
"%.%.%.o.%.%.%.%.@.%.%.%.%.%.O.S 2.2.2.N.N.S.G.[.#X#X#XH.G.G.G.G.S.N.N.N.N.g.j.j.2.2.2.2.4.A     %.%.%.%.%.%.%.%.%.%.%.%.%.%.%.%.",
"%.%.%.%.%.o.%.%.%.%.%.%.%.%.#.S 4.2.2.N.N.A.S.[.#X#X#XG.G.G.G.G.S.N.N.N.N.d.j.k.1.2.2.2.2.b     %.%.%.%.%.%.%.%.%.%.%.%.%.%.%.%.",
"%.%.%.%.%.%.%.%.%.%.%.%.o.o.X.S 4.2.2.N.N.A.G.[.#X#X#XH.G.G.G.G.S.N.N.N.N.9.j.k.2.2.2.2.4.b     %.%.%.%.%.%.%.%.%.%.%.%.%.%.%.%.",
"%.%.%.%.%.%.%.%.%.%.%.%.o.&.X.S 2.2.2.N.N.S.S.[.%X#X#XG.G.G.G.G.S.N.N.N.N.g.j.k.2.2.2.2.2.A     %.%.%.%.%.%.%.%.%.%.%.%.%.%.%.%.",
"%.%.%.%.%.%.%.%.%.%.%.%.o.#.#.S 2.2.2.N.N.S.G.[.#X#X#XH.G.G.G.G.S.N.N.N.N.g.j.k.2.1.2.2.4.A     %.%.%.%.%.%.%.o.%.%.o.%.%.%.o.%.",
"%.%.%.%.%.%.%.%.%.%.o.%.%.%.o.S 2.2.2.N.N.A.G.[.#X#X#XH.G.G.G.G.G.N.N.N.N.g.j.k.2.2.2.2.4.A     o.%.%.%.%.%.%.%.%.%.%.%.%.%.%.%.",
"%.%.%.%.%.%.%.%.%.%.%.%.%.%.o.S 2.2.2.N.N.A.G.[.%X#X#XH.G.G.G.G.A.N.N.N.B.g.j.k.2.2.2.2.4.A     o.%.%.%.%.%.%.%.%.%.%.%.%.%.%.%.",
"%.%.o.%.%.%.%.%.%.%.%.%.%.%.X.S 2.2.2.N.N.A.S.[.#X#X#XG.G.G.G.G.S.N.N.N.N.g.j.z.2.2.2.2.2.A     o.%.%.%.%.%.%.%.%.%.%.%.%.o.%.%.",
"%.%.%.%.%.%.o.%.%.%.%.%.%.%.o.S 2.2.2.N.N.A.S.[.%X#X#XH.G.G.G.G.S.N.N.N.N.d.j.z.2.2.2.2.2.A     o.%.%.%.%.%.%.%.%.o.%.%.%.%.%.%.",
"%.%.%.%.%.%.%.%.%.%.%.%.%.%.O.S 2.2.4.x.N.A.G.[.#X#X#XH.G.G.G.G.S.N.N.N.N.g.j.k.2.2.2.2.2.z     %.%.%.%.%.%.%.%.%.%.%.o.%.%.%.%.",
"%.%.%.%.%.%.%.%.%.%.%.%.%.%.%.S 2.2.2.N.N.A.G.[.#X#X+XF.G.G.G.G.S.N.N.N.B.f.j.k.2.2.2.2.4.b     %.%.%.%.%.%.o.%.%.%.%.%.%.%.%.%.",
"%.%.%.%.%.%.%.%.%.%.%.%.%.%.%.S 4.2.2.N.N.A.G.[.#X#X#XH.G.G.G.G.S.N.N.N.B.g.j.k.2.2.2.2.4.A     %.%.%.%.%.%.%.%.%.%.%.%.%.%.%.%.",
"%.%.%.%.%.%.%.%.%.%.%.%.%.%.%.S 4.2.2.N.N.A.G.].$X#X@XF.F.H.S.F.D.N.N.N.B.g.j.k.2.2.2.4.4.b     @.%.%.%.%.%.%.%.%.%.%.%.%.%.%.%.",
"%.%.%.%.%.%.%.%.%.%.%.%.%.@.@...= = = , , g g h V B z g g X.@.%.o.*.< , , = , , = = = = = o . :.3.@.o.%.%.%.%.%.%.%.%.%.o.%.%.%.",
"%.%.%.%.%.%.%.%.%.%.%.%.%.#.+.w.}.}.}.}.}.}.}.}.}.`.}.a.a.1 X.o.o. .`.`.XX`.}.}.}.}.`.}.(.!.i.r.6.L.8.o.%.%.%.%.%.%.%.%.%.%.%.%.",
"%.%.%.%.%.%.%.%.%.%.%.%.@.#.+.r.#X#X#X#X#X#X@XXX~.~.Q.W.W.a.O @.#.h @X#X#X#X#X#X#X@X~.~.~.~.W.K.t.6.L.L.9.%.%.%.%.%.o.%.%.%.%.%.",
"%.%.%.%.%.%.%.%.%.%.%.L.Y.J.t.|.#X@X~.!.@X#X#XXXW.W.W.W.~.r.Z O F XX#X%X/.~.}.#X#X@XW.Q.W.W.W.i.H X }.I.P.L.%.%.%.%.%.%.%.%.%.%.",
"%.o.%.%.%.%.%.%.@.%.%X*X$X{.u.%X#X@XW.W.OX#X#X}.W.W.W.W.W.r.C   F %X#X#X^.W.`.#X#X@XW.W.W.W.W.y.D X ).*X#XP.b.%.%.%.%.%.%.%.%.%.",
"%.%.%.%.%.o.%.%.c.*X*X*X$XK.u.%XOXQ.W.W.~.~.~.!.W.W.W.W.W.r.C   F %X#X~.Q.W.!.~.~.~.W.W.W.W.W.y.D X oX*X*X$XP.0.o.%.o.%.%.%.%.%.",
"%.%.%.%.%.@.%.L. X*X*X*X*Xs.i.%XOXW.W.W.oX@X(.W.W.W.K.J J H V   F %X#XQ.W.W.`.@XXXW.W.W.W.t.J J D X $X*X*X*XP.I.3.%.%.%.%.%.%.%.",
"%.%.%.%.%.@.0.Y.*X*X*X*X$Xs.i.$XoXW.W.W.+X%X(.W.i.J J a.` >.V   F #X@XQ.W.Q.`.#XOXW.W.q.J y.t.G D X *X*X*X*X XP.U.o.%.%.%.%.%.%.",
"%.%.%.%.%.&. X*X*X*XXX*X&Xs.r.~.~.W.W.W.OX#X(.W.i.G H W.q.H V   Z ~.~.W.W.W.`.#XoXW.s.J H y.t.H D X *X*X*X*X%XP.0.%.%.%.%.%.%.%.",
"%.%.%.%.%.*.{.*X*X*X@ $X*Xa.r.W.i.q.W.W.Q.~.~.W.i.G H J H H V   C W.W.q.i.W.!.Q.Q.W.W.J H J J G D X *X*X*X*X#XP.o.%.%.%.%.%.o.%.",
"%.%.%.%.%.9. X*X*X*X@ (.$Xs.r.W.W.a.W.W.W.W.t.J J G H H H H V   Z Q.W.a.W.W.W.W.i.J J H G H H H D X *X*X*X*XT.L.&.o.%.%.%.%.%.%.",
"%.%.%.%.%.L.@X*X*X*X*X*X*XXXr.W.i.w.@X@Xr.J J H H J M.I.' H V   C Q.W.J `.#Xa.J J H H H i.a.t.H D X *X*X*X].P.b.%.%.%.%.%.%.%.%.",
"%.%.%.%.o.b.R.&X*X*X*X*X&Xa.Z J J w.@X#X6.H H H H >.~.W.q.H V   1 5.J G XX$Xa.H H H H H i.W.y.H D X Y.P.P.L.L.%.%.%.%.%.%.%.%.%.",
"%.%.%.%.&.7.T.*X*X*X*X%XOXu.Z H H H >.' G G G G G H >._ J 2 .   > H H H _ >.J H H H H H J J H Z + X 3.o.%.%.%.%.%.%.%.%.%.%.%.%.",
"%.%.%.%.o.o.T.*X*X*X*X*X&Xy.. V H H H H H G G G H H H H > .       > H H :.H H H H H H H H H C +   f #.@.%.%.%.%.%.%.%.%.%.%.%.%.",
"%.%.%.%.o.@.T.@X*X*X*X*X*X&XoX. + + + + + + + + + + @ o     O.$.+.  + + + + + + + + + + + + .   M $.%.o.%.%.%.%.%.%.%.%.%.%.%.%.",
"%.%.o.@.o.&.T.&X*X*X*X*X*X&X*X*X*X&XK.R.8.%.%.%.%.%.%.%.%.%.o.%.@.%.@.%.@.@.#.#.@.@.#.#.@.%.%.%.o.o.%.%.&.%.%.%.%.%.%.%.%.%.%.&.",
"&.&.&.@.&.o.9._.M.m.v.c.v.m.M.K.K.M.M.c.&.%.%.%.%.&.%.%.&.%.%.o.%.@.&.@.o.o.@.&.@.&.&.&.&.&.&.&.&.&.&.@.&.&.&.%.&.&.&.%.&.&.&.&.",
"g l v l l l l l k v v k k v x x c c c x v v k k l k l l k x x c c c x k k k x v x x v v k k k k l x c } | | | | } } | c c x x c ",
"Q E E E E E E E E E E E E E E E E E E E E Q E Q Q Q Q E Q E E E E E E Q E E E E E E Q Q E Q Q Q E E E E E E E E E E E E E E E Q ",
"( ( ( ( ( ( ( ( ( ( ( ( ( ( ( ( ( ( ( ( ( ( ( ( ( ( ( ( ( ( ( ( ( ( ( ( ( ( ( ( ( ( ( ( ( ( ( ( ( ( ( ( ( ( ( ( ( ( ( ( ( ( ( ( ",
"( ( ( ( ~ ~ ~ ~ ( ( ( ( ~ ~ ~ ^ / ( ( ( ( ( ( ( ( / ~ ^ ~ / ( ( ( / ~ ~ ~ ^ ( ( ( ( ( ( ( ( ( ^ ~ ~ ~ / ( ( ( / ~ ~ ~ / ( ( ( ( ",
"( ( / ^ w w w w / / / / w q q q ^ ( ( ( ( ( ( / ( ! q q q T / / ( ! n q n T ( / / ( ( ( ( ( / T q q q ! ( / / R q n 0 E ( / ( ( ",
"( W m m         q n m n o       0 m T ( ( ( / n w 9     . $ m n n 0       # n n Q ( ( ( Q m m $       9 n n m 4       7 n m ~ ( ",
") 3 # # u i i u # # # o u i i i # # $ ) ) ) T o # * p i i r o # o * i i i r # # 9 ) ) ) 0 # # r a i i * # # # e i i p * # # w ) ",
"& e y u s s s s u y y y a K s s y y r & & & & r t u s s d a t y t u s s s a y y * & & & * y t i s s s u y y y p s s K i y t $ & ",
"e i L ` _ _ _ _ K s s s Y _ _ ` K d a e e e r a U ` ` ` ` U s s s K _ _ _ Y d d u e e e t d _ ' _ _ _ L d d d P ` ` ' L d d r e ",
"P P ' { { { { { U P P P [ { { { U P P I I I I P ] { { { { ] P P P _ { { { [ P P P I I I I U [ { { { [ ' P P P ] { { { ' P P I I "
};
