/* XPM */
static char *ca49f1e5390c4690e6e2b99e55be6510[] = {
/* columns rows colors chars-per-pixel */
"64 64 235 2 ",
"   c black",
".  c #000C09",
"X  c #1D0000",
"o  c #161700",
"O  c #191A00",
"+  c #051812",
"@  c gray12",
"#  c #340000",
"$  c #31332F",
"%  c #343633",
"&  c #3B3B3B",
"*  c #4E0707",
"=  c #680E0E",
"-  c #5B3E3E",
";  c #6F3030",
":  c #000062",
">  c #181866",
",  c #334444",
"<  c gray28",
"1  c #4A4142",
"2  c #484947",
"3  c #4D4D4D",
"4  c #555555",
"5  c #5F5F5F",
"6  c #784748",
"7  c #5E5E7A",
"8  c #676767",
"9  c gray42",
"0  c gray45",
"q  c #7A7A77",
"w  c #7B7B7B",
"e  c #A50000",
"r  c #AE0000",
"t  c #B30000",
"y  c #BA0000",
"u  c #B50A0B",
"i  c #AF1213",
"p  c #B8191A",
"a  c #920036",
"s  c #902A2A",
"d  c #873232",
"f  c #B72C2B",
"g  c #A53131",
"h  c #B73737",
"j  c #C70201",
"k  c #CB1517",
"l  c #CA2B2A",
"z  c #D72B2A",
"x  c #C73A3A",
"c  c #D93A39",
"v  c #DB423F",
"b  c #9A0054",
"n  c #AD374D",
"m  c #A84343",
"M  c #B94141",
"N  c #B44B4B",
"B  c #BB4D4D",
"V  c #B65454",
"C  c #BA5252",
"Z  c #B45A6B",
"A  c #836B6B",
"S  c #BC6362",
"D  c #BA686A",
"F  c #BD7575",
"G  c #C74C4B",
"H  c #D84748",
"J  c #C65A59",
"K  c #DD5453",
"L  c #D75A5A",
"P  c #D75F60",
"I  c #C66868",
"U  c #D96868",
"Y  c #D5706F",
"T  c #C77676",
"R  c #C47B7B",
"E  c #CA7C7C",
"W  c #D87877",
"Q  c #E06B6B",
"!  c #81817F",
"~  c #00009E",
"^  c #3B0097",
"/  c #0000A5",
"(  c #0100AA",
")  c #0C07AB",
"_  c #120CA9",
"`  c #1413AA",
"'  c #0000B1",
"]  c #2424AA",
"[  c #2B2BAD",
"{  c #3434AA",
"}  c #3A3AAE",
"|  c #3B3AB0",
" . c #4D39A1",
".. c #3C4BAC",
"X. c #645F9A",
"o. c #4345AC",
"O. c #4B54AD",
"+. c #535BAE",
"@. c #4B4CB2",
"#. c #5454B3",
"$. c #5C5CB2",
"%. c #6A6CA8",
"&. c #6464B2",
"*. c #6868B6",
"=. c #6A72B4",
"-. c #7B7BB4",
";. c #7777BA",
":. c #6571C3",
">. c #926399",
",. c #AA6D89",
"<. c #D87F80",
"1. c #7B8DD1",
"2. c #838383",
"3. c #85848A",
"4. c gray56",
"5. c #968C8B",
"6. c #949393",
"7. c #979798",
"8. c #9B9B9B",
"9. c #B88C96",
"0. c #B09391",
"q. c #BD9192",
"w. c #BE9E9F",
"e. c #8C8FAD",
"r. c #8684BC",
"t. c #8D8DBC",
"y. c #908DBA",
"u. c #9596BD",
"i. c #AA94AD",
"p. c #9FA0BD",
"a. c #A3A3A1",
"s. c #ABABAB",
"d. c #B7AAAA",
"f. c #BFADAE",
"g. c #A7A5BD",
"h. c #B0ABBA",
"j. c #B7B7B7",
"k. c #BCB5B5",
"l. c #C58282",
"z. c #CC8686",
"x. c #C28A8A",
"c. c #CC8A8A",
"v. c #D38383",
"b. c #D38B8A",
"n. c #DC8889",
"m. c #CF908F",
"M. c #C59797",
"N. c #CE9A9A",
"B. c #D29595",
"V. c #D79696",
"C. c #D49A9A",
"Z. c #E08786",
"A. c #E6908F",
"S. c #E49796",
"D. c #C8A8A9",
"F. c #D3A2A2",
"G. c #D6A0A0",
"H. c #DAA3A2",
"J. c #D5ACAC",
"K. c #DAABAB",
"L. c #C6B0AF",
"P. c #CDAFB0",
"I. c #C5B3B4",
"U. c #CBB3B4",
"Y. c #C4B6BA",
"T. c #C5BBBD",
"R. c #D4B2B1",
"E. c #D9B3B3",
"W. c #D2BDBD",
"Q. c #DBBBBB",
"!. c #E2A5A5",
"~. c #E7A7A7",
"^. c #E9B7B7",
"/. c #E4BCBC",
"(. c #DBC0BF",
"). c #EEC0BF",
"_. c #8282C1",
"`. c #8D8EC2",
"'. c #9494C3",
"]. c #9B9BC3",
"[. c #9596C9",
"{. c #9D9DCA",
"}. c #A2A2C3",
"|. c #ABABC2",
" X c #A4A4CB",
".X c #A6A9CB",
"XX c #AAAACD",
"oX c #AFB1CA",
"OX c #B9B9C9",
"+X c #A7A7D4",
"@X c #ADADD4",
"#X c #B4B4D3",
"$X c #BABAD6",
"%X c #B7BCDA",
"&X c #BCBCD9",
"*X c #C3BEC0",
"=X c #EBBFC0",
"-X c #BFC1D1",
";X c #C7C6C7",
":X c #CAC1C3",
">X c #C2C3CA",
",X c #CBCBCC",
"<X c #DACDCC",
"1X c #C6C7D8",
"2X c #D1CFD5",
"3X c #D3D3D3",
"4X c #D8D3D8",
"5X c #DFDFDF",
"6X c #E4C3C3",
"7X c #ECC7C7",
"8X c #E5CCCC",
"9X c #E6D2D2",
"0X c #EBD4D4",
"qX c #E8DBDB",
"wX c #EDDCDC",
"eX c #F4DDDD",
"rX c #C5C5E0",
"tX c #CDCDE2",
"yX c #D3D3E4",
"uX c #D9DAE8",
"iX c #E5E4E4",
"pX c #E4E5ED",
"aX c #E9E7EA",
"sX c #EFEFEF",
"dX c #F5E4E4",
"fX c #F8E7E6",
"gX c #F4EAEA",
"hX c #F9EBEB",
"jX c #E6E6F0",
"kX c #ECECF2",
"lX c #F4F2F3",
"zX c #FAF5F5",
"xX c #F4F6FB",
"cX c #FBF9F9",
"vX c #FDFDFD",
/* pixels */
"@ & @ & @ & @ & @ & @ & @ & @ & @ & @ & @ & @ & @ & @ & @ & @ & @ & @ & @ & @ & @ & @ & @ & @ & @ & @ & @ & @ & @ & @ & @ & @ & ",
"4 4 4 3 4 3 4 3 4 4 3 3X5X5X5X3X5X3X5X5X5X3X5X3X5X5X5X@ & 2.s.j.3X,X3X3X;X3Xj.;Xs.! 4 @ 2 2 2 2 2 < < < < < 4 3 4 3 4 3 4 3 4 4 ",
"4 4 4 4 4 4 4 4 4 4 < 5X3X;X3Xj.3X3X3X;X3X3Xj.3X3X;X4.@ & ! ;Xj.4.s.2.4.4.4.4.2.s.4 & @ & 9 4.4.2.4.4.4.w 9 8 < 3 < 3 < < < 3 < ",
"4.4.2.4.4.4.2.4.@ 4 3 5X;X;Xj.3Xj.;X;Xj.;X;Xj.j.3X4.5 @ & s.3Xs.4.s.4.s.2.s.4.s.2.4 & @ & 4.3X5X5X5X3X5Xj.j.s.4.2.4.4.4.2.4.4.4.",
"3X3X3X3Xj.s.4.2.@ a.;X4X,Xj.2X8.s.4.s.s.s.s.8.s.s.X.4 @ % 4.j.4.4.2.s.s.s.s.2.4.0 3 & @ & 2.5X5Xj.;Xj.3X5X5XiX3X5X3X;X3X3X3X;X3X",
"s.s.s.s.8.s.w 0 @ 4Xj.8.w 5 s.s.s.s.8.s.4.s.2.s.d.0 4 @ & 2 s.4.s.s.2.4.8.4.s.9 4 4 & @ & 4.3Xj.s.4.s.4.s.s.8.4.4.s.4.s.2.s.4.8.",
"j.8.8.8.s.4.w 9 @ 3X8.q $   3.pXpXpXpXpXpXpXjXpXiXpXaX8., , ! 4.2.s.4.s.s.2.s.0 & & & @ & 2.5Xj.4.s.2.8.2.4.4.s.2.4.8.4.s.8.4.8.",
"j.s.2.j.2.8.8 4 @ 3Xa.! 2   7  X{.{.{.{.{. X X.XoX|.oX-X(.iX2 4.s.s.8.4.4.4.s.9 & & & @ & 4.5Xs.s.2.8.w s.8.w 4.s.2.s.s.4.w s.8.",
"8.s.s.4.8.0 2 2 @ 3Xa.! 2 o > [ [ ` ( ` [ | o.O.+.+.-.e.s.4X4 < w , & & & & & & & @ @ & & 0 uX5X4.s.! ! 8.q a.! s.4.4.w s.s.0 4.",
"4.4.2.4.0 4 2 < @ 3Xa.! 2 O : / ' [.#X[.) @.[.%Xt.O.{ X.%.u.#X&X-X-X,X3X3X& @ & @ @ @ 2 < < ;X;X4.4.6.6.8.8.0.%.4.s.4.s.s.2.s.4.",
"0 9 0 0 3 3 & & @ 3Xa.! 2 o : / ' yXvXtX` *.tXxX%X+.~ ] { o.o.@.=.=.-.8.j.iX@ & @ & @ 3 4 < ;Xs.4.s.! s.4.! 4.0 9 8 5 5 8 5 8 5 ",
"4 4 < < < @ @ @ @ 3Xa.! 2 o : ( ' yXcXyX$._.yXxX-X;.[ ] / ] [ { O...X.2.8.4X8.s.s.8.0 & 3 3 j.4.9 0 8 5 8 4 4 4 4 < 3 < 2 < < 3 ",
"@ @ @ @ @ & @ & @ 3Xa.! 2 o : ( ( *._.{.uXyX@X;.@XuXtX;.) -.|.}...( [ o. .F T Y I F.wX@ 4 < 4.9 8 5 4 2 < < & & & & & @ & @ & @ ",
"@ & @ & @ @ & @ & 3Xa.! 2 o : ( ( / / t.vXkX'.~ +XxXkX[./ t.>X>X{ ~ / _ ^ a r e e T 8X@ & & & & & & & & & & & @ @ @ @ @ @ @ @ @ ",
"& & & & & & & & & 3Xa.! 2 o : / ( _. X@XyX2X#X{.#XtXtX].-.y.}.}.-.-.$.(  .9.F.N.N.J./.9X8X6XqX& @ @ & @ @ & @ & & & & & & & & & ",
"4 3 & & & & & & @ 3Xa.! 2 O : ( ' uXvXuX` =.uXvX*XO.} }.,Xu._ ] OX2X}.( *.iXvXvXvXdX!.z j r R qX4 4 @ 2 3 < < 3 < 3 < < < < < & ",
"7.8.4.8.4.8.4.8.8.3Xa.! 2 o : ( ( tXlXtX&._.yXkX%X;.*.p.OXy.@.#.oXOX'.( &.4XzXlXlX0XS.x G h c.9XsX5 k.5 w 8.8.4.8.8.8.4.8.8.8.8.",
"3X;X3X3X;X3Xj.s.0 3Xa.! 2 o : / ( ;.'. XuXyX@X`.@XuXtX'.&.y.|.g.=.&.#.(  .,.b.c.c.R G x H.0X9X!.S.!.A.H.;X3X5X5XuX3X5X5X5X3X5X3X",
"s.8.4.s.4.s.s.9 0 3Xa.! 2 o : ( ( ( [ '.vXjX].( +XxXkX[.[ y.>XOXo./ ( ) ^ b y t t u t V =XxXdXW v z k P dX3Xj.j.s.k.j.j.s.j.j.j.",
"s.4.8.4.s.2.4.9 0 3Xa.! 2 o : ( ' ;. XXXtX1X@X].@XtXrX+X].].}.].-.-.$.(  .9.C.N.N.N.N.N.E.8X/.U H H H U 7X0XdX8.s.4.s.4.8.2.8.8.",
"s.4.4.s.2.s.s.9 4 3Xa.! 2 O : / ' uXvXuX#._.yXxX&X*.;.yXcX$Xo...oX>X]./ :.uXvXcXcXcXvXzXE.I i t t x H K U W =X8.2.8.4.8.0 2.4.2.",
"s.4.s.4.s.2.4.0 3 3Xa.2.2 O : ( ' rXjXrX` &.*XjX+X| $.1XkXoX&.%.|.oX].&.>.tXgXgXdXdXgXdXR.D V R R b.S.Z.H H ^.8.s.4.s.4.8.2.8.8.",
"4.s.0 w 4.4.s.9 4 3Xa.! 2 O : / ' _.{.;.' | ;.+X=.] | _.{.}.g.p.-.;.r.g.g.N.C.N.B.V.!.~.F.w.U.<X9X0XeX0XG x /.8.4.8.2.8.w w 4.4.",
"4.2.2.w 4.s.2.8 < 3Xa.! < o > } | [ ] [ | | [ ] [ [ [ ) ( t.-X-X} / -.:XY.D t u p h H U N.Y.4XxXcXvXvXhXN t R.4.s.2.s.4.w w 4.4.",
"4.4.s.s.2.4.4.5 3 3Xa.! 2   X.>X%X&X$X$X$X$X$X$X.X].t.u.t.u.u.e.{ / +.y.e.>.>.i.E./.6X/.K.C.N.R.E.E.Q.P.d d I.4.4.8.4.2.s.4.s.4.",
"8.s.2.4.s.2.0 4 % 3Xa.! 2   8.cXxXxXxXxXxXxXxXxXuX-XOXOX-Xu.=.+./ / ( } o.#.1.%XlXcXcXzX^.n.P J J B B N * 1 j.4 4 4 8 8 9 w 4.2.",
"8 5 8 5 8 4 < & & 3Xa.! 2   5.fXdXdXdXdXdXdXfXfX9X(.L.L.I.i.-.=.&.&.$.$.$.&._.$XwXgXhXdX~.Q H C B D T D * - f.< < < 2 2 < 4 4 4 ",
"4 3 < & & & @ @ @ 3Xa.! 2   6 E T E T E E <.Z.A.n.<.Y S V 9.h.h.g.g.g.g.i.>.n Z T v.n.S.W K Y N.d.<XdX0Xg s U.@ @ @ @ @ @ & & 2 ",
"@ @ @ @ @ @ @ & @ 3Xa.! 2 + = t t t t r t y x H H H v k r q.T.>X-X;X-X;X*XZ t t t u c H H v W U.T.aXvXzXB t E.& & & @ % @ @ @ @ ",
"< 8 8 9 4.8.4.2.4.3Xa.! <   A Q.Q.Q.Q.Q.Q./.=X6X).)./.F.q.q.x.x.! x.x.x.m.J.Q.Q.Q.Q.6X=XE.F.N.N.B.H.^.J.d ; I.4 3 4 4 4 4 & & & ",
"8 4.j.5X3X5X3X3X;X3Xa.! <   8.vXvXcXcXvXcXcXcXvXvXvXlX3X:Xq.f t j j y y V qXvXvXcXcXvXzXuX,XD.Y K l t e X , j.4.8 4 < < 3 < < 4 ",
"8 s.3X;X;Xj.s.s.8.3Xa.! 2   7.cXzXzXzXzXzXzXzXzXzXcXgX<XT.q.B h h x h n T qXvXzXzXzXcXzXqX,XD.W U J C m # - j.5X5X3X5X5X5X4.& 4 ",
"8 5Xj.s.s.2.s.4.s.3Xa.! <   ; C C C C C C C C C P U Q Q L C.Y.T.(.T.Y.T.L.F M V C J U Y Q P v.P.Y.qXcXdXN i R.s.2.4.s.4.2.2.& 4 ",
"8 3Xj.8.2.s.4.s.2.3Xa.! < + = r r r r t t r r t j z v v c B.T.;X(.-X;X;XI.V r r t y j c v c W U.*XaXvXhXN u R.4.s.s.2.s.4.5 & 2 ",
"8 5Xs.4.s.4.s.s.w 3Xa.! <   A K.K.K.K.K.K.J.K.K.E.^.^.^.^.H.q.q.0.q.q.q.q.F.K.K.K.K.^.^.~.V.B.N.F.E.6XE.d d U.s.2.4.s.4.s.5 & 2 ",
"8 5Xs.s.4.4.8.8.s.3Xa.! 2   a.vXvXvXvXvXvXvXvXvXvXvXvXvXvX/.h t r r t t S dXvXvXvXvXvXvXiX,XL.Y L k t e X , j.4.s.2.4.s.8.4 & 2 ",
"8 3Xj.4.s.s.4.s.2.3Xa.! 2   5.fXdXfXdXfXfXdXdXdXfXdXdXfXhXK.S N N N N V F 6XhXdXdXfXgXfX9XW.F.E Y I D Z * - k.8.4.s.4.! s.4 & & ",
"8 5Xj.s.8.4.s.4.s.3Xa.! 2   6 l.E E E E E E E E E E v.n.A.G.L.f.f.f.f.f.D.x.E E E v.n.A.Z.W b.D.I.<XdX9Xm s R.4 4 4 4 4 4 4 & & ",
"8 5Xs.4.s.s.2.s.w 3Xa.! < . ; M v n M M M M M M M M x x z b.k.(.T.-XY.T.I.F f M h G L Q U K <.U.T.iXcXgXM i E.@ @ @ @ @ @ @ @ & ",
"8 3Xj.4.2.8.s.4.s.3Xa.! <   A E.R.E.E.E.E.E.E.E.E.E.H.W K T q.q.q.q.q.q.M.J.E.E.E.Q./.^.!.V.B.C.N.K./.E.d s L.& & & & & & & & & ",
"8 5Xj.s.s.2.8.s.4.3Xa.! 2   6.8.4.4.s.2.8 4 @ @ & 2 wXS.K l p u u u t p S wXvXvXvXvXvXvXiX,XL.Y L v f f # , j.w w w w w w 0 & 3 ",
"8 5Xs.4.4.s.2.s.4.3Xa.! 2   7.4.! q 4.s.9 4 @ @ @ & (.=X~.m.c.z.z.z.z.c.B.8XeXwX0X0X0X9XW.D.M.z.v.v.z.l.; ; k.j.;Xj.;Xj.;Xw & 3 ",
"8 ;Xj.s.s.4.s.4.s.3Xa.! 2   8.4.s.4.4.2.8 5 & @ @ & w dXeX0X0X0X0X0X0X0X8X~.Z.n.E R R R I V F D.L.<XeX0Xg s R.sX3X5X3X3X4.8 @ 3 ",
"8 3Xj.4.s.4.s.s.! 3Xa.! 2   7.s.w 8.2.s.8 3 & @ @ @ w ;X;XgXlXsXlXsX5X5XgXS.v G h f f f h u F U.T.iXcXhXB u R.;Xj.j.;Xj.w 5 @ 3 ",
"8 j.j.s.4.s.2.4.4.3Xa.! 2   7.s.2.s.4.4.5 4 & @ @ @ w ;X;Xj.;Xj.;Xj.;Xs.j.0X6X6XQ.Q.Q.Q.Q.Q.E.V.b.V.H.N.; d I.s.! s.4.s.9 5 & & ",
"2 ;X2.6.s.2.0 9 0 3Xa.! 2   7.4.s.2.s.4.9 4 & @ @ @ 8 j.uXj.4.4.2.4.4.4.s.2.s.s.4.4.8.s.s.s.0XW K l p i # , j.4.s.s.8.4.9 3 @ & ",
"2 j.s.s.8.4.4 4 4 3Xa.! 2   7.2.4.s.4.2.0 3 & @ @ @ 2 ;X5Xk.4.4.4.s.4.8.4.8.s.2.4.8.s.s.2.8.gX~.S.b.c.F = - j.s.! s.4.s.9 5 & & ",
"3 w w w 4 4 4 4 4 3Xa.! 2   7.s.2.4.4.9 9 4 & @ @ @ @ j.5X3Xs.s.2.4.4.4.w 4.2.s.4.8.2.s.8.w 2.a.gXsXgXqXm i R.4.w 8.4.4.0 3 @ & ",
"< & @ @ @ 4 4 4 4 3Xa.! <   8.5 8 8 5 8 4 4 & @ @ @ & s.3X3X4.2.s.4.s.2.4.s.4.w w 8.8.2.s.4.s.4.4.s.2.dXf r R.2.s.4.0 2.9 4 @ & ",
"4 4 4 < & @ @ @ @ 3Xa.! <   7.& & & & & & & & @ @ @ @ 4.3Xj.s.4.4.s.2.s.w 4.2.8.w 8.4.8.w s.2.4.w 4.4.4.8X6XqXw 4.4.2.w 9 4 @ & ",
"< 3 < < < 2 < & @ 3Xa.! 2   7.@ @ @ @ @ @ @ @ @ @ @ & 2.8.9 0 0 9 0 0 9 s.4.s.s.2.4.w 2.4.4.w 4.4.s.2.s.4.4.s.2.4.4.4.8.9 4 @ & ",
"< w s.s.s.s.4.4.8 3Xa.2.2   7.@ & @ @ & @ @ % @ & @ & 4 < & & @ & @ & @ 4 0 9 q 4.w w w w w w w w w w w w w w w w w w w 8 4 @ & ",
"< s.;X3X5X3X5X5Xj.3Xa.! 2   8.3 & & & & & & & & & & & 4 3 2 & & & & & & @ 3 4 4 4 4 4 4 4 4 4 4 4 4 4 4 4 4 4 4 4 4 4 4 4 @ & & ",
"< s.3Xs.s.4.j.3X5X3Xa.! 2   6.s.s.s.s.8.4.4.2.q w 9 8 8 4 4 < < < & < & & @ & @ & @ & @ & @ & @ % @ @ @ @ @ @ @ @ @ @ @ @ @ & & ",
"< s.5Xs.s.s.j.s.4.3Xa.! <   7.5X3X5X3X5X5X5XuX;X3X;Xj.s.s.s.s.s.2.3 4 < & & & & & & & & & @ @ & @ & @ & @ & @ & @ & @ & & & 2 3 ",
"< s.5Xs.! s.w w s.3Xa.! 2   8.4.s.4.s.s.2.s.4.s.s.s.;X3X5X3X3Xj.2.& < 3 3 < < & & & @ & & & % & & & & & & & & & & & & & & 3 2 4 ",
"2 s.;Xs.s.s.4.s.4.3Xa.! 2   7.s.w 0 4.s.w 4.2.4.s.2.s.4.s.s.s.w 8 @ & 3 3 s.3X5X8.w 3 2 2 4 4 4 2 2 , 2 2 2 & 2 < & 2 2 3 4 4 4 ",
"2 s.;Xs.2.s.w w 7.3X8.q %   6.w s.q 4.w 8.2.s.4.s.4.s.2.s.s.8.8 4 @ & < < 5Xs.s.5X5X5X3Xj.4 4 3 j.5XqX3XqXuXiX3X3X;Xs.8.w 3 < 4 ",
"< s.2.8 5 8 5 8 5 4Xj.8.w 3 s.8 5 8 5 8 5 8 8 5 8 5 8 5 8 5 8 4 4 & @ & < 3Xj.s.j.s.j.j.j.5 4 w uX8.s.s.4.s.2.s.8.s.4.s.3X8.@ 4 ",
"< 4.8 & & & & & & a.8.8.6.4.8.& & & & & & & & & & & & & & & & & & & @ @ 3 j.s.j.j.8.5 8.2.8 2 j.s.4.s.! s.s.s.2.s.4.s.2.s.4 @ 4 ",
"< & @ @ @ @ @ @ @ @ @ @ @ @ @ @ @ @ @ @ @ @ @ @ @ @ @ @ @ @ @ @ @ @ @ @ 3 & 3 & 3 8 5 8 8 5 3 5X8.8.8.s.s.4.8.s.8.8.s.6.4.3 @ 4 ",
"4 3 & & & @ & @ @ & @ @ & @ @ & @ & @ @ & @ @ & @ @ & @ @ & @ @ & @ & @ & 3 4 & & @ @ @ @ @ & 4 4 4 4 4 4 4 4 3 4 4 4 4 3 4 @ 4 ",
"4 4 3 4 2 2 2 2 3 < 2 2 & & & & & & & & & & & & & & & & & & & & & & & & & 4 4 3 4 & & & & & & 3 4 @ @ @ @ @ @ @ @ @ @ @ @ @ @ 4 ",
"& & & & & & & & & & & & & & & & & & & & & & & & & & & & & & & & & & & & & & & & & & & & & & % & & & & & & & & & & & & & & & & & "
};
