/* XPM */
static char *result[] = {
/* columns rows colors chars-per-pixel */
"64 64 256 2 ",
"   c #010102",
".  c #0B0202",
"X  c #040B02",
"o  c #0C0A03",
"O  c #03020B",
"+  c #0A030B",
"@  c #030A0A",
"#  c #0C0A0C",
"$  c #130201",
"%  c #1A0201",
"&  c #120B03",
"*  c #170708",
"=  c #130C0B",
"-  c #081405",
";  c #181506",
":  c #020213",
">  c #0A0312",
",  c #070B17",
"<  c #0B0A13",
"1  c #04021B",
"2  c #0B031A",
"3  c #140817",
"4  c #0A1115",
"5  c #151B12",
"6  c #161915",
"7  c #270805",
"8  c #380502",
"9  c #231404",
"0  c #271807",
"q  c #38160D",
"w  c #25091A",
"e  c #281A15",
"r  c #122E0A",
"t  c #392802",
"y  c #2A2B1C",
"u  c #303312",
"i  c #0A0524",
"p  c #160827",
"a  c #15122F",
"s  c #2B1327",
"d  c #0D3C27",
"f  c #2C2A27",
"g  c #312A23",
"h  c #382B27",
"j  c #293223",
"k  c #56160B",
"l  c #6D0E07",
"z  c #781D08",
"x  c #482701",
"c  c #50320F",
"v  c #722B0B",
"b  c #511B2A",
"n  c #6D0E2F",
"m  c #50292F",
"M  c #732A2B",
"N  c #2B4C0E",
"B  c #155D21",
"V  c #2C522B",
"C  c #337737",
"Z  c #4F4A0D",
"A  c #584603",
"S  c #6D4B07",
"D  c #706806",
"F  c #524C2C",
"G  c #4D5A3C",
"H  c #54583C",
"J  c #704E30",
"K  c #65573A",
"L  c #645C3C",
"P  c #5A643C",
"I  c #4B7331",
"U  c #676638",
"Y  c #6C6A3C",
"T  c #726E30",
"R  c #736839",
"E  c #6C2846",
"W  c #613261",
"Q  c #255B49",
"!  c #584A40",
"~  c #4B5B45",
"^  c #5D5343",
"/  c #545C45",
"(  c #6A4945",
")  c #625846",
"_  c #586242",
"`  c #526A4B",
"'  c #706D4A",
"]  c #6F576F",
"[  c #91140C",
"{  c #95300F",
"}  c #AC3119",
"|  c #A81926",
" . c #8D3530",
".. c #AF3129",
"X. c #D11B1B",
"o. c #CC2E32",
"O. c #ED2A35",
"+. c #AB5A0B",
"@. c #AD5215",
"#. c #866E0F",
"$. c #8D4C25",
"%. c #AF4C33",
"&. c #AC7529",
"*. c #D24C11",
"=. c #D05A29",
"-. c #DE6222",
";. c #F36B30",
":. c #B3334C",
">. c #DC2446",
",. c #F6324D",
"<. c #8B5E5F",
"1. c #8D7649",
"2. c #B06F4D",
"3. c #8D6F67",
"4. c #F84E56",
"5. c #CE7556",
"6. c #F2754F",
"7. c #FD4A68",
"8. c #F36E6E",
"9. c #308B30",
"0. c #57930C",
"q. c #6E8B08",
"w. c #598A34",
"e. c #6C8C36",
"r. c #6BA829",
"t. c #43C139",
"y. c #348B4F",
"u. c #3A9C63",
"i. c #4E8F55",
"p. c #75904F",
"a. c #5EA062",
"s. c #70BA70",
"d. c #4CD363",
"f. c #6CC975",
"g. c #998D0F",
"h. c #9C9334",
"j. c #A69132",
"k. c #B8A42E",
"l. c #F28A36",
"z. c #D9A22D",
"x. c #CBB037",
"c. c #CBB83C",
"v. c #BDD51C",
"b. c #F7CB05",
"n. c #FDCD01",
"m. c #EBD108",
"M. c #F5D705",
"N. c #FED401",
"B. c #FEDB01",
"V. c #FDD40C",
"C. c #FEDB0B",
"Z. c #F9CC14",
"A. c #FCD414",
"S. c #FCDC14",
"D. c #F9D719",
"F. c #D9F51F",
"G. c #FEE202",
"H. c #FDE608",
"J. c #EAEB17",
"K. c #FDE517",
"L. c #D2CA2E",
"P. c #F9D927",
"I. c #EECF31",
"U. c #F8D835",
"Y. c #D4F731",
"T. c #FDE427",
"R. c #F9F32B",
"E. c #FCE737",
"W. c #FCF839",
"Q. c #948F4D",
"!. c #8B9C4E",
"~. c #8B9857",
"^. c #94965A",
"/. c #939A5C",
"(. c #AD9455",
"). c #8CA258",
"_. c #92A15B",
"`. c #BDA94C",
"'. c #B8A458",
"]. c #969568",
"[. c #AF8E70",
"{. c #94AE6F",
"}. c #B7BD77",
"|. c #DB9053",
" X c #FC8554",
".X c #F68E51",
"XX c #D7BB47",
"oX c #CAAF51",
"OX c #D7BA56",
"+X c #F9AF59",
"@X c #D5906F",
"#X c #EB9066",
"$X c #CFB36F",
"%X c #FDA669",
"&X c #FCB769",
"*X c #F2AD73",
"=X c #9BD962",
"-X c #ACC370",
";X c #D9C647",
":X c #D4C754",
">X c #F8DA47",
",X c #EACB53",
"<X c #FEDC57",
"1X c #CFFB4F",
"2X c #FDE648",
"3X c #FFF44A",
"4X c #FDE855",
"5X c #FFF558",
"6X c #D9C569",
"7X c #F2D46F",
"8X c #C7F676",
"9X c #FDEA64",
"0X c #FFF56A",
"qX c #FCE876",
"wX c #F6F474",
"eX c #593B87",
"rX c #7255A7",
"tX c #8A6C95",
"yX c #A3609D",
"uX c #A04CAE",
"iX c #B055B8",
"pX c #AF6DB9",
"aX c #9C56C7",
"sX c #DC7BD0",
"dX c #78B983",
"fX c #65CF8E",
"gX c #A49C9C",
"hX c #EFB98A",
"jX c #DAB4B1",
"kX c #E0A9A5",
"lX c #87C688",
"zX c #B7D29A",
"xX c #F4CF91",
"cX c #D7ED9E",
"vX c #D0F194",
"bX c #F9EC8F",
"nX c #FFF488",
"mX c #C8D2A2",
"MX c #FBDBAF",
"NX c #CEEDAA",
"BX c #DAEEA6",
"VX c #E9FBBB",
"CX c #F4F3B3",
"ZX c #EA8FD4",
"AX c #E9A0DF",
"SX c #F6B0ED",
"DX c #FBD7CC",
"FX c #D8EFC3",
"GX c #D8FBC5",
"HX c #E4F4C2",
"JX c #E9FDC2",
"KX c #F8FBC7",
"LX c #F6F8CF",
"PX c #D8C6F5",
"IX c #EFD2FF",
"UX c #FBECE1",
/* pixels */
"                                          : 1 1 : O   X X - , , , , @ @ O   O O   . . . .                                       ",
"                                        X + 2 : O O @ - X -   ;     ; o   # O > O + . . .                                       ",
"                                      X O + + O O : , @ X - t zX$XK * . . +   > > O                                             ",
"                                              O : , , 4 X & x xXbX'.1.u & ; + > , : O @ X X X O .                               ",
"                                        . X .   O 1 p < o t A ,X4XbXxXZ . $ # 3 4 , O   @   X .                                 ",
"                                      .         : i p 0   6X4XT.K.>X7XS 8 % + , , , O O O O O O O       O                       ",
"                                        X       2 2 * %   ,X5XD.K.T.>X+X$Xc 3 s , 1 @ O     O O   O   O   O   O                 ",
"                                        X   X O 3 > % R j.>XE.M.H.D.U.>X6Xc $ < i i :       X O O                               ",
"                                      . X   3 O 3 $ t oX9X2XK.m.H.B.V.U.L.#.c . 2 2 : O . X   O     O   O   O                   ",
"                                        X O O + % $ q XX2XK.H.G.G.C.B.S.P.9X7Xq . p : =   X O   O O                             ",
"                                        O + < + % (.,X4XT.C.G.G.K.C.C.C.K.W.;Xx . * 3 3   . O O O   O       O                   ",
"                                    .   X O   $ $ oX<XA.C.G.G.G.S.A.T.B.G.M.E.k.J   > > o   O X   O       O                     ",
"                                        X     y c `.>XS.N.B.N.B.A.Z.P.b.G.G.R.0X'.  6 + +     O O                               ",
"                                  O O ; &     Q.bX>XP.b.n.n.N.M.G.M.m.n.B.M.D.3Xk.  ; ; # @ # < O O     X                       ",
"                                O O + - ; X   h.9XP.S.N.n.Z.V.V.G.B.V.B.N.G.K.T.5XqXQ.9 g = 4 4 , O O                           ",
"                        X       O : + & ; Z h.>X3XS.B.N.N.Z.D.P.P.S.V.N.B.B.G.K.U.0X(.% 7 o # 4 1 : O             O             ",
"                              O : O * & 9 Q.9XE.V.M.B.B.N.N.V.A.P.A.B.M.B.B.B.b.P.>Xk.S x % = ; 2 : : O                         ",
"                        X     : : O * + x g.I.T.A.n.b.n.N.N.N.V.Z.D.C.G.B.B.B.N.T.Z.>XqX&.7 & & 3 > : O                         ",
"                            O O >   $ Z 6X,XU.U.U.P.P.D.S.K.S.T.P.P.I.P.P.D.Z.Z.D.U.P.>X>XoXF ; . > 3 : X                       ",
"                            O   6     #.qX2X3X>Xx.OXOXOX;X;XL.;X;X:X:X:X:XOXXXXX,Xz.I.E.3XwXT X % * > >                         ",
"                    O O   @ @ O o . Z k.2XW.2Xc.c $                           % 8 x c.3XT.4Xh.Z 9 . + + O O                     ",
"                    o + : : : O o u bX0XP.D.E.L.A & * 3 2 > * * $ o o X > 2 3 7 q x c.2XD.T.5XxXR $ + > .                       ",
"                    . + 2 i i 3 % t 9XE.T.T.P.3X,Xh.9 . O : , & o X X # O O     (.7XU.Z.P.R.Z.,XS w 3 >   X X X : O O O O       ",
"                .     > 2 i 3 m 1.j.4XE.S.D.T.P.2Xc.X & o > 3 + $ ; = # + 3 &   OX<XU.P.n.S.A.<XoX1.h . + + O @ O O   O   O     ",
"          X   X O O , i i 3 = F 6X9XP.b.n.n.b.A.E.L.A Z ; 6 3 2 3 < + # + & c c ,X>XZ.b.b.Z.A.E.4X9XA . i i i 1   @ O   O O     ",
"              @ o O : i 2 =   A ;X3Xb.H.n.N.m.B.M.3X9X`.t * 2 p 2 a > O = $ _.nX9XD.K.m.n.Z.D.K.T.U.A   p a p 1     O O         ",
"          . .     O i , + % '.,XU.V.N.N.N.n.N.N.G.K.Y.oX& . 3 2 a > 6 = .   j.0XP.K.N.N.n.Z.Z.B.G.H.>X'.% p p 1 X   O     O O   ",
"                  O , # ; t 6X2XD.B.B.N.N.n.n.N.B.H.T.;X`.K 3 6 a p 6 ; K '.,XU.S.B.N.n.n.A.A.B.G.H.E.6X* 3 3 X - X   O     O   ",
"                    o . c D ,XW.H.G.B.N.A.A.Z.n.N.B.K.2XwX(.  = O , o o Q.nX4XA.B.B.N.n.Z.V.V.B.G.B.P.>XS Z *   #     O O   O   ",
"                  o $ 0 $XbX3XM.G.G.B.V.D.P.Z.n.N.B.K.T.5X(.  o 6 6 X   Q.7XE.S.B.N.n.n.Z.A.B.C.C.C.P.2XnX6X0 o     O     O O   ",
"        # #   O O $ % 7 oX4XD.K.G.B.M.S.D.A.N.n.n.n.N.T.P.0XbXK .   T qX5XR.K.M.A.A.V.N.N.N.D.A.V.C.M.D.2X;Xt $ 3 > O O O     O ",
"        o = o   . * J j.,XT.K.B.B.N.B.S.S.C.N.N.n.N.N.C.J.3X0XT 9 $ #.0XW.G.H.K.D.P.Z.N.N.V.S.C.V.C.B.M.E.>X`.1.  + O O O O >   ",
"O       X   # & o 9 oXwXE.M.H.N.M.n.B.H.H.G.B.N.N.N.B.B.K.S.U.g.D S g.P.K.H.H.H.K.S.V.n.N.N.G.B.B.N.B.B.S.P.qX'.  . > 3 4 6 <   ",
"O O O   O o ; .   t k.>XE.K.K.N.B.B.B.G.G.G.B.M.M.V.B.M.K.B.R.E.2X2X>XP.V.G.H.G.V.A.V.N.N.B.M.B.B.B.B.B.m.E.9Xx.8 $ 4 , < : O O ",
"O O O O + . o   ' CX9X4X2XT.T.T.D.S.H.M.G.M.G.m.D.I.m.I.T.T.E.U.2X<X<XU.P.D.K.K.D.m.K.M.B.M.J.H.D.T.E.E.E.2X0XqXxX].a   < < # O ",
"O O O O O # & ; ' gX6XOXXXXXc.XXc.;XL.L.R.J.R.R.L.L.c.;X;Xc.OX7XbXxX7XOX,Xx.L.x.L.L.R.Y.R.W.v.L.c.c.XXXXXXOX:X$X$X' a @ # O O   ",
"  O O : > 3 o o ;                   0 q.Y.Y.F.v.q.N   9 V ' 3.kXjXjXjX] ( ) F X Z q.L.Y.F.1Xq.; X                 = < + > O #   ",
"    O : : > # & o     O O O O > + & r h.vX5XY.1XvX-X~ gXPXIXIXIXSXAXPXPXIXPXgXX =XcX1X1X1X8Xp.N 5 @ i > +       o O : : < < <   ",
"    O O O O # # o 6 : : 1 1 i i i 4 r N w.0.r.0.p.lXgXrXeXrXaXuXrXaXaXrXuXeXtXgXgX` r.0.0.w.V d - 1 i i 1 :       < # X . O     ",
"    O   @ O @ O O O . O O : 1 : , @ j B i.C i.Q V rXgXpXpXpXuXiXiXaXpXaXuXyXpXsXtXQ C 9.I I B r r   O O + + O   X               ",
"O O O O O O O O O O o . X @ O O   X r N f.f.lXa.j m ] pXZXAXZXZXsXsXsXSXSXSXsX] W d u.fXf.s.V r 5   > 2 > : O O         X O     ",
"O O O O : O O : :   o .   X   o $ X r N s.lXlXp.h gXDXyXE n n n n | n :.n b 5.AXrXd u.fXfXs.V r -   O : : : : : @ O   O O       ",
"    O O   O O   @ O   O   X   X $   ; r C C dXi.j F <.jXUX[.k 2.@X8.yXk gXUXjX3.m d u.fXy.B r X X X @ O : : : : : O X     @     ",
"5 5 5 5 5 5 5 5 5 6 6 6 5 5 6 e e e 5 r Q C fXu.u K [.DXKXxX% @X&X*X|.c {.LXDX@XK V a.fXy.r N r - 5 5 5 # # , , , 5 5 5 5 5 5 6 ",
"_ ^ _ _ _ _ _ _ / / / ~ ~ ` ` ^ ! ! F G d B d.t.N Q.hXMXCXxX#.oX.X|.+Xh.lXKXMXhX2.Z p.=XC r F G I P G _ ` ~ / / _ ~ G / _ ~ P _ ",
"HXVXHXVXHXHXHXHXHXHXFXGXGXGXHXLXHXDXFXzXN 9.d.f.}.hXhXhXMXCXbX*Xl..X&XbXCXCXxX*XoXoX-Xs.y.I zXLXHXHXVXFXNXGXGXHXHXJXHXJXHXHXHXFX",
"VXKXVXKXKXKXVXJXJXVXJXGXGXGXVXVXCXKXCXBXN 9.t.r.D &.#X#X*XxX&X.X.X X.X&XxXxXhX#X&.D r.s.C C mXLXJXVXVXVXVXVXVXVXVXVXVXJXJXVXJXJX",
"BXBXBXBXBXBXBXBXBXNXNXNXNXNXBXBXBXBXcX-Xe.9.u.a.U h.2.#X%X%X%X X;.;.-..X%X&XxX!.e.w.e.w.I e.{.NXNXzXNXNXvXNXvXvXvXcXcXcXcXcXcXcX",
"!.~.!.~./.).).~.).).).).).)._._./.!.Q.Q./.~.N I {.w.Z '.&X&X.X;.*.*.*. X+XxX$Xx w.{.9.N ' {.].~.p.p.p.).~.).!.!.!.!.!.!.!.!.!.!.",
"/./././.^./.^././.^.^.^.~.~././.^./.~.^.~.1.c Y {.w.r A { -.6.6. X X6.6.6.{ l x R {.I N i.p.].[.].].].].^.^.^.^.(.^.^.^././._.~.",
"Y Y Y Y Y Y Y Y Y Y Y ' Y Y ' ' p.' Y Y Y ' L U Z ' $.{ | X.X.} } } ..o.o.....%.J Z F P P ' ' ' ' P ' ' U U U R T U T T U T U Y ",
"L K H ) L ) L ) L L L L L K U H U P G _ ` _ ) ( M  .o.O.O.>.X.X.:...| X.O.,.O.o.| v K G ' _ ^ ^ _ P G P _ P U L L L H L K P L L ",
"^ ^ ^ ) ^ ^ ) ^ ^ ) K ) K L ^ H H / F G / ^ ( M  .| >.4.7.,.>.>.,.>.>.>.O.,.,.O.[ z ( ( ^ / ! ~ / ~ ~ G ~ G / H H H ) H H K ^ ^ ",
"g g g h h f g g g g y y y y y y y y j j j b k l l | o.4.8.7.7.7.7.7.7.,.4.4.,.*.| l 8 m m g y y y y j j d j j f h g g g g g g y ",
"+ = # = > + = > + + - o o - - o X X - - - 9 x 2.hX5.| X.O.O.O.4.8.8.4.O.O.,.O.[ 8.MX[.g = 6 9 = o o o X X + o . $ . o # # o + & ",
"    O                               o 6 s b  .1.hX8.6.6.6.O.X..X#X%X.X*.*..X6..X*XkX2.M m q w * o     O . . . . .               ",
"  . .     O   . .   O O . $ . .   . . w E E :.:...#X%X%X&Xl.+.+X+X<X,X-.z.+X+X%X6.} }  .M b s 7 O   < O + . O           X   X   ",
"  O + O . .   O   O   . + + : O   = 7 8 M [ [ [ z { @.+.+.+X7X7X&X+X&X+X+X=.+.@.{ l l z z v 8 7 & X O O + + O     X O   O   X   ",
". O +   O O   . + .     O : 1 : O . 7 $.#X#X=.{ z { { v l @.-.-.;.;.*.-.@.z l v z { @.=.#X@XJ 7 $   O + O + O O @ @ O O O O     ",
"O O +   O + O O O     . O 1 1 1 O $ x %.;.-.;.=.{ v c c q M  .} [ [ { { M b c M M ..=.;.;.#XJ q 9 .     O > O O : O O O   O   O ",
"  O . O X + + + O . X . O : : :   $ x $.5. X6.4.%. .m s w g b b k n b m s w s b  .%.-.;.;.|.J t ; -   . + O O O O   . O O + #   ",
".   .                   O O O O X & 0 x v z [ l b b b a i 2 2 * 7 w p p > > e b b l z { [ v c 0 ;   X   + . . O               . ",
".       . . .   . X X   $ $ $ .     o ; 9 8 k 8 q w > : , @ O * * 3 3 + O   # * 7 7 7 e e ; 9 ; X X X   . . $ o     .     .     ",
"- ; 0 9 ; 9 ; 9 9 ; 5 ; 7 0 8 7 0 ; ; 5 y e w 0 q 0 ; y 0 e e e e 7 q 0 0 0 0 7 s s a a a 6 0 0 ; e ; ; 9 q 7 7 9 0 0 9 9 ; 9 ; "
};
