/* XPM */
static char *_b5a7bde990148f683ec6d13e7fbeda3[] = {
/* columns rows colors chars-per-pixel */
"64 64 246 2 ",
"   c #1F1F1F",
".  c #321C0B",
"X  c #291D19",
"o  c #2F2114",
"O  c #37271A",
"+  c #32261C",
"@  c #231930",
"#  c #2C2828",
"$  c #352B23",
"%  c #322A27",
"&  c #382A22",
"*  c #3A3229",
"=  c #3D322B",
"-  c #3A3534",
";  c #393635",
":  c #3B3B3B",
">  c #4B190D",
",  c #512E0F",
"<  c #462C16",
"1  c #49331C",
"2  c #533512",
"3  c #5D3B15",
"4  c #593818",
"5  c #633B13",
"6  c #643814",
"7  c #623D19",
"8  c #423224",
"9  c #47332A",
"0  c #46362A",
"q  c #523623",
"w  c #5A3C25",
"e  c #443834",
"r  c #423B3A",
"t  c #75410D",
"y  c #68411A",
"u  c #77471A",
"i  c #73441D",
"p  c #7D4B1E",
"a  c #56422F",
"s  c #58473B",
"d  c #68452A",
"f  c #754925",
"g  c #7C4C23",
"h  c #735031",
"j  c #78573A",
"k  c #06024C",
"l  c #36294D",
"z  c #110873",
"x  c #2B1B69",
"c  c #453849",
"v  c #3F4043",
"b  c #474747",
"n  c #4C4443",
"m  c #4D4D4D",
"M  c #564E4A",
"N  c #555555",
"B  c #5B5753",
"V  c #5F5F5F",
"C  c #635C58",
"Z  c #7C6149",
"A  c #666666",
"S  c #696665",
"D  c #6C6B6B",
"F  c #74706D",
"G  c #737373",
"H  c #787574",
"J  c #7B7B7B",
"K  c #9C0E0C",
"L  c #A21712",
"P  c #9D281B",
"I  c #974D0B",
"U  c #9C510B",
"Y  c #894A11",
"T  c #8C4D14",
"R  c #854C19",
"E  c #974F14",
"W  c #965217",
"Q  c #A34E04",
"!  c #A94E02",
"~  c #AD5303",
"^  c #A55309",
"/  c #B35403",
"(  c #BC5602",
")  c #BA5B0A",
"_  c #A85815",
"`  c #B45D14",
"'  c #BA6314",
"]  c #834E23",
"[  c #8A4F24",
"{  c #8B5124",
"}  c #885329",
"|  c #955829",
" . c #9A5C2B",
".. c #885A37",
"X. c #935C34",
"o. c #9A5F34",
"O. c #A65D26",
"+. c #9C602D",
"@. c #9C6235",
"#. c #A5612E",
"$. c #AB632E",
"%. c #A46232",
"&. c #AB6432",
"*. c #AD6935",
"=. c #A9693A",
"-. c #B36A35",
";. c #B76B38",
":. c #AE723B",
">. c #B8713B",
",. c #BB733C",
"<. c #C45B04",
"1. c #C05E13",
"2. c #CC6204",
"3. c #C7620A",
"4. c #D26201",
"5. c #DD6C04",
"6. c #DA6A09",
"7. c #C46615",
"8. c #D66F18",
"9. c #D57018",
"0. c #E36D03",
"q. c #E46E07",
"w. c #E87306",
"e. c #F47A04",
"r. c #F67B05",
"t. c #C36F3E",
"y. c #C3783E",
"u. c #885F43",
"i. c #996B4A",
"p. c #846A54",
"a. c #A97145",
"s. c #AD754A",
"d. c #B47441",
"f. c #BD7A43",
"g. c #B87848",
"h. c #8B786C",
"j. c #B27D72",
"k. c #C66942",
"l. c #C47B42",
"z. c #C77C47",
"x. c #CC7E44",
"c. c #F7840B",
"v. c #FB8A10",
"b. c #BB8354",
"n. c #A48373",
"m. c #CD8144",
"M. c #C5824D",
"N. c #CC834B",
"B. c #D38345",
"V. c #D7874A",
"C. c #DB8B4C",
"Z. c #CB8956",
"A. c #D48C55",
"S. c #DA8D52",
"D. c #D89157",
"F. c #DB945B",
"G. c #E38E4E",
"H. c #E5914E",
"J. c #E39453",
"K. c #E89857",
"L. c #EC9C5C",
"P. c #F59E58",
"I. c #F6A15A",
"U. c #F9A25A",
"Y. c #CA9469",
"T. c #CE966B",
"R. c #DB9A68",
"E. c #E59C63",
"W. c #E19E71",
"Q. c #DDA172",
"!. c #E9A268",
"~. c #EDA56C",
"^. c #F5A766",
"/. c #F9A763",
"(. c #F9A965",
"). c #F5AA6C",
"_. c #F9AA6B",
"`. c #EBA976",
"'. c #F3AC73",
"]. c #F8AE72",
"[. c #F1AE7B",
"{. c #EFB17D",
"}. c #F6B175",
"|. c #FBB375",
" X c #F4B27B",
".X c #FAB47B",
"XX c #F9B97E",
"oX c #100390",
"OX c #23158F",
"+X c #351DB4",
"@X c #6E6697",
"#X c #1603D4",
"$X c #877890",
"%X c #838383",
"&X c #898786",
"*X c #8F8F8F",
"=X c #968C88",
"-X c #999495",
";X c #9B9B9B",
":X c #AF9B97",
">X c #A5A5A5",
",X c #ABABAB",
"<X c #B7AEA7",
"1X c #B7B7B7",
"2X c gray72",
"3X c #D2AE91",
"4X c #F1AB8B",
"5X c #EBB183",
"6X c #F4B583",
"7X c #FAB682",
"8X c #F6BA85",
"9X c #FABA85",
"0X c #F2B68A",
"qX c #FBB789",
"wX c #F5BB8C",
"eX c #FABC8B",
"rX c #EDAF92",
"tX c #F5BE93",
"yX c #F9BF92",
"uX c #C9ACA1",
"iX c #FAC08F",
"pX c #FBC395",
"aX c #F6C49B",
"sX c #F8C498",
"dX c #FBC59C",
"fX c #D4C2AF",
"gX c #FAC6A1",
"hX c #F4CAA5",
"jX c #F9CAA4",
"kX c #F7CBA9",
"lX c #FDD1A4",
"zX c #FBD1AE",
"xX c #EDCAB0",
"cX c #FCD4B4",
"vX c #F6D5B8",
"bX c #FAD5BA",
"nX c #FCD9BD",
"mX c #AFA3C6",
"MX c #C6C6C6",
"NX c #CECECE",
"BX c #D3D3D3",
"VX c #DFDFDF",
"CX c #FADBC3",
"ZX c #FCE2C9",
"AX c #FCE7D6",
"SX c gray89",
/* pixels */
"  :   : # :   :   :   :   :   :   :   :   :   :   ;   :   :   :   :   :   :   :   l   :   :   :   :   :   :   :   :   v   :   : ",
"N N B m N m N m N m m BXVXVXVXBXVXBXVXVXVXBXVXBXVXVXVX  : %X,X1XMXMXNXNXMXMX,XMX>Xh.N   b b b b b b b b b s N m N m N m N N N m ",
"N N N N N N N N N N m VXBX2XA N A C C B C N M B B M s $ e r n n a n e e r e r e e e e e = = = 0 : &X*X*X@XF A b b b m b b b m b ",
"*X*X%X*X*X*X%X*X  N m VXMXMXB q q q q q q q q 1 q q q 0 q q q q 0 q q q q q q q q q 1 q 1 1 1 1 C VXBXVX2X1X,X*X%X*X*X*X%X*X*X*X",
"BXBXBXBX1X,X*X%X  B b BX&XD u.E _ 7.' ` _ ' ' 7.' 7.9.9.7.7.7.8.8.8.8.8.8.8.8.8.9.8.8.9.9.' ` E [ C A 1XVXVXVXBXVXBXNXBXBXBXMXBX",
",X,X,X,X;X,XJ G   B b SX9 < P Q / 2.3.( ( 3.2.2.2.4.q.5.4.<.6.5.5.0.5.0.0.0.0.0.0.0.0.0.4.2.( Q U 1 9 h.>X>X;X*X*X,X*X,X%X,X*X;X",
"2X;X;X;X,X*XJ D   m - &X] W U ~ / ( ( 2.2.<.<.<.4.4.4.4.4.4.4.4.4.4.4.4.4.5.0.w.e.e.0.0.0.5.6.3.3.E W M - G *X,X%X*X;X*X,X;X*X;X",
"1X,X%X2X%X;XV N   : * O U Q ~ ~ / / ( 2.2.( / 3.2.2.2.2.2.2.2.4.2.2.4.<.4.5.0.w.e.e.w.0.0.0.4.2.2.! Q 7 9 H J *X,X%X,X,X*XJ ,X;X",
";X,X,X*X;XG b b * & 4 3 _ ~ ~ ~ / ~ / / / / ~ ~ / / ~ / / / / / ( ( ( ( ( <.4.5.0.w.e.e.c.c.c.e.w.2.7.R f s D A >X*X*XJ ,X,XG *X",
"*X*X%X*XG B b l * q 5 5 ^ / ~ / ~ / / ~ ~ ~ ~ ~ ~ ~ ~ ~ ~ / / ~ ~ ) / ) / 3.2.6.0.0.e.e.c.v.c.e.e.4.2.T g 7 = : &X,X*X,X,X%X,X*X",
"G D G G m m : ; * 2 I I ~ / / ~ ~ Q U t u R T T T Y Y Y ^ / U T T T T E E W U ` 4.4.e.e.c.v.c.w.q.5.6._ | d 0 : A A V V A V D V ",
"N B b b b       $ 4 Q Q / ~ / ~ ~ ^ U 3 3 u g f f u p u W ~ E g p g p { { { } W 4.4.e.e.c.v.r.q.0.0.q._ | h 0 : m b m b m b b m ",
"          :   ; + 6 U Q ~ / ! ! I t t u f y 3 3 3 3 g g R T E U W y y d i u g W / / q.0.e.e.w.1.) _ U ` ' { 0 : : : :   :   :   ",
"  :   :     : X & 6 Q Q ~ ~ ~ U Y 3 5 g g y 2 3 2 3 g g g p U ~ Q y 3 3 7 u p T Q ! q.0.w.r.6./ ^ R g ' 3.W a -                 ",
": : : : : : : - & 3 Q Q ~ ! I Y R  .| f.b.,.f.:.,.:.:.+. . .| R ] y y , 1 3 y t R I 6.0.6.2.1.O.#.p p ^ / R 0 : : : : : : : : : ",
"N m : : : : : - + 6 U U Q U T p { *.*.S.C.C.C.C.C.C.,.,.&.&.{ R u y y , < 2 y y ] R 8.0.) ~ _ =.$.p R U ^ u 0 : b b b b b b b v ",
";X;X*X;X*X;X*X*X$ 2 u Y _ O.| | d.D.D.~.'.`.~.!.L.L.J.J.z.l.y.d.d.=.a.} } } { | | | 6.4.V.D.A.l.b.W | W T i 0 : ;X;X;X*X;X;X;X;X",
"BXMXBXBXMXBX1X;X+ * 3 5 @.O.%.%.z.(._.9XeXeXeX.X_.(.(.(.G.C.C.C.C.y.x.-.=.$.#.#.O.$.3.2.L.|.~.C.V.$.%.} g d : s VXNXVXVXVXBXVXBX",
",X;X*X,X*X,X,XV + 1 3 5 %.%.;.;.N.K.E._.}..X}.}.].}.7X9X[.`.`.E.L.C.C.y.l.:.$.*.V.V.' <.L.|.}.`.`.:.:.g y 7 * r >X1X1X1X,X1X2X2X",
",X*X;X*X,X%X*XV $ 1 3 5 @.%.l.x.B.C.G.U.U./.(._..X7XdXdXgXgXeX.X_.G.J.C.C.,.$.y.I.P./ ~ !.XXpXdXiX>.,.g y 1 $ ; >X*X,X*X;X%X;X;X",
",X*X*X,X%X,X,XV $ < 3 5 %.&.Z.K.K.K.K.^.(.].].7XeXeXdXdXdXdXsXeX7XE.P.J.G.y.,.B.P.P.B.V.`.wXpXdXsXf.m.g 3 q $ - %X;X*X;XG %X*X%X",
",X*X,X*X,X%X*XA # 1 w 3 %.%.R..X].(.).}.|.9XeXyXdXsXdXdXgXdXgXdXyXXX|.K.H.V.B.C.U.U.|.6XpXgXaXsXpXC.S.} 7 1 $ - ,X*X,X*X;X%X;X;X",
"*X,XG J *X*X,XV $ < 4 , =.&.K.).R.Y.Y.Y.Y.Q.`.5XpXpXkXzXjXdXdXdXsXqX7XK.H.B.m.C./.).7X8XhXvXhXiX8XC.C.} 3 1 * * *X;X%X;XJ J *X*X",
"*X%X%XJ *X,X%XV $ < < , d.d.y.C.s.8 0 % $ } o.Z.|.0XbXnXkXpXdXgXgXgXaXF.C.B.m.S.|.|.dXdXZXAXvX.X}.V.C.} 3 1 * - >X%X,X*XJ J *X*X",
"*X*X,X,X%XJ D M d w < , d.,.g.M.i.w 0 * < h ..g.~.`.hXxXhXsXdXpXpXyXyXK.G.C.x.S.`.W.3X3XfXfXxXwXiXC.J.} 3 2 $ ; *X;X*X%X,X*X,X*X",
";X,X%X*X,XB $ ..:.o., , :.,.u.B h f u 4 1 8 O h %.-.L.J. XeXwXeX7X7X].P.P.K.G.x.&.%.q 0 0 e =XCXzXS.C.h < * $ % m N A D D J *X%X",
"A V D V A : $ ..,.@.< < g.,.@.j j h j * 8 & % d X.@.Z.A.`.4X[.[.[.'.~.R.F.Z.z.g.X.u.c l c a =XfXfXF.K.h , 1 d a b b b b b N N N ",
"N m b : : - $ a.C.g.. . Z.C.m.b.n.n.h.k k @ X # X X X X @.&.=.&.-.&.=.< X X X X $ l oXoX@XF Z s h XXXXj . ..M.b.$ #       : : b ",
"          # $ a.V.f.< , Z.C.B.y.b.n.&Xk z x OXl r e > >  .&.;.,.;.-.d., > 9 c c l l oXoX@Xn.p.h j {.{.j o X.B.f.O $ # :         ",
"b A A D *XA + X.,.-.X.| C.C.C.C.Y.,XmXz oX#X#X@X:XuXK K k.l.C.L.G.$.;.P K j.<X;XoXoX#X#XmXfXuXA.D.C.S.f o a.^.F.$ # b N N v : : ",
"A *X1XVXBX*XO @.,.;.#.O.C.C.C.C.T.<X<Xx x +X+X$XuX3XL P t.l.S.E.F.;.;.P P j.uX-Xx OX+X+XmX2X3XS.C.C.S.f . a.^.F.O $ v b b b b N ",
"D ,XBXMXMXG $ a.C.H.U.I.C.C.'.qXiX5X9X6X4XrXrX4X5X6X0XqX7X.XpXcXgX_._.yXsXqX4X4X4XrXrXrX0X5X8XXXiXC.C.:.X.*.f.:.$ $ 1XVXVX*X: N ",
"A VX1X,X,XN O a.C.H.P.I.H.C.'.eXwX7XXX`.~.).'.}..X9XeXqX.X|.dXbXkX'.'.dXgXyX.X.X'.'.'.`. X XXXwX8XC.C.*. .*.l.d.& % &X*X%X%X: m ",
"A BX1X;X%XD $ d.V.H.U.U./.~.aXcXvXzXvXZXAXAXAXCXcXlXeXqX].).pXnXbXyXyXdXgXpXdXgXzXvXZXAXAXAXZXcXlX~.).XX8X`.C.M.+ $ A ,X*XV : m ",
"A SX,X*X,XB & s.C.H.U.U./.^.aXvXvXnXCXAXAXAXAXZXvXzXtXqX].(.aXnXCXgXgXgXdXdXdXjXcXCXAXAXAXAXAXvXzX).(.7XeX`.V.N.+ $ &X=X,XV : b ",
"A VX,X,X*XB & g.U.H.y.m.^.(.iXgXzXnXvXnXvXzXkXgXaXsXZ.V.'..XdXvXcXyXgX~.L.0XgXgXhXhXnXnXnXvXvXgXpX)./.K.G.K.^.R.O $ G ,X;XN : b ",
"A BX1X*X,XG m M.U.K.m.,.).).pXdXjXcXcXbXbXjXgXdXdXpXN.N.].XXdXnXcXdXpX~.L.7XyXdXjXaXcXbXbXcXzXdXpX).).J.C.K._.W.# # G n.,XN l : ",
"A SX1X,X;X*X,Xh.,.-. .W m.N.!.7XtXgXjXhXhXdXdX8X!.L.-.-.=.&.a.i.a.a.a.=.;.R.'.6XaXgXdXjXjXgXpX7X Xm.m.%. .=.s.a.b N m N N N : : ",
"A VX,X*X,X,Xn.h.:.%.{ { ,.y.!..X9XdXdXdXdXdXdX|.K.K.-.*.| | | | | | | o.%.D._.}.gXgXdXdXdXdXyX|.}.y.y.+.{ +.=.i.              : ",
"A BX1X*X%X;X>XC a d { R E.!.K.J.L. X.XdXsXaXiXXXU.U.J.H.H.J.V.l.z.E.E.`.`.[.}.7XdXdXdXdX7X}.~.J.K.K.L.%.T f a w : : : : : : : : ",
"A SX2X,X,X&X;XA $ q } W ^.^.K.C.K.^.).dXdXeXqX.X).(.P.P.P.P.G.B.C.(.).7XiXXX.X8XpXdXdXpX X(.L.V.C.I.I.*.{ d # m J J J J J G : m ",
"A VX,X*X*X,X%XD $ w } [ [.].I.L.^.XX7XdXgX7X].}.].|..X.X.X7X'.4X[..X7XpXpX9X.X}..X6XdXdXsXeX].P.P.(.I.=.{ d * A MX2XMX2XMXJ : N ",
"A MX2X,X,X*X,XA = 3 [ [ [..X/.I.^.eXeXdXdX.X_.].7X7XqXyXeXwXqXwXeXwXeXdXsXpX|.|.).].pXdXgXpX9XP.I.(.}.:.} d 8 n.BXVXBXBX*XA   m ",
"A BX2X*X,X*X,XH = 9 w w  X.X/.U.].8XeXdXdXR.S.Z.b.g.Z.Z.E.E.E.E.E.K.E.Y.T.b.b.b.C.D.dXdXgXdX9X/./.}.XX..4 a * F 2X2XMX2XJ N   m ",
"A 2X2X,X*X,X%XD 8 = & + 5X|._./.].wXyXdXdXY.t.=.} { =.&.x.B.B.B.x.C.x.*.&.| { +.f.f.pXdXdXgXyX(.(.XXXXZ % * : A %X,X*X,XD N v : ",
"m MX%X*X,X%XG D V - $ O  X.X.X]. XpXdXdXdX~.G.R.T.T.W.R.`.{.5XrXrXrXrX3XQ.D.N.Z.R.!.dXdXdXdXyXqXXXXXXXZ + D ,X*X,X,X;X*XD N   : ",
"b 2X,X,X;X*XN N N # % + 5X.X.X|.eXdXdXdXpX].P.].eXeXeXtXaXaXzXCXCXCXvXhXaX}.I./.|. XdXdXdXgXpXyXiXwXiXZ o *X*X,X%X,X*X,XD N : : ",
"b J J J N N N N N % $ O R.^.}.XXeXdXgXdXdX9X X.X7X7X.X X X5X6XtXaXaXaXpXaX8X}.XXiXpXdXdXdXdXdXqX8XiXiXZ   G G *XJ ;X*X*XG N   : ",
"b : X     N N N N # + o A.C.~.}.eXdXdXdXdXgXdXeX.X}._./.L.P.K.K.L._./.|.XXiXaXaXaXaXdXdXdXdXpX|. X8XpXZ X &X*Xn.,X*XG %XD N   l ",
"N N N b :         ; + O g.z.E.^. XpXdXgXgXkXzXkXhXgXwXwX X'.'.}.[. XXXwXiXaXzXzXvXvXgXdXpXeX9X}.}.iXaXZ # >X*X@X*X*X%XJ D N o : ",
"b m b b b m b :   # + o o.#.x.S.E.pXyXdXgXzXbXCXAXAXvXbXjXdXdXdXdXdXdXgXaXzXvXCXAXAXhXdX8X.X}.).}.sXhXZ ; *X,X%X*X*X*X;XD N   : ",
"b J ,X,X,X,X*X*XA : % o o.#.f.z.D.4X6XyXtXjXzXbXCXCXcXcXsXiX8X6X8XiXpXpXsXjXzXbXCXZXtXiX}.).(.U.).aXzXZ a J J J J J J J D m   : ",
"b ,XMXBXVXBXVXVX1XD $ o X. .o.$.d.G.C./.).yXgXaXdXgXgXsX8X.XL.S.K..X6XpXaXaXgXaXaXdX).(.I.K.P.U.I.pXjXp.e N N N N N N N N   : : ",
"b ,XBX,X,X*X1XBXVX*X+ + X. .o.X.:.m.x.L.L. XwXwX0X0XwX0X'.`.F.B.A.~.~.6XwX8XwX0XwXwX!.L.S.C.K.).}.dXjXp.+ #                 : v ",
"b ,XSX,X,X,X2X,X*XF + o X. .[ i { %.%.l.l.V.C.C.C.C.C.C.m.m.,.*.;.m.m.C.C.C.C.C.C.C.y.b.*.&.Y.dXdXdXjXp.+ :   :   :   : : : b b ",
"b ,XVX,X%X,XJ J ,XA $ + X.| ] i } +. .:.a.g.M.M.M.M.M.M.f.g.*.@.=.f.,.M.N.N.N.B.B.B.,.,.-.&.Y.aXdXdXhXp.* : : : : : : : v b m N ",
"b ,XMX,X,X,X*X,X*XV 9 8 X. .g 7 u i f , , 2 2 2 2 2 2 2 2 2 6 7 y i 7 ] ] p R ]  . . .| ,.z.Q.dXsXaXhXn.: b : b v v b b m N N N ",
"b ,XMX,Xn.<X@XJ ;XH 8 & X.X.g 7 7 g f 6 3 5 3 3 4 7 6 7 6 7 i 7 u p R ] ] [ [ [ %.%.a.a.M.A.R.tXiXiXsXZ <XVXSXBXBXMX,X;XJ m b N ",
"b ,X%XA V A V A V n 9 8 X. .g 7 i [ ] R p g g ] [ [ %.O.%.%.%.%.#.O.%.%.#.&.&.d.x.x.sXaXdXdX5Xx.b.^.}...J ,X%X,X;X,X*X,XBX;X  N ",
"b *XA : : : : : : - 9 8 ..X.g 7 f ] } g p p ] ] [ | &.$.&.%.&.&.&.&.&.%.$.$.-.d.x.Z.sXaXdXdX5XN.N.(.^.Z *X,X,X%X,X*X,X%X,XN   N ",
"b :               % e q p ] i y 7 ] R [ [ o.%.%.%.&.A.C.l.t.t.x.B.x.x.x.x.;.;.M.|.XXpXaXdXdXsXsXiXb.m.h ;X*X;X,X;X;X,X*X*XN   N ",
"N m : : :   :     - 0 0 f g i y f g ] [ { O.%.%.O.-.S.C.t.d.l.x.x.x.x.x.x.t.*.Z.|..XiXiXdXdXsXsXiXm.m.h m N N m N N N N m N   N ",
"N N m N b b b m m r e 0 f g p g ] } { %.%.l.N.V.S.S..X].J.C.`.dXdXpXyX'.).S.x.x.V.D.zXcXXX].}.).!.*.*.d                       N ",
": : : : : : : : : - 0 q h g g g ] [ [ %.%.l.x.V.C.S.7X7XF.C.5XgXgXjXyX4X_.F.x.V.A.D.zXzXiX_.).).~.*.@.d : : : : : : : : : : : : "
};
