/* XPM */
static char *b1f561b9021b4d29c2e9079b2c70e564[] = {
/* columns rows colors chars-per-pixel */
"64 64 135 2 ",
"   c #1E120D",
".  c gray12",
"X  c #290202",
"o  c #290C0D",
"O  c #221715",
"+  c #291A17",
"@  c #2C131A",
"#  c #251C1C",
"$  c #281D1B",
"%  c #29201E",
"&  c #291E23",
"*  c #321122",
"=  c #2C1C36",
"-  c #292121",
";  c #23232E",
":  c #2C272B",
">  c #2D292D",
",  c #31232E",
"<  c #2E2C34",
"1  c #2B2C3E",
"2  c #312731",
"3  c #302E35",
"4  c #303037",
"5  c #3D3535",
"6  c #313139",
"7  c #3A3539",
"8  c #3B3B3B",
"9  c #423939",
"0  c #2B2E45",
"q  c #2D324C",
"w  c #313546",
"e  c #2D3553",
"r  c #313954",
"t  c #313967",
"y  c #313E69",
"u  c #2D406A",
"i  c #31416B",
"p  c #39436E",
"a  c #3D4574",
"s  c #384A73",
"d  c #3C4D79",
"f  c gray28",
"g  c #4D4D4D",
"h  c #53474C",
"j  c #524A4A",
"k  c #5A4A4F",
"l  c #594D52",
"z  c #555555",
"x  c #595151",
"c  c #5A565E",
"v  c #5F5F5F",
"b  c #635A5A",
"n  c #40507D",
"m  c #676767",
"M  c gray42",
"N  c #72636A",
"B  c #716A6A",
"V  c #7B6B73",
"C  c gray45",
"Z  c #7B7474",
"A  c #7B7B7B",
"S  c #807177",
"D  c #817979",
"F  c #455683",
"G  c #475887",
"H  c #4B5B86",
"J  c #535E92",
"K  c #4C6188",
"L  c #526394",
"P  c #576999",
"I  c #5A6D9C",
"U  c #5C709E",
"Y  c #7F7488",
"T  c #6376A3",
"R  c #6379A4",
"E  c #6C7FAA",
"W  c #837686",
"Q  c #8B7A83",
"!  c #6781AB",
"~  c #6B84AD",
"^  c #7D8FB0",
"/  c #19C4C4",
"(  c #1FC8CF",
")  c #16D1D1",
"_  c #1CD2D3",
"`  c #12DEDE",
"'  c #12E0DF",
"]  c #16E0E3",
"[  c #12EAEC",
"{  c #1DF8FA",
"}  c #2AE5E5",
"|  c #34E1E2",
" . c #22ECF0",
".. c #2EEEF3",
"X. c #49DBDD",
"o. c #42DDE6",
"O. c #57DFE0",
"+. c #838383",
"@. c #8B8083",
"#. c gray56",
"$. c #958C8D",
"%. c #8D8994",
"&. c #928D94",
"*. c #9C9494",
"=. c #9B9B9B",
"-. c #A29C9E",
";. c #8594B2",
":. c #8D99B3",
">. c #8598BA",
",. c #90A0BF",
"<. c gray67",
"1. c #ACA9B1",
"2. c #A5AAB9",
"3. c #ABAEBB",
"4. c #B7B7B7",
"5. c #B5B5BD",
"6. c #96A4C0",
"7. c #A2B0CA",
"8. c #BAC4DA",
"9. c gray78",
"0. c #C2C6D2",
"q. c #C2CAD9",
"w. c LightGray",
"e. c #DFDFDF",
"r. c #C8CFE0",
"t. c #CDD5E7",
"y. c #CFD7E8",
"u. c #D3DBEA",
"i. c #DEE3EF",
"p. c #E4E6ED",
"a. c #EFEFEF",
"s. c #E7EBF3",
"d. c #ECEFF5",
"f. c #F5F5F6",
"g. c #FFFFFF",
/* pixels */
". 8 . 8 - 8 . 8 . 8 . 8 . 8 . 8 . 8 . 8 . 8 . 8 . 8 . 8 O 8 . 8 . 8 . 8 . 8 . 8 . 8 . 8 . 8 . 8 . 8 . 8 . 8 . 8 . 8 . 8 . 8 - 8 ",
"z z z g z g z g c g g w.e.e.e.w.e.w.e.e.e.w.e.w.e.e.e.. 5 D <.4.w.9.w.w.9.w.4.9.<.+.z . f f f f f f f f f f z g z g c g z g z g ",
"z z z z z z z z z z f e.w.9.w.4.w.w.w.9.w.w.4.w.w.9.#.. 8 ^ 9.4............. . .[ [ 8 . 8 M #.#.+.#.#.#.A M m f f f g f f f g g ",
"#.#.+.#.#.#.A #.. z g e.9.9.4.w.4.9.9.4.9.9.4.4.w.#.v . 8 <.w.<.! ~ ~ ~ ~ ~ P K u t 8 % 8 #.w.e.e.e.w.e.4.4.<.#.+.#.#.#.^ #.#.#.",
"w.w.w.w.4.<.#.+.. z f e.w.<.<.=.<.#.<.<.<.<.=.<.<.A z . 7 #.4.#.~ ~ ~ ~ ~ ~ L L i t 8 # 8 +.e.e.4.9.4.w.e.e.e.w.e.w.9.w.9.w.9.w.",
"<.<.<.<.=.<.A C . z f a.4.=.<.<.<.<.=.<.#.<.+.<.<.M z . 8 f ] ] ~ ~ ,.,.~ ~ L L i y ' ` 8 #.w.4.<.#.<.#.<.<.=.#.#.<.#.<.D <.#.=.",
"4.=.=.=.<.#.A M . g f a.w.<.+.<.#.<.#.=.=.=.#.#.<.#.g . 8 f t u ~ ~ y.y.~ ~ L L u i 6 , 8 +.e.4.#.<.+.=.+.#.#.<.+.#.=.#.<.=.#.=.",
"4.<.+.4.+.=.m z . 8 f a.9.#.=.#.<.<.=.#.A #.#.<.#.v z - 8 f t u ~ ! y.y.~ ~ L L i i 4 , 8 #.e.<.<.+.=.A <.=.A #.<.+.<.<.#.D <.=.",
"*.<.<.#.=.C f f . . g 9.4.<.) ) ) ) ) ) ) ) ) ) <.M z . . g t u ~ ~ p.p.~ ~ L L i i 6 , 8 C e.e.#.<.+.+.=.C =.#.<.#.#.A <.<.C #.",
"#.@.^ #.C z f f . 8 f <.a.<.X - - - - - - - % X ~ z A % . 8 t y ~ ~ g.g.! ~ L L i i 6 , f f 9.9.#.#.#.#.=.=.=.+.#.<.#.<.<.+.<.#.",
"C M C C g g 8 8 . . f #.w.#.X - % % - % - - - X <.B z 8 . 8 t i ~ ! g.g.! ~ L L i i 6 , z f 9.<.#.<.+.<.#.+.#.C M m v v m v m v ",
"z z f f f . . . . 8 8 C / / : > 9 9 8 9 B B l k / / m 8 . 8 t i ~ ! g.g.! ~ L L i i 6 , g g 4.#.M C m v m z z z z f g f g f f f ",
". . . . . 8 . 8 - 8 g f X - 6 6 j j j j *.*.V V + X g 8 . 8 t u ~ ! g.g.! ~ L L i i 6 , z f #.M m v z f f f 8 8 8 8 8 . 8 . 8 . ",
". 8 . 8 . . 8 . 8 8 g f X - 6 6 j j j j *.*.V V + X z 8 . . t u ~ ! g.g.! ~ L L i i 6 , 8 8 8 8 8 8 8 8 8 8 8 . . . . . % . . . ",
"8 8 8 8 8 8 8 8 8 8 g g X - 6 6 j j x z *.*.V V % X z 8 . 8 t u ~ ~ s.s.! ~ L L i i 6 , 8 . . 8 . . 8 . . 8 . 8 8 8 8 8 8 8 8 8 ",
"z f 8 8 8 8 8 8 . 8 z f X - 6 6 j j b b *.*.V V % X C f . # t i ~ ~ u.y.! ~ L L i i 6 , 8 f z z z z . f g f g g f f f f f f f 8 ",
"=.=.#.=.#.=.#.=.=.. . z X - 6 6 g j b v *.*.V V # X z z . . t u ~ ! y.w.~ ~ L L i i 6 , 8 M <.e.w.z g z A =.=.#.=.=.=.#.=.=.=.=.",
"w.9.w.w.9.w.4.<.C f . z X - 6 6 j j b b *.*.V V - X M g . . t u ~ ! 0.8.~ ~ L L i i : @ 8 <.w.9.<.. f A 9.w.e.e.e.w.e.e.e.w.e.w.",
"<.=.#.<.#.<.<.M C 8 . z X - 6 6 j j b b *.*.V V # X z f . . t u ~ ~ 5.5.~ ~ L L i i % X 8 w.9.<.+.. g =.w.w.4.4.<.4.4.4.<.4.4.4.",
"<.#.=.#.<.+.#.M C 8 . f X - 6 6 j j b b *.*.V V % X f . . . t u ~ ~ 5.5.~ ~ L L i i # X v e.<.#.#.. f =.e.<.<.=.<.#.<.#.=.+.=.=.",
"<.#.#.<.+.<.<.M z 8 . f X - 6 6 j j b b *.*.$.$.# X - . . . = 1 U U ;.;.I I d d 0 0 % X v e.<.<.+.. f =.w.<.#.=.+.=.#.=.C +.#.+.",
"<.#.<.#.<.+.#.C g 8 . f X - 6 6 j j b b *.*.*.*.O X . . . . X % L L ~ ~ L L i i % % % X #.e.<.<.#.. f #.9.+.<.=.<.#.<.#.=.+.=.=.",
"#.<.C A #.#.<.M z 8 . 8 X - 6 6 j j b b *.*.*.*.# X g g f g X % L L ~ ~ L L i i $ & - X 4.e.<.+.A . g +.9.<.+.=.#.=.+.=.A A #.#.",
"#.+.+.A #.<.+.m f 8 . 8 X - 6 6 j j b b *.*.*.*.# X <.<.4.9.X # &.&.3.3.W W c c 9 5 3 : e.9.=.<.C . f +.4.<.=.#.<.+.<.#.A A #.#.",
"#.#.<.<.+.#.#.v f 8 . 8 X - 6 6 j j b b *.*.*.*.O X d.e.e.9.X # *.*.5.5.Q Q b b 9 9 6 2 e.<.=.#.M . g M 9.+.<.#.#.=.#.+.<.#.<.#.",
"=.<.+.#.<.+.C z 8 8 . 8 X - 6 6 j j b b *.*.*.*.# X 9.#.<.+.X # *.*.4.7.Q Q b b 9 9 6 2 a.<.+.<.z . g f #.C v z z z m m M A #.+.",
"m v m v m z f 8 8 8 . 8 X - 6 6 j j V V 5.4.*.*.# X <.=.<.#.X # *.*.g.f.Q Q b b 9 9 3 , a.<.<.#.z . g . 8 8 f f f f f f f z z z ",
"z g f 8 8 8 . . . . . 8 X - 6 6 j j V V 5.5.*.*.O X +.<.%.=.X O *.*.g.g.Q Q b b 9 9 6 , a.Q <.#.g . z 8 . % . . . . . . . 8 8 f ",
". . . . . . . 8 . f g f X % 6 6 j j V V 5.5.*.*.# X #.#.<.+.X # *.*.g.g.D Q b b 9 9 6 2 a.<.<.+.v . z 8 8 8 8 8 8 8 . 8 . . . . ",
"f m m M #.=.#.+.#.#.f . o % 6 6 j j V N y.u.*.*.# X <.#.X + - # *.*.y.y.S S h h 6 6 - - $ + $ + u i i i i i i i u r z g z 8 8 8 ",
"m #.4.e.w.e.w.w.9.<.C . X % 6 6 j j V V y.y.*.*.# X 4.=.X - - # *.*.u.y.N V j j 6 6 - - - - % % i i i i i i i i u i f f g f f z ",
"m <.w.9.9.4.<.<.=.<.8 %   % 7 6 j j V V u.u.*.*.O o 9.<.X - - # $.$.r.q.V V j j 6 6 - - 5 5 < < s s s s s s s s s p { { e.#.8 z ",
"M e.4.<.<.+.* 2 2 2 2 2 6 6 9 9 b b Q Q g.g.*.*.# - o o - - - % # # O   V V j j 6 6 - O *.*.L L ~ ~ ~ ~ ~ ~ ~ ~ ~ ~ ~ E +.+.8 g ",
"M w.4.=.+.<., 6 6 6 6 6 6 6 9 9 b c Q Q g.g.*.*.# - - % - - - % - - - $ V V j j 6 6 - . =.*.L L ~ ~ ~ ~ ~ ~ ~ ~ ~ ~ ~ ~ $.v 8 f ",
"m e.<.#.[ X.3 w w w w w 6 6 9 9 b b Q Q f.f.*.*.# % - : : : , : : - : - N N j j 6 6 - & -.-.P P ;.;.>.>.6.6.6.6.>.>.~ ~ <.v 8 f ",
"m e.<.<.t i i i i i i i 6 6 9 9 b b Q Q 5.5.*.*.# - 6 6 6 6 6 6 6 6 6 6 - - j j 6 6 - O 5.5.~ ! 4.7.y.y.g.g.g.g.y.u.~ ! =.z 8 f ",
"m w.4.#.t i i i i i i i 4 4 9 9 b b Q Q 5.5.*.*.# - 6 6 3 6 6 6 6 6 6 6 - - j j 6 6 - O 5.5.~ ~ 4.5.y.t.g.g.g.g.y.u.! ~ <.z 8 8 ",
"m e.4.<.a d d d d d d n < < 5 5 c c Y Y 2.2.%.%.# $ 8 8 8 8 w 9 8 9 w 8 - - j j 6 6 - O 1.1.R R 2.2.8.8.p.p.p.p.8.8.~ ! z z 8 8 ",
"m e.<.#.J L L L L L L L % % % % i i L L ~ ~ L L % & j j j j j j j j j j - # j j 6 6 - # Q Q L L ~ ~ ~ ~ ! ~ ~ ~ ! ~ ~ ! . . - 8 ",
"m w.4.#.L L L L L L L L % - - % i u L L ~ ~ L L $ & j j j j j j j j j j - - j j 6 6 - - @.Q L L ~ ~ ~ ~ ~ ~ ~ ~ ~ ~ ~ ~ 8 8 8 8 ",
"m e.4.<.I I U U U U U U % % q 0 n n U I :.:.U U 0 0 x x x x x x x x j j - - j j 6 6 - # S S G H R R R R R R R R R R T T A C 8 g ",
"m e.<.#.~ ~ ~ ~ ~ ~ ~ ~ $ % i i L L ~ ~ 5.5.~ ! i u b b b b b b b b j j # - j j 6 6 - - b b i u L L L L L L L L L L L J 9.A 9 g ",
"m 9.4.<.~ ~ ~ ~ ! ~ ~ ~ $ % i i L L ~ ~ 5.5.~ ~ i i b b b b b b b b j j - - j j 6 6 - # b b i i L L L L L L L L L L L J #.M - g ",
"m w.4.#.~ ~ 7.7.q.q.q.q.- : i i L L ~ ~ 0.0.~ ~ i i D D D D D D D D Z Z # - j j 6 6 - - x k e e F F F F F F F H F F F F A z . g ",
"m 4.4.<.E E t.t.g.g.g.g.; 6 i i L L ~ ! u.y.! ~ i u *.*.*.*.*.*.*.*.*.*.# $ j j 6 6 - - 8 9 - % i i i i i i i i i i u t M z 8 8 ",
"g 9.+.$.~ ~ t.t.g.g.g.g.; 6 i i L L ~ ! y.y.~ ~ i u *.*.*.*.*.*.*.*.*.-.# & j j 6 6 - - 9 9 - % i i i i i i i i i i u t M z . 8 ",
"f 4.<.<.~ ~ 7.7.q.q.q.q.< 6 i i L L ~ ~ d.d.~ ~ i u *.*.*.*.Q @.@.@.@.@.# - j j 6 6 - - 7 7 - - q e r r r r r r r r ( ( M z 8 8 ",
"f A A A ~ ~ ~ ~ ~ ~ ~ ~ < 6 i u L L ~ ! g.g.~ ~ u u *.*.*.*.V V V V V V # - j j 6 6 - - 6 6 - - % - 6 7 6 6 6 6 6 , #.#.C z . 8 ",
"f 8 # . ~ ! ~ ~ ~ ~ ~ ~ 4 4 i i L L ~ ! g.g.! ~ i u *.*.*.*.V V V V V V # % j g 4 4 - % 6 6 % % - - 6 6 5 4 4 5 4 : C +.M z . 8 ",
"z z z f o.o.H K K K K K 4 6 i i L L ~ ! g.g.! ~ i i b m b m h h h h h g - % 5 5 : % ` ) _ _ ) ) ) ) _ _ _ _ ) _ _ _ +.A M z . 8 ",
"f f f f f g t i i i i i 6 6 i i L L ~ ! g.g.! ~ i i % - - - - - - - - - - - - - % X A +.#.#.A #.#.<.+.<.#.#.-.^ #.#.#.=.M z . 8 ",
"f A <.<.<.<.t i i i i p 6 6 i i L L ~ ! g.g.! ~ i p % - - - - # - - - - - - % % - X A A A A A A A A A A A A Z A A A A A M g . 8 ",
"f <.9.w.e.w.] ] ] ] ] ] 3 6 i i L L ~ ! i.p.~ ~ i y ' ` ` ` ` ` ` ` ` ` ` ` ` ` ' ' z z z z z z z z z z z z z z z z g z z . 8 8 ",
"f <.w.<.<.#.4.w.e.e.e.4., 4 i i L L ~ ! t.y.~ ~ y t m m z z f f f 8 f 8 8 . 8 . 8 % 8 . 8 . 8 . 8 . . . . . . . . . . . . . 8 8 ",
"f <.e.<.<.<.4.<.#.<.4.e., 6 i i L L ~ ! t.t.~ ~ u t 4.<.<.<.<.<.+.g z f 8 8 8 8 8 8 8 8 8 . . 8 . 8 . 8 . 8 . 8 . 8 . 8 8 8 f g ",
"f <.e.<.+.<.A A <.-.#.A [ } t i L L ~ ~ >.:.~ ~ O.[ 9.w.e.w.w.4.+.8 f j g f f 8 8 8 . 8 8 8 8 8 8 8 8 8 8 8 8 8 8 8 8 8 f f f z ",
"f <.9.<.<.<.#.<.#.#.#.=.<.+.t i L L ! ~ ~ ~ ~ ~ <.+.<.#.<.<.<.A m . 8 g g <.w.e.=.A f g f z z g f f f f f f 8 f f 8 f f z z z z ",
"f <.9.<.^ <.A A =.<.+.<.<.=.r t L K ~ ~ ~ ~ ~ E <.#.<.+.<.<.=.m z . 8 f f i.<.<.e.e.e.w.4.z z g 4.e.e.w.e.e.e.w.w.9.<.=.A f f z ",
"f <.+.m x m v m v m m v m v m m | | { { { { { { m v m v m v m z z 8 . 8 f w.4.<.4.<.4.4.4.v z A e.=.<.<.#.<.+.<.=.<.#.<.w.=.. z ",
"f #.m 8 8 5 8 8 8 8 8 8 8 8 8 8 8 8 8 8 8 8 8 8 8 8 8 8 8 8 8 8 7 8 . . f 4.<.4.4.=.v =.+.m f 4.<.#.<.+.<.<.<.+.<.#.<.+.<.z . z ",
"f 8 . . . . . . . . . . & . . . . . . . . . . . . . . . . . . . . . . . g 8 f 8 g m v m M v f e.=.=.=.<.<.#.=.<.=.=.<.#.#.z . z ",
"z f 8 8 8 . 8 . . 8 . . 8 . . 8 . 8 . . 8 . . 8 . . 8 . . 8 . . 8 . 8 . 8 z z 8 8 . . . . . 8 z z z g z z z z g z z z z g z . z ",
"z z g z f f f g f f g g 8 8 8 8 8 8 8 8 8 8 8 8 8 8 8 8 8 8 8 8 8 8 8 8 8 g z z z 8 8 8 8 8 8 g z . . . . . . . . . . . . . . z ",
"8 8 8 8 8 8 8 8 8 8 8 7 8 8 8 8 8 8 8 8 8 8 8 8 8 8 8 8 8 8 8 8 8 8 8 8 8 8 8 8 8 8 8 8 8 8 8 8 8 8 8 8 8 8 8 8 8 8 8 8 8 8 8 8 "
};
